%TF.GenerationSoftware,KiCad,Pcbnew,7.0.1*%
%TF.CreationDate,2023-05-01T00:30:47+02:00*%
%TF.ProjectId,ChuaCircuits,43687561-4369-4726-9375-6974732e6b69,rev?*%
%TF.SameCoordinates,Original*%
%TF.FileFunction,Drillmap*%
%TF.FilePolarity,Positive*%
%FSLAX45Y45*%
G04 Gerber Fmt 4.5, Leading zero omitted, Abs format (unit mm)*
G04 Created by KiCad (PCBNEW 7.0.1) date 2023-05-01 00:30:47*
%MOMM*%
%LPD*%
G01*
G04 APERTURE LIST*
%ADD10C,0.100000*%
%ADD11C,0.200000*%
G04 APERTURE END LIST*
D10*
X14856000Y-12153000D02*
G75*
G03*
X15356000Y-11653000I0J500000D01*
G01*
X15356000Y-6653000D02*
G75*
G03*
X14856000Y-6153000I-500000J0D01*
G01*
X6856000Y-11653000D02*
G75*
G03*
X7356000Y-12153000I500000J0D01*
G01*
X15356000Y-11653000D02*
X15356000Y-6653000D01*
X7356000Y-6153000D02*
X14856000Y-6153000D01*
X7356000Y-6153000D02*
G75*
G03*
X6856000Y-6653000I0J-500000D01*
G01*
X6856000Y-11653000D02*
X6856000Y-6653000D01*
X7356000Y-12153000D02*
X14856000Y-12153000D01*
D11*
X7098619Y-12470524D02*
X7098619Y-12270524D01*
X7098619Y-12270524D02*
X7146238Y-12270524D01*
X7146238Y-12270524D02*
X7174809Y-12280048D01*
X7174809Y-12280048D02*
X7193857Y-12299095D01*
X7193857Y-12299095D02*
X7203381Y-12318143D01*
X7203381Y-12318143D02*
X7212905Y-12356238D01*
X7212905Y-12356238D02*
X7212905Y-12384809D01*
X7212905Y-12384809D02*
X7203381Y-12422905D01*
X7203381Y-12422905D02*
X7193857Y-12441952D01*
X7193857Y-12441952D02*
X7174809Y-12461000D01*
X7174809Y-12461000D02*
X7146238Y-12470524D01*
X7146238Y-12470524D02*
X7098619Y-12470524D01*
X7298619Y-12470524D02*
X7298619Y-12337190D01*
X7298619Y-12375286D02*
X7308143Y-12356238D01*
X7308143Y-12356238D02*
X7317667Y-12346714D01*
X7317667Y-12346714D02*
X7336714Y-12337190D01*
X7336714Y-12337190D02*
X7355762Y-12337190D01*
X7422428Y-12470524D02*
X7422428Y-12337190D01*
X7422428Y-12270524D02*
X7412905Y-12280048D01*
X7412905Y-12280048D02*
X7422428Y-12289571D01*
X7422428Y-12289571D02*
X7431952Y-12280048D01*
X7431952Y-12280048D02*
X7422428Y-12270524D01*
X7422428Y-12270524D02*
X7422428Y-12289571D01*
X7546238Y-12470524D02*
X7527190Y-12461000D01*
X7527190Y-12461000D02*
X7517667Y-12441952D01*
X7517667Y-12441952D02*
X7517667Y-12270524D01*
X7651000Y-12470524D02*
X7631952Y-12461000D01*
X7631952Y-12461000D02*
X7622428Y-12441952D01*
X7622428Y-12441952D02*
X7622428Y-12270524D01*
X7879571Y-12470524D02*
X7879571Y-12270524D01*
X7879571Y-12270524D02*
X7946238Y-12413381D01*
X7946238Y-12413381D02*
X8012905Y-12270524D01*
X8012905Y-12270524D02*
X8012905Y-12470524D01*
X8193857Y-12470524D02*
X8193857Y-12365762D01*
X8193857Y-12365762D02*
X8184333Y-12346714D01*
X8184333Y-12346714D02*
X8165286Y-12337190D01*
X8165286Y-12337190D02*
X8127190Y-12337190D01*
X8127190Y-12337190D02*
X8108143Y-12346714D01*
X8193857Y-12461000D02*
X8174809Y-12470524D01*
X8174809Y-12470524D02*
X8127190Y-12470524D01*
X8127190Y-12470524D02*
X8108143Y-12461000D01*
X8108143Y-12461000D02*
X8098619Y-12441952D01*
X8098619Y-12441952D02*
X8098619Y-12422905D01*
X8098619Y-12422905D02*
X8108143Y-12403857D01*
X8108143Y-12403857D02*
X8127190Y-12394333D01*
X8127190Y-12394333D02*
X8174809Y-12394333D01*
X8174809Y-12394333D02*
X8193857Y-12384809D01*
X8289095Y-12337190D02*
X8289095Y-12537190D01*
X8289095Y-12346714D02*
X8308143Y-12337190D01*
X8308143Y-12337190D02*
X8346238Y-12337190D01*
X8346238Y-12337190D02*
X8365286Y-12346714D01*
X8365286Y-12346714D02*
X8374809Y-12356238D01*
X8374809Y-12356238D02*
X8384333Y-12375286D01*
X8384333Y-12375286D02*
X8384333Y-12432428D01*
X8384333Y-12432428D02*
X8374809Y-12451476D01*
X8374809Y-12451476D02*
X8365286Y-12461000D01*
X8365286Y-12461000D02*
X8346238Y-12470524D01*
X8346238Y-12470524D02*
X8308143Y-12470524D01*
X8308143Y-12470524D02*
X8289095Y-12461000D01*
X8470048Y-12451476D02*
X8479571Y-12461000D01*
X8479571Y-12461000D02*
X8470048Y-12470524D01*
X8470048Y-12470524D02*
X8460524Y-12461000D01*
X8460524Y-12461000D02*
X8470048Y-12451476D01*
X8470048Y-12451476D02*
X8470048Y-12470524D01*
X8470048Y-12346714D02*
X8479571Y-12356238D01*
X8479571Y-12356238D02*
X8470048Y-12365762D01*
X8470048Y-12365762D02*
X8460524Y-12356238D01*
X8460524Y-12356238D02*
X8470048Y-12346714D01*
X8470048Y-12346714D02*
X8470048Y-12365762D01*
M02*
