G04 #@! TF.GenerationSoftware,KiCad,Pcbnew,7.0.1*
G04 #@! TF.CreationDate,2023-05-01T00:30:29+02:00*
G04 #@! TF.ProjectId,ChuaCircuits,43687561-4369-4726-9375-6974732e6b69,rev?*
G04 #@! TF.SameCoordinates,Original*
G04 #@! TF.FileFunction,Copper,L1,Top*
G04 #@! TF.FilePolarity,Positive*
%FSLAX46Y46*%
G04 Gerber Fmt 4.6, Leading zero omitted, Abs format (unit mm)*
G04 Created by KiCad (PCBNEW 7.0.1) date 2023-05-01 00:30:29*
%MOMM*%
%LPD*%
G01*
G04 APERTURE LIST*
G04 #@! TA.AperFunction,ComponentPad*
%ADD10C,4.700000*%
G04 #@! TD*
G04 #@! TA.AperFunction,ComponentPad*
%ADD11C,1.500000*%
G04 #@! TD*
G04 #@! TA.AperFunction,ComponentPad*
%ADD12O,1.600000X1.600000*%
G04 #@! TD*
G04 #@! TA.AperFunction,ComponentPad*
%ADD13C,1.600000*%
G04 #@! TD*
G04 #@! TA.AperFunction,ComponentPad*
%ADD14C,2.000000*%
G04 #@! TD*
G04 #@! TA.AperFunction,ComponentPad*
%ADD15C,1.440000*%
G04 #@! TD*
G04 #@! TA.AperFunction,ViaPad*
%ADD16C,0.800000*%
G04 #@! TD*
G04 #@! TA.AperFunction,Conductor*
%ADD17C,0.250000*%
G04 #@! TD*
G04 APERTURE END LIST*
D10*
X148559999Y-116529999D03*
X73560001Y-116529999D03*
X148559999Y-66530001D03*
X73559998Y-66530000D03*
D11*
X121620000Y-110840000D03*
X118120000Y-105840000D03*
X114620000Y-110840000D03*
X106620000Y-110840000D03*
X103120000Y-105840000D03*
X99620000Y-110840000D03*
D12*
X125620000Y-95840000D03*
D13*
X125620000Y-85680000D03*
X73760000Y-93140000D03*
X73760000Y-95640000D03*
D14*
X118120000Y-88340000D03*
X118120000Y-95840000D03*
D11*
X105620000Y-74560000D03*
X109120000Y-79560000D03*
X112620000Y-74560000D03*
D13*
X84380000Y-84520000D03*
X81880000Y-84520000D03*
D14*
X103120000Y-88340000D03*
X103120000Y-95840000D03*
D15*
X108080000Y-93300000D03*
X110620000Y-95840000D03*
X113160000Y-93300000D03*
D12*
X129620000Y-95840000D03*
D13*
X129620000Y-85680000D03*
D12*
X142780000Y-89490000D03*
D13*
X132620000Y-89490000D03*
X129620000Y-98420000D03*
X129620000Y-100920000D03*
D15*
X74100000Y-99615000D03*
X76640000Y-102155000D03*
X79180000Y-99615000D03*
D12*
X143240000Y-98840000D03*
D13*
X143240000Y-109000000D03*
D12*
X140240000Y-93300000D03*
X140240000Y-95840000D03*
X140240000Y-98380000D03*
X140240000Y-100920000D03*
X132620000Y-100920000D03*
X132620000Y-98380000D03*
X132620000Y-95840000D03*
D13*
X132620000Y-93300000D03*
D12*
X97080000Y-90560000D03*
D13*
X86920000Y-90560000D03*
D12*
X147240000Y-98840000D03*
D13*
X147240000Y-109000000D03*
D12*
X97080000Y-95640000D03*
D13*
X86920000Y-95640000D03*
D14*
X91880000Y-100840000D03*
X84380000Y-100840000D03*
D12*
X97080000Y-84520000D03*
D13*
X86920000Y-84520000D03*
X143240000Y-95800000D03*
X143240000Y-93300000D03*
D12*
X142780000Y-85680000D03*
D13*
X132620000Y-85680000D03*
D12*
X84380000Y-88020000D03*
X84380000Y-90560000D03*
X84380000Y-93100000D03*
X84380000Y-95640000D03*
X76760000Y-95640000D03*
X76760000Y-93100000D03*
X76760000Y-90560000D03*
D13*
X76760000Y-88020000D03*
D16*
X80560000Y-93100000D03*
D17*
X105620000Y-74560000D02*
X107360000Y-76300000D01*
X107360000Y-76300000D02*
X137150000Y-76300000D01*
X137150000Y-76300000D02*
X137235000Y-76385000D01*
X144890000Y-84040000D02*
X137235000Y-76385000D01*
X73760000Y-95640000D02*
X72635000Y-94515000D01*
X72635000Y-94515000D02*
X72635000Y-90365000D01*
X72635000Y-90365000D02*
X89850000Y-73150000D01*
X89850000Y-73150000D02*
X111210000Y-73150000D01*
X111210000Y-73150000D02*
X112620000Y-74560000D01*
X105620000Y-74560000D02*
X89076396Y-74560000D01*
X89076396Y-74560000D02*
X84380000Y-79256396D01*
X80560000Y-93100000D02*
X79930000Y-93100000D01*
X79300000Y-93100000D02*
X79930000Y-93100000D01*
X76760000Y-90560000D02*
X79300000Y-93100000D01*
X99620000Y-110840000D02*
X99620000Y-87060000D01*
X99620000Y-87060000D02*
X97080000Y-84520000D01*
X91040000Y-90560000D02*
X97080000Y-84520000D01*
X86920000Y-90560000D02*
X91040000Y-90560000D01*
X83710000Y-94369999D02*
X84845989Y-94369999D01*
X76760000Y-88020000D02*
X83109999Y-94369999D01*
X83109999Y-94369999D02*
X83710000Y-94369999D01*
X84845989Y-94369999D02*
X85649999Y-95174009D01*
X85649999Y-96159999D02*
X90330000Y-100840000D01*
X85649999Y-95174009D02*
X85649999Y-96159999D01*
X91880000Y-100840000D02*
X90330000Y-100840000D01*
X143240000Y-93300000D02*
X144890000Y-91650000D01*
X144890000Y-91650000D02*
X144890000Y-84040000D01*
X84380000Y-79256396D02*
X84380000Y-84520000D01*
X86920000Y-95640000D02*
X92000000Y-95640000D01*
X92000000Y-95640000D02*
X97080000Y-90560000D01*
X86920000Y-90560000D02*
X84380000Y-90560000D01*
X84380000Y-88020000D02*
X84380000Y-84520000D01*
X73760000Y-95640000D02*
X76760000Y-95640000D01*
X79180000Y-99615000D02*
X83155000Y-99615000D01*
X83155000Y-99615000D02*
X84380000Y-100840000D01*
X84380000Y-95640000D02*
X84380000Y-100840000D01*
X91880000Y-100840000D02*
X97080000Y-95640000D01*
X86920000Y-95640000D02*
X84380000Y-93100000D01*
X114620000Y-110840000D02*
X115680660Y-110840000D01*
X115680660Y-110840000D02*
X119440000Y-107080660D01*
X119440000Y-107080660D02*
X119440000Y-97160000D01*
X119440000Y-97160000D02*
X118120000Y-95840000D01*
X118120000Y-105840000D02*
X118120000Y-103340000D01*
X118120000Y-103340000D02*
X110620000Y-95840000D01*
X103120000Y-95840000D02*
X110620000Y-95840000D01*
X118120000Y-95840000D02*
X115700000Y-95840000D01*
X115700000Y-95840000D02*
X113160000Y-93300000D01*
X125620000Y-95840000D02*
X118120000Y-95840000D01*
X126909999Y-97129999D02*
X130930000Y-97129999D01*
X130930000Y-97129999D02*
X131369999Y-97129999D01*
X131369999Y-97129999D02*
X132620000Y-98380000D01*
X125620000Y-95840000D02*
X126909999Y-97129999D01*
X132620000Y-95840000D02*
X135050000Y-93410000D01*
X135050000Y-93410000D02*
X135050000Y-88110000D01*
X135050000Y-88110000D02*
X132620000Y-85680000D01*
X129620000Y-85680000D02*
X129620000Y-90300000D01*
X129620000Y-90300000D02*
X132620000Y-93300000D01*
X125620000Y-85680000D02*
X129620000Y-85680000D01*
X129620000Y-95840000D02*
X132620000Y-95840000D01*
X132620000Y-100920000D02*
X129620000Y-100920000D01*
X132620000Y-98380000D02*
X137700000Y-98380000D01*
X137700000Y-98380000D02*
X140240000Y-100920000D01*
X147240000Y-109000000D02*
X147240000Y-105380000D01*
X147240000Y-105380000D02*
X140240000Y-98380000D01*
X143240000Y-109000000D02*
X143240000Y-103920000D01*
X143240000Y-103920000D02*
X140240000Y-100920000D01*
X140240000Y-95840000D02*
X143240000Y-98840000D01*
X143240000Y-98840000D02*
X147240000Y-98840000D01*
X142780000Y-89490000D02*
X141648630Y-89490000D01*
X141648630Y-89490000D02*
X138550000Y-92588630D01*
X138550000Y-92588630D02*
X138550000Y-96690000D01*
X138550000Y-96690000D02*
X140240000Y-98380000D01*
X140240000Y-93300000D02*
X143240000Y-93300000D01*
M02*
