G04 #@! TF.GenerationSoftware,KiCad,Pcbnew,7.0.1*
G04 #@! TF.CreationDate,2023-05-01T00:30:29+02:00*
G04 #@! TF.ProjectId,ChuaCircuits,43687561-4369-4726-9375-6974732e6b69,rev?*
G04 #@! TF.SameCoordinates,Original*
G04 #@! TF.FileFunction,Copper,L2,Bot*
G04 #@! TF.FilePolarity,Positive*
%FSLAX46Y46*%
G04 Gerber Fmt 4.6, Leading zero omitted, Abs format (unit mm)*
G04 Created by KiCad (PCBNEW 7.0.1) date 2023-05-01 00:30:29*
%MOMM*%
%LPD*%
G01*
G04 APERTURE LIST*
G04 #@! TA.AperFunction,ComponentPad*
%ADD10C,4.700000*%
G04 #@! TD*
G04 #@! TA.AperFunction,ComponentPad*
%ADD11C,1.500000*%
G04 #@! TD*
G04 #@! TA.AperFunction,ComponentPad*
%ADD12O,1.600000X1.600000*%
G04 #@! TD*
G04 #@! TA.AperFunction,ComponentPad*
%ADD13C,1.600000*%
G04 #@! TD*
G04 #@! TA.AperFunction,ComponentPad*
%ADD14C,2.000000*%
G04 #@! TD*
G04 #@! TA.AperFunction,ComponentPad*
%ADD15C,1.440000*%
G04 #@! TD*
G04 #@! TA.AperFunction,ViaPad*
%ADD16C,0.800000*%
G04 #@! TD*
G04 #@! TA.AperFunction,Conductor*
%ADD17C,0.250000*%
G04 #@! TD*
G04 APERTURE END LIST*
D10*
X148559999Y-116529999D03*
X73560001Y-116529999D03*
X148559999Y-66530001D03*
X73559998Y-66530000D03*
D11*
X121620000Y-110840000D03*
X118120000Y-105840000D03*
X114620000Y-110840000D03*
X106620000Y-110840000D03*
X103120000Y-105840000D03*
X99620000Y-110840000D03*
D12*
X125620000Y-95840000D03*
D13*
X125620000Y-85680000D03*
X73760000Y-93140000D03*
X73760000Y-95640000D03*
D14*
X118120000Y-88340000D03*
X118120000Y-95840000D03*
D11*
X105620000Y-74560000D03*
X109120000Y-79560000D03*
X112620000Y-74560000D03*
D13*
X84380000Y-84520000D03*
X81880000Y-84520000D03*
D14*
X103120000Y-88340000D03*
X103120000Y-95840000D03*
D15*
X108080000Y-93300000D03*
X110620000Y-95840000D03*
X113160000Y-93300000D03*
D12*
X129620000Y-95840000D03*
D13*
X129620000Y-85680000D03*
D12*
X142780000Y-89490000D03*
D13*
X132620000Y-89490000D03*
X129620000Y-98420000D03*
X129620000Y-100920000D03*
D15*
X74100000Y-99615000D03*
X76640000Y-102155000D03*
X79180000Y-99615000D03*
D12*
X143240000Y-98840000D03*
D13*
X143240000Y-109000000D03*
D12*
X140240000Y-93300000D03*
X140240000Y-95840000D03*
X140240000Y-98380000D03*
X140240000Y-100920000D03*
X132620000Y-100920000D03*
X132620000Y-98380000D03*
X132620000Y-95840000D03*
D13*
X132620000Y-93300000D03*
D12*
X97080000Y-90560000D03*
D13*
X86920000Y-90560000D03*
D12*
X147240000Y-98840000D03*
D13*
X147240000Y-109000000D03*
D12*
X97080000Y-95640000D03*
D13*
X86920000Y-95640000D03*
D14*
X91880000Y-100840000D03*
X84380000Y-100840000D03*
D12*
X97080000Y-84520000D03*
D13*
X86920000Y-84520000D03*
X143240000Y-95800000D03*
X143240000Y-93300000D03*
D12*
X142780000Y-85680000D03*
D13*
X132620000Y-85680000D03*
D12*
X84380000Y-88020000D03*
X84380000Y-90560000D03*
X84380000Y-93100000D03*
X84380000Y-95640000D03*
X76760000Y-95640000D03*
X76760000Y-93100000D03*
X76760000Y-90560000D03*
D13*
X76760000Y-88020000D03*
D16*
X80560000Y-93100000D03*
D17*
X122410000Y-77460000D02*
X119510000Y-74560000D01*
X119510000Y-74560000D02*
X112620000Y-74560000D01*
X80560000Y-93100000D02*
X84380000Y-93100000D01*
X76760000Y-93100000D02*
X83590000Y-86270000D01*
X85170000Y-86270000D02*
X86920000Y-84520000D01*
X83590000Y-86270000D02*
X85170000Y-86270000D01*
X86920000Y-84520000D02*
X94370000Y-84520000D01*
X94370000Y-84520000D02*
X103120000Y-93270000D01*
X103120000Y-93270000D02*
X103120000Y-95840000D01*
X122410000Y-77460000D02*
X122410000Y-97060000D01*
X122410000Y-97060000D02*
X126270000Y-100920000D01*
X126270000Y-100920000D02*
X129620000Y-100920000D01*
G04 #@! TA.AperFunction,Conductor*
G36*
X148562562Y-61530605D02*
G01*
X148777600Y-61539500D01*
X148973455Y-61548052D01*
X148983330Y-61548881D01*
X149196743Y-61575483D01*
X149196793Y-61575490D01*
X149394945Y-61601577D01*
X149404192Y-61603153D01*
X149613521Y-61647044D01*
X149614765Y-61647312D01*
X149810386Y-61690680D01*
X149818901Y-61692889D01*
X150023665Y-61753850D01*
X150025325Y-61754359D01*
X150216696Y-61814698D01*
X150224453Y-61817431D01*
X150423363Y-61895046D01*
X150425513Y-61895911D01*
X150611024Y-61972752D01*
X150617972Y-61975886D01*
X150785903Y-62057982D01*
X150809587Y-62069561D01*
X150812383Y-62070972D01*
X150990420Y-62163652D01*
X150996636Y-62167118D01*
X151179793Y-62276255D01*
X151182929Y-62278187D01*
X151183004Y-62278235D01*
X151352282Y-62386078D01*
X151357710Y-62389741D01*
X151531184Y-62513599D01*
X151534616Y-62516140D01*
X151693912Y-62638372D01*
X151698567Y-62642126D01*
X151861226Y-62779891D01*
X151864838Y-62783072D01*
X152012925Y-62918769D01*
X152016807Y-62922486D01*
X152167512Y-63073191D01*
X152171232Y-63077076D01*
X152306921Y-63225155D01*
X152310107Y-63228772D01*
X152447872Y-63391431D01*
X152451626Y-63396086D01*
X152573858Y-63555382D01*
X152576399Y-63558814D01*
X152700257Y-63732288D01*
X152703920Y-63737716D01*
X152811800Y-63907052D01*
X152813743Y-63910205D01*
X152922880Y-64093362D01*
X152926346Y-64099578D01*
X153019026Y-64277615D01*
X153020437Y-64280411D01*
X153114099Y-64471997D01*
X153117260Y-64479005D01*
X153194051Y-64664395D01*
X153194991Y-64666734D01*
X153206377Y-64695911D01*
X153272559Y-64865523D01*
X153275302Y-64873309D01*
X153335602Y-65064554D01*
X153336186Y-65066460D01*
X153397105Y-65271084D01*
X153399321Y-65279627D01*
X153442671Y-65475166D01*
X153442971Y-65476559D01*
X153486844Y-65685802D01*
X153488422Y-65695062D01*
X153514459Y-65892829D01*
X153514568Y-65893677D01*
X153541114Y-66106641D01*
X153541948Y-66116570D01*
X153550513Y-66312728D01*
X153550525Y-66313013D01*
X153559394Y-66527438D01*
X153559500Y-66532562D01*
X153559500Y-116527438D01*
X153559394Y-116532563D01*
X153550525Y-116746987D01*
X153550513Y-116747271D01*
X153541948Y-116943428D01*
X153541114Y-116953357D01*
X153514568Y-117166321D01*
X153514459Y-117167169D01*
X153488422Y-117364936D01*
X153486844Y-117374196D01*
X153442971Y-117583439D01*
X153442671Y-117584832D01*
X153399321Y-117780371D01*
X153397105Y-117788914D01*
X153336186Y-117993538D01*
X153335602Y-117995444D01*
X153275302Y-118186689D01*
X153272559Y-118194475D01*
X153195008Y-118393224D01*
X153194051Y-118395603D01*
X153117260Y-118580993D01*
X153114099Y-118588001D01*
X153020437Y-118779587D01*
X153019026Y-118782383D01*
X152926346Y-118960420D01*
X152922880Y-118966636D01*
X152813743Y-119149793D01*
X152811800Y-119152946D01*
X152703920Y-119322282D01*
X152700257Y-119327710D01*
X152576399Y-119501184D01*
X152573858Y-119504616D01*
X152451626Y-119663912D01*
X152447872Y-119668567D01*
X152310107Y-119831226D01*
X152306908Y-119834858D01*
X152171254Y-119982899D01*
X152167512Y-119986807D01*
X152016807Y-120137512D01*
X152012899Y-120141254D01*
X151864858Y-120276908D01*
X151861226Y-120280107D01*
X151698567Y-120417872D01*
X151693912Y-120421626D01*
X151534616Y-120543858D01*
X151531184Y-120546399D01*
X151357710Y-120670257D01*
X151352282Y-120673920D01*
X151182946Y-120781800D01*
X151179793Y-120783743D01*
X150996636Y-120892880D01*
X150990420Y-120896346D01*
X150812383Y-120989026D01*
X150809587Y-120990437D01*
X150618001Y-121084099D01*
X150610993Y-121087260D01*
X150425603Y-121164051D01*
X150423224Y-121165008D01*
X150224475Y-121242559D01*
X150216689Y-121245302D01*
X150025444Y-121305602D01*
X150023538Y-121306186D01*
X149818914Y-121367105D01*
X149810371Y-121369321D01*
X149614832Y-121412671D01*
X149613439Y-121412971D01*
X149404196Y-121456844D01*
X149394936Y-121458422D01*
X149197169Y-121484459D01*
X149196321Y-121484568D01*
X148983357Y-121511114D01*
X148973428Y-121511948D01*
X148777381Y-121520508D01*
X148777097Y-121520520D01*
X148562563Y-121529394D01*
X148557438Y-121529500D01*
X73562562Y-121529500D01*
X73557437Y-121529394D01*
X73342901Y-121520520D01*
X73342617Y-121520508D01*
X73146570Y-121511948D01*
X73136641Y-121511114D01*
X72923677Y-121484568D01*
X72922829Y-121484459D01*
X72725062Y-121458422D01*
X72715802Y-121456844D01*
X72506559Y-121412971D01*
X72505166Y-121412671D01*
X72309627Y-121369321D01*
X72301084Y-121367105D01*
X72096460Y-121306186D01*
X72094554Y-121305602D01*
X71903309Y-121245302D01*
X71895523Y-121242559D01*
X71766985Y-121192404D01*
X71696734Y-121164991D01*
X71694395Y-121164051D01*
X71509005Y-121087260D01*
X71501997Y-121084099D01*
X71310411Y-120990437D01*
X71307615Y-120989026D01*
X71129578Y-120896346D01*
X71123362Y-120892880D01*
X70940205Y-120783743D01*
X70937052Y-120781800D01*
X70767716Y-120673920D01*
X70762288Y-120670257D01*
X70588814Y-120546399D01*
X70585382Y-120543858D01*
X70426086Y-120421626D01*
X70421431Y-120417872D01*
X70258772Y-120280107D01*
X70255155Y-120276921D01*
X70107076Y-120141232D01*
X70103191Y-120137512D01*
X69952486Y-119986807D01*
X69948769Y-119982925D01*
X69813072Y-119834838D01*
X69809891Y-119831226D01*
X69672126Y-119668567D01*
X69668372Y-119663912D01*
X69546140Y-119504616D01*
X69543599Y-119501184D01*
X69419741Y-119327710D01*
X69416078Y-119322282D01*
X69308198Y-119152946D01*
X69306255Y-119149793D01*
X69197118Y-118966636D01*
X69193652Y-118960420D01*
X69100972Y-118782383D01*
X69099561Y-118779587D01*
X69087982Y-118755903D01*
X69067624Y-118714260D01*
X71729290Y-118714260D01*
X71729291Y-118714261D01*
X71855217Y-118819925D01*
X72132585Y-119002354D01*
X72429258Y-119151349D01*
X72741221Y-119264894D01*
X73064266Y-119341457D01*
X73394010Y-119379999D01*
X73725992Y-119379999D01*
X74055735Y-119341457D01*
X74378780Y-119264894D01*
X74690743Y-119151349D01*
X74987416Y-119002354D01*
X75264784Y-118819926D01*
X75390709Y-118714261D01*
X75390710Y-118714260D01*
X146729288Y-118714260D01*
X146729289Y-118714261D01*
X146855215Y-118819925D01*
X147132583Y-119002354D01*
X147429256Y-119151349D01*
X147741219Y-119264894D01*
X148064264Y-119341457D01*
X148394008Y-119379999D01*
X148725990Y-119379999D01*
X149055733Y-119341457D01*
X149378778Y-119264894D01*
X149690741Y-119151349D01*
X149987414Y-119002354D01*
X150264782Y-118819926D01*
X150390707Y-118714261D01*
X150390708Y-118714260D01*
X148559999Y-116883552D01*
X146729288Y-118714260D01*
X75390710Y-118714260D01*
X73560001Y-116883552D01*
X71729290Y-118714260D01*
X69067624Y-118714260D01*
X69005886Y-118587972D01*
X69002752Y-118581024D01*
X68925911Y-118395513D01*
X68925046Y-118393363D01*
X68847431Y-118194453D01*
X68844696Y-118186689D01*
X68816970Y-118098753D01*
X68784359Y-117995325D01*
X68783850Y-117993665D01*
X68722889Y-117788901D01*
X68720680Y-117780386D01*
X68677312Y-117584765D01*
X68677027Y-117583439D01*
X68671495Y-117557057D01*
X68633153Y-117374192D01*
X68631576Y-117364936D01*
X68605490Y-117166793D01*
X68605483Y-117166743D01*
X68578881Y-116953330D01*
X68578052Y-116943455D01*
X68569486Y-116747271D01*
X68560605Y-116532562D01*
X68560552Y-116529999D01*
X70705170Y-116529999D01*
X70724474Y-116861425D01*
X70782121Y-117188362D01*
X70877339Y-117506408D01*
X71008833Y-117811246D01*
X71174824Y-118098753D01*
X71372359Y-118364087D01*
X73206448Y-116529999D01*
X73206447Y-116529998D01*
X73913553Y-116529998D01*
X75747641Y-118364087D01*
X75945177Y-118098753D01*
X76111168Y-117811246D01*
X76242662Y-117506408D01*
X76337880Y-117188362D01*
X76395527Y-116861425D01*
X76414831Y-116529999D01*
X145705168Y-116529999D01*
X145724472Y-116861425D01*
X145782119Y-117188362D01*
X145877337Y-117506408D01*
X146008831Y-117811246D01*
X146174822Y-118098753D01*
X146372357Y-118364087D01*
X148206446Y-116529999D01*
X148913552Y-116529999D01*
X150747639Y-118364087D01*
X150945175Y-118098753D01*
X151111166Y-117811246D01*
X151242660Y-117506408D01*
X151337878Y-117188362D01*
X151395525Y-116861425D01*
X151414829Y-116529999D01*
X151395525Y-116198572D01*
X151337878Y-115871635D01*
X151242660Y-115553589D01*
X151111166Y-115248751D01*
X150945175Y-114961244D01*
X150747639Y-114695909D01*
X148913552Y-116529999D01*
X148206446Y-116529999D01*
X146372356Y-114695909D01*
X146174825Y-114961240D01*
X146008831Y-115248751D01*
X145877337Y-115553589D01*
X145782119Y-115871635D01*
X145724472Y-116198572D01*
X145705168Y-116529999D01*
X76414831Y-116529999D01*
X76395527Y-116198572D01*
X76337880Y-115871635D01*
X76242662Y-115553589D01*
X76111168Y-115248751D01*
X75945177Y-114961244D01*
X75747641Y-114695909D01*
X73913553Y-116529998D01*
X73206447Y-116529998D01*
X71372358Y-114695909D01*
X71174827Y-114961240D01*
X71008833Y-115248751D01*
X70877339Y-115553589D01*
X70782121Y-115871635D01*
X70724474Y-116198572D01*
X70705170Y-116529999D01*
X68560552Y-116529999D01*
X68560500Y-116527439D01*
X68560500Y-114345735D01*
X71729290Y-114345735D01*
X73560001Y-116176446D01*
X73560002Y-116176446D01*
X75390710Y-114345736D01*
X75390709Y-114345735D01*
X146729288Y-114345735D01*
X148559999Y-116176446D01*
X148560000Y-116176446D01*
X150390708Y-114345736D01*
X150390707Y-114345735D01*
X150264782Y-114240072D01*
X149987414Y-114057643D01*
X149690741Y-113908648D01*
X149378778Y-113795103D01*
X149055733Y-113718540D01*
X148725990Y-113679999D01*
X148394008Y-113679999D01*
X148064264Y-113718540D01*
X147741219Y-113795103D01*
X147429256Y-113908648D01*
X147132583Y-114057643D01*
X146855215Y-114240071D01*
X146729288Y-114345735D01*
X75390709Y-114345735D01*
X75264784Y-114240072D01*
X74987416Y-114057643D01*
X74690743Y-113908648D01*
X74378780Y-113795103D01*
X74055735Y-113718540D01*
X73725992Y-113679999D01*
X73394010Y-113679999D01*
X73064266Y-113718540D01*
X72741221Y-113795103D01*
X72429258Y-113908648D01*
X72132585Y-114057643D01*
X71855217Y-114240071D01*
X71729290Y-114345735D01*
X68560500Y-114345735D01*
X68560500Y-110839999D01*
X98364722Y-110839999D01*
X98383792Y-111057974D01*
X98440379Y-111269161D01*
X98440425Y-111269330D01*
X98532898Y-111467639D01*
X98658402Y-111646877D01*
X98813123Y-111801598D01*
X98992361Y-111927102D01*
X99190670Y-112019575D01*
X99402023Y-112076207D01*
X99620000Y-112095277D01*
X99837977Y-112076207D01*
X100049330Y-112019575D01*
X100247639Y-111927102D01*
X100310446Y-111883124D01*
X105930426Y-111883124D01*
X105930427Y-111883125D01*
X105992610Y-111926666D01*
X106190840Y-112019102D01*
X106402113Y-112075712D01*
X106620000Y-112094775D01*
X106837886Y-112075712D01*
X107049159Y-112019102D01*
X107247385Y-111926667D01*
X107309572Y-111883124D01*
X106620001Y-111193553D01*
X106620000Y-111193553D01*
X105930426Y-111883124D01*
X100310446Y-111883124D01*
X100426877Y-111801598D01*
X100581598Y-111646877D01*
X100707102Y-111467639D01*
X100799575Y-111269330D01*
X100856207Y-111057977D01*
X100875277Y-110840000D01*
X100875277Y-110839999D01*
X105365224Y-110839999D01*
X105384287Y-111057886D01*
X105440898Y-111269161D01*
X105533331Y-111467386D01*
X105576873Y-111529571D01*
X105576875Y-111529572D01*
X106266447Y-110840001D01*
X106973553Y-110840001D01*
X107663124Y-111529572D01*
X107706667Y-111467385D01*
X107799102Y-111269159D01*
X107855712Y-111057886D01*
X107874775Y-110839999D01*
X113364722Y-110839999D01*
X113383792Y-111057974D01*
X113440379Y-111269161D01*
X113440425Y-111269330D01*
X113532898Y-111467639D01*
X113658402Y-111646877D01*
X113813123Y-111801598D01*
X113992361Y-111927102D01*
X114190670Y-112019575D01*
X114402023Y-112076207D01*
X114620000Y-112095277D01*
X114837977Y-112076207D01*
X115049330Y-112019575D01*
X115247639Y-111927102D01*
X115310446Y-111883124D01*
X120930426Y-111883124D01*
X120930427Y-111883125D01*
X120992610Y-111926666D01*
X121190840Y-112019102D01*
X121402113Y-112075712D01*
X121620000Y-112094775D01*
X121837886Y-112075712D01*
X122049159Y-112019102D01*
X122247385Y-111926667D01*
X122309572Y-111883124D01*
X121620001Y-111193553D01*
X121620000Y-111193553D01*
X120930426Y-111883124D01*
X115310446Y-111883124D01*
X115426877Y-111801598D01*
X115581598Y-111646877D01*
X115707102Y-111467639D01*
X115799575Y-111269330D01*
X115856207Y-111057977D01*
X115875277Y-110840000D01*
X115875277Y-110839999D01*
X120365224Y-110839999D01*
X120384287Y-111057886D01*
X120440898Y-111269161D01*
X120533331Y-111467386D01*
X120576873Y-111529571D01*
X120576875Y-111529572D01*
X121266447Y-110840001D01*
X121973553Y-110840001D01*
X122663124Y-111529572D01*
X122706667Y-111467385D01*
X122799102Y-111269159D01*
X122855712Y-111057886D01*
X122874775Y-110839999D01*
X122855712Y-110622113D01*
X122799102Y-110410840D01*
X122706667Y-110212615D01*
X122663123Y-110150428D01*
X121973553Y-110840000D01*
X121973553Y-110840001D01*
X121266447Y-110840001D01*
X121266447Y-110840000D01*
X120576875Y-110150427D01*
X120576874Y-110150428D01*
X120533333Y-110212611D01*
X120440897Y-110410840D01*
X120384287Y-110622113D01*
X120365224Y-110839999D01*
X115875277Y-110839999D01*
X115856207Y-110622023D01*
X115799575Y-110410670D01*
X115707102Y-110212362D01*
X115581598Y-110033123D01*
X115426877Y-109878402D01*
X115310445Y-109796875D01*
X120930427Y-109796875D01*
X121620000Y-110486447D01*
X121620001Y-110486447D01*
X122309572Y-109796875D01*
X122309571Y-109796873D01*
X122247386Y-109753331D01*
X122049161Y-109660898D01*
X121837886Y-109604287D01*
X121620000Y-109585224D01*
X121402113Y-109604287D01*
X121190840Y-109660897D01*
X120992611Y-109753333D01*
X120930428Y-109796874D01*
X120930427Y-109796875D01*
X115310445Y-109796875D01*
X115247639Y-109752898D01*
X115156205Y-109710261D01*
X115049331Y-109660425D01*
X114837974Y-109603792D01*
X114620000Y-109584722D01*
X114402025Y-109603792D01*
X114190668Y-109660425D01*
X113992361Y-109752898D01*
X113813122Y-109878402D01*
X113658402Y-110033122D01*
X113532898Y-110212361D01*
X113440425Y-110410668D01*
X113383792Y-110622025D01*
X113364722Y-110839999D01*
X107874775Y-110839999D01*
X107855712Y-110622113D01*
X107799102Y-110410840D01*
X107706667Y-110212615D01*
X107663123Y-110150428D01*
X106973553Y-110840000D01*
X106973553Y-110840001D01*
X106266447Y-110840001D01*
X106266447Y-110840000D01*
X105576875Y-110150427D01*
X105576874Y-110150428D01*
X105533333Y-110212611D01*
X105440897Y-110410840D01*
X105384287Y-110622113D01*
X105365224Y-110839999D01*
X100875277Y-110839999D01*
X100856207Y-110622023D01*
X100799575Y-110410670D01*
X100707102Y-110212362D01*
X100581598Y-110033123D01*
X100426877Y-109878402D01*
X100310445Y-109796875D01*
X105930427Y-109796875D01*
X106620000Y-110486447D01*
X106620001Y-110486447D01*
X107309572Y-109796875D01*
X107309571Y-109796873D01*
X107247386Y-109753331D01*
X107049161Y-109660898D01*
X106837886Y-109604287D01*
X106620000Y-109585224D01*
X106402113Y-109604287D01*
X106190840Y-109660897D01*
X105992611Y-109753333D01*
X105930428Y-109796874D01*
X105930427Y-109796875D01*
X100310445Y-109796875D01*
X100247639Y-109752898D01*
X100156205Y-109710261D01*
X100049331Y-109660425D01*
X99837974Y-109603792D01*
X99620000Y-109584722D01*
X99402025Y-109603792D01*
X99190668Y-109660425D01*
X98992361Y-109752898D01*
X98813122Y-109878402D01*
X98658402Y-110033122D01*
X98532898Y-110212361D01*
X98440425Y-110410668D01*
X98383792Y-110622025D01*
X98364722Y-110839999D01*
X68560500Y-110839999D01*
X68560500Y-108999999D01*
X141934531Y-108999999D01*
X141954364Y-109226689D01*
X142013261Y-109446497D01*
X142109432Y-109652735D01*
X142239953Y-109839140D01*
X142400859Y-110000046D01*
X142587264Y-110130567D01*
X142587265Y-110130567D01*
X142587266Y-110130568D01*
X142793504Y-110226739D01*
X143013308Y-110285635D01*
X143240000Y-110305468D01*
X143466692Y-110285635D01*
X143686496Y-110226739D01*
X143892734Y-110130568D01*
X144079139Y-110000047D01*
X144240047Y-109839139D01*
X144370568Y-109652734D01*
X144466739Y-109446496D01*
X144525635Y-109226692D01*
X144545468Y-109000000D01*
X144545468Y-108999999D01*
X145934531Y-108999999D01*
X145954364Y-109226689D01*
X146013261Y-109446497D01*
X146109432Y-109652735D01*
X146239953Y-109839140D01*
X146400859Y-110000046D01*
X146587264Y-110130567D01*
X146587265Y-110130567D01*
X146587266Y-110130568D01*
X146793504Y-110226739D01*
X147013308Y-110285635D01*
X147240000Y-110305468D01*
X147466692Y-110285635D01*
X147686496Y-110226739D01*
X147892734Y-110130568D01*
X148079139Y-110000047D01*
X148240047Y-109839139D01*
X148370568Y-109652734D01*
X148466739Y-109446496D01*
X148525635Y-109226692D01*
X148545468Y-109000000D01*
X148525635Y-108773308D01*
X148466739Y-108553504D01*
X148370568Y-108347266D01*
X148240047Y-108160861D01*
X148240046Y-108160859D01*
X148079140Y-107999953D01*
X147892735Y-107869432D01*
X147686497Y-107773261D01*
X147466689Y-107714364D01*
X147240000Y-107694531D01*
X147013310Y-107714364D01*
X146793502Y-107773261D01*
X146587264Y-107869432D01*
X146400859Y-107999953D01*
X146239953Y-108160859D01*
X146109432Y-108347264D01*
X146013261Y-108553502D01*
X145954364Y-108773310D01*
X145934531Y-108999999D01*
X144545468Y-108999999D01*
X144525635Y-108773308D01*
X144466739Y-108553504D01*
X144370568Y-108347266D01*
X144240047Y-108160861D01*
X144240046Y-108160859D01*
X144079140Y-107999953D01*
X143892735Y-107869432D01*
X143686497Y-107773261D01*
X143466689Y-107714364D01*
X143240000Y-107694531D01*
X143013310Y-107714364D01*
X142793502Y-107773261D01*
X142587264Y-107869432D01*
X142400859Y-107999953D01*
X142239953Y-108160859D01*
X142109432Y-108347264D01*
X142013261Y-108553502D01*
X141954364Y-108773310D01*
X141934531Y-108999999D01*
X68560500Y-108999999D01*
X68560500Y-106883124D01*
X102430426Y-106883124D01*
X102430427Y-106883125D01*
X102492610Y-106926666D01*
X102690840Y-107019102D01*
X102902113Y-107075712D01*
X103120000Y-107094775D01*
X103337886Y-107075712D01*
X103549159Y-107019102D01*
X103747385Y-106926667D01*
X103809572Y-106883124D01*
X103120001Y-106193553D01*
X103120000Y-106193553D01*
X102430426Y-106883124D01*
X68560500Y-106883124D01*
X68560500Y-105839999D01*
X101865224Y-105839999D01*
X101884287Y-106057886D01*
X101940898Y-106269161D01*
X102033331Y-106467386D01*
X102076873Y-106529571D01*
X102076875Y-106529572D01*
X102766447Y-105840001D01*
X102766447Y-105840000D01*
X103473553Y-105840000D01*
X104163124Y-106529572D01*
X104206667Y-106467385D01*
X104299102Y-106269159D01*
X104355712Y-106057886D01*
X104374775Y-105840000D01*
X116864722Y-105840000D01*
X116883792Y-106057974D01*
X116940379Y-106269161D01*
X116940425Y-106269330D01*
X117032898Y-106467639D01*
X117158402Y-106646877D01*
X117313123Y-106801598D01*
X117492361Y-106927102D01*
X117690670Y-107019575D01*
X117902023Y-107076207D01*
X118120000Y-107095277D01*
X118337977Y-107076207D01*
X118549330Y-107019575D01*
X118747639Y-106927102D01*
X118926877Y-106801598D01*
X119081598Y-106646877D01*
X119207102Y-106467639D01*
X119299575Y-106269330D01*
X119356207Y-106057977D01*
X119375277Y-105840000D01*
X119356207Y-105622023D01*
X119299575Y-105410670D01*
X119207102Y-105212362D01*
X119081598Y-105033123D01*
X118926877Y-104878402D01*
X118747639Y-104752898D01*
X118656205Y-104710261D01*
X118549331Y-104660425D01*
X118337974Y-104603792D01*
X118120000Y-104584722D01*
X117902025Y-104603792D01*
X117690668Y-104660425D01*
X117492361Y-104752898D01*
X117313122Y-104878402D01*
X117158402Y-105033122D01*
X117032898Y-105212361D01*
X116940425Y-105410668D01*
X116883792Y-105622025D01*
X116864722Y-105840000D01*
X104374775Y-105840000D01*
X104374775Y-105839999D01*
X104355712Y-105622113D01*
X104299102Y-105410840D01*
X104206667Y-105212615D01*
X104163123Y-105150428D01*
X103473553Y-105840000D01*
X102766447Y-105840000D01*
X102076875Y-105150427D01*
X102076874Y-105150428D01*
X102033333Y-105212611D01*
X101940897Y-105410840D01*
X101884287Y-105622113D01*
X101865224Y-105839999D01*
X68560500Y-105839999D01*
X68560500Y-104796875D01*
X102430427Y-104796875D01*
X103120000Y-105486447D01*
X103120001Y-105486447D01*
X103809572Y-104796875D01*
X103809571Y-104796873D01*
X103747386Y-104753331D01*
X103549161Y-104660898D01*
X103337886Y-104604287D01*
X103120000Y-104585224D01*
X102902113Y-104604287D01*
X102690840Y-104660897D01*
X102492611Y-104753333D01*
X102430428Y-104796874D01*
X102430427Y-104796875D01*
X68560500Y-104796875D01*
X68560500Y-103176583D01*
X75971967Y-103176583D01*
X76027670Y-103215587D01*
X76221138Y-103305802D01*
X76427342Y-103361055D01*
X76640000Y-103379660D01*
X76852657Y-103361055D01*
X77058861Y-103305802D01*
X77252325Y-103215589D01*
X77308030Y-103176583D01*
X76640001Y-102508553D01*
X76640000Y-102508553D01*
X75971967Y-103176583D01*
X68560500Y-103176583D01*
X68560500Y-102155000D01*
X75415339Y-102155000D01*
X75433944Y-102367657D01*
X75489197Y-102573861D01*
X75579410Y-102767326D01*
X75618415Y-102823030D01*
X75618416Y-102823031D01*
X76286447Y-102155001D01*
X76286447Y-102155000D01*
X76993553Y-102155000D01*
X77661583Y-102823030D01*
X77700589Y-102767325D01*
X77790802Y-102573861D01*
X77846055Y-102367657D01*
X77864660Y-102155000D01*
X77846055Y-101942342D01*
X77790802Y-101736138D01*
X77700587Y-101542670D01*
X77661583Y-101486967D01*
X76993553Y-102155000D01*
X76286447Y-102155000D01*
X75618414Y-101486967D01*
X75579411Y-101542672D01*
X75489197Y-101736138D01*
X75433944Y-101942342D01*
X75415339Y-102155000D01*
X68560500Y-102155000D01*
X68560500Y-101133414D01*
X75971967Y-101133414D01*
X76640000Y-101801447D01*
X76640001Y-101801447D01*
X77308031Y-101133416D01*
X77308030Y-101133415D01*
X77252326Y-101094410D01*
X77058861Y-101004197D01*
X76852657Y-100948944D01*
X76640000Y-100930339D01*
X76427342Y-100948944D01*
X76221138Y-101004197D01*
X76027672Y-101094411D01*
X75971967Y-101133414D01*
X68560500Y-101133414D01*
X68560500Y-99614999D01*
X72874837Y-99614999D01*
X72893450Y-99827744D01*
X72948724Y-100034031D01*
X73038979Y-100227582D01*
X73161471Y-100402520D01*
X73312479Y-100553528D01*
X73487417Y-100676020D01*
X73487418Y-100676020D01*
X73487419Y-100676021D01*
X73680970Y-100766276D01*
X73887253Y-100821549D01*
X74100000Y-100840162D01*
X74312747Y-100821549D01*
X74519030Y-100766276D01*
X74712581Y-100676021D01*
X74887519Y-100553529D01*
X75038529Y-100402519D01*
X75161021Y-100227581D01*
X75251276Y-100034030D01*
X75306549Y-99827747D01*
X75325162Y-99615000D01*
X75325162Y-99614999D01*
X77954837Y-99614999D01*
X77973450Y-99827744D01*
X78028724Y-100034031D01*
X78118979Y-100227582D01*
X78241471Y-100402520D01*
X78392479Y-100553528D01*
X78567417Y-100676020D01*
X78567418Y-100676020D01*
X78567419Y-100676021D01*
X78760970Y-100766276D01*
X78967253Y-100821549D01*
X79180000Y-100840162D01*
X79181852Y-100840000D01*
X82874356Y-100840000D01*
X82894891Y-101087816D01*
X82894891Y-101087819D01*
X82894892Y-101087821D01*
X82955937Y-101328881D01*
X83000319Y-101430062D01*
X83055825Y-101556604D01*
X83055827Y-101556607D01*
X83191836Y-101764785D01*
X83360256Y-101947738D01*
X83360259Y-101947740D01*
X83556485Y-102100470D01*
X83556487Y-102100471D01*
X83556491Y-102100474D01*
X83775190Y-102218828D01*
X84010386Y-102299571D01*
X84255665Y-102340500D01*
X84504335Y-102340500D01*
X84749614Y-102299571D01*
X84984810Y-102218828D01*
X85203509Y-102100474D01*
X85399744Y-101947738D01*
X85568164Y-101764785D01*
X85704173Y-101556607D01*
X85804063Y-101328881D01*
X85865108Y-101087821D01*
X85885643Y-100840000D01*
X90374356Y-100840000D01*
X90394891Y-101087816D01*
X90394891Y-101087819D01*
X90394892Y-101087821D01*
X90455937Y-101328881D01*
X90500319Y-101430062D01*
X90555825Y-101556604D01*
X90555827Y-101556607D01*
X90691836Y-101764785D01*
X90860256Y-101947738D01*
X90860259Y-101947740D01*
X91056485Y-102100470D01*
X91056487Y-102100471D01*
X91056491Y-102100474D01*
X91275190Y-102218828D01*
X91510386Y-102299571D01*
X91755665Y-102340500D01*
X92004335Y-102340500D01*
X92249614Y-102299571D01*
X92484810Y-102218828D01*
X92703509Y-102100474D01*
X92899744Y-101947738D01*
X93068164Y-101764785D01*
X93204173Y-101556607D01*
X93304063Y-101328881D01*
X93365108Y-101087821D01*
X93385643Y-100840000D01*
X93365108Y-100592179D01*
X93304063Y-100351119D01*
X93213856Y-100145468D01*
X93204174Y-100123395D01*
X93204173Y-100123393D01*
X93068164Y-99915215D01*
X92899744Y-99732262D01*
X92794053Y-99649999D01*
X92703514Y-99579529D01*
X92703510Y-99579526D01*
X92703509Y-99579526D01*
X92484810Y-99461172D01*
X92484806Y-99461170D01*
X92484805Y-99461170D01*
X92249615Y-99380429D01*
X92004335Y-99339500D01*
X91755665Y-99339500D01*
X91510384Y-99380429D01*
X91275194Y-99461170D01*
X91056485Y-99579529D01*
X90860259Y-99732259D01*
X90860256Y-99732261D01*
X90860256Y-99732262D01*
X90772359Y-99827744D01*
X90691837Y-99915214D01*
X90555825Y-100123395D01*
X90510125Y-100227582D01*
X90455937Y-100351119D01*
X90424945Y-100473504D01*
X90394891Y-100592183D01*
X90374356Y-100840000D01*
X85885643Y-100840000D01*
X85865108Y-100592179D01*
X85804063Y-100351119D01*
X85713856Y-100145468D01*
X85704174Y-100123395D01*
X85704173Y-100123393D01*
X85568164Y-99915215D01*
X85399744Y-99732262D01*
X85294053Y-99649999D01*
X85203514Y-99579529D01*
X85203510Y-99579526D01*
X85203509Y-99579526D01*
X84984810Y-99461172D01*
X84984806Y-99461170D01*
X84984805Y-99461170D01*
X84749615Y-99380429D01*
X84504335Y-99339500D01*
X84255665Y-99339500D01*
X84010384Y-99380429D01*
X83775194Y-99461170D01*
X83556485Y-99579529D01*
X83360259Y-99732259D01*
X83360256Y-99732261D01*
X83360256Y-99732262D01*
X83272359Y-99827744D01*
X83191837Y-99915214D01*
X83055825Y-100123395D01*
X83010125Y-100227582D01*
X82955937Y-100351119D01*
X82924945Y-100473504D01*
X82894891Y-100592183D01*
X82874356Y-100840000D01*
X79181852Y-100840000D01*
X79392747Y-100821549D01*
X79599030Y-100766276D01*
X79792581Y-100676021D01*
X79967519Y-100553529D01*
X80118529Y-100402519D01*
X80241021Y-100227581D01*
X80331276Y-100034030D01*
X80386549Y-99827747D01*
X80405162Y-99615000D01*
X80386549Y-99402253D01*
X80331276Y-99195970D01*
X80241021Y-99002419D01*
X80145728Y-98866326D01*
X80118528Y-98827479D01*
X79967520Y-98676471D01*
X79792582Y-98553979D01*
X79599031Y-98463724D01*
X79392744Y-98408450D01*
X79180000Y-98389837D01*
X78967255Y-98408450D01*
X78760968Y-98463724D01*
X78567417Y-98553979D01*
X78392479Y-98676471D01*
X78241471Y-98827479D01*
X78118979Y-99002417D01*
X78028724Y-99195968D01*
X77973450Y-99402255D01*
X77954837Y-99614999D01*
X75325162Y-99614999D01*
X75306549Y-99402253D01*
X75251276Y-99195970D01*
X75161021Y-99002419D01*
X75065728Y-98866326D01*
X75038528Y-98827479D01*
X74887520Y-98676471D01*
X74712582Y-98553979D01*
X74519031Y-98463724D01*
X74312744Y-98408450D01*
X74100000Y-98389837D01*
X73887255Y-98408450D01*
X73680968Y-98463724D01*
X73487417Y-98553979D01*
X73312479Y-98676471D01*
X73161471Y-98827479D01*
X73038979Y-99002417D01*
X72948724Y-99195968D01*
X72893450Y-99402255D01*
X72874837Y-99614999D01*
X68560500Y-99614999D01*
X68560500Y-95640000D01*
X72454531Y-95640000D01*
X72474364Y-95866689D01*
X72533261Y-96086497D01*
X72629432Y-96292735D01*
X72759953Y-96479140D01*
X72920859Y-96640046D01*
X73107264Y-96770567D01*
X73107265Y-96770567D01*
X73107266Y-96770568D01*
X73313504Y-96866739D01*
X73533308Y-96925635D01*
X73760000Y-96945468D01*
X73986692Y-96925635D01*
X74206496Y-96866739D01*
X74412734Y-96770568D01*
X74599139Y-96640047D01*
X74760047Y-96479139D01*
X74890568Y-96292734D01*
X74986739Y-96086496D01*
X75045635Y-95866692D01*
X75065468Y-95640000D01*
X75454531Y-95640000D01*
X75474364Y-95866689D01*
X75533261Y-96086497D01*
X75629432Y-96292735D01*
X75759953Y-96479140D01*
X75920859Y-96640046D01*
X76107264Y-96770567D01*
X76107265Y-96770567D01*
X76107266Y-96770568D01*
X76313504Y-96866739D01*
X76533308Y-96925635D01*
X76760000Y-96945468D01*
X76986692Y-96925635D01*
X77206496Y-96866739D01*
X77412734Y-96770568D01*
X77599139Y-96640047D01*
X77760047Y-96479139D01*
X77890568Y-96292734D01*
X77986739Y-96086496D01*
X78045635Y-95866692D01*
X78065468Y-95640000D01*
X78045635Y-95413308D01*
X77986739Y-95193504D01*
X77890568Y-94987266D01*
X77840117Y-94915214D01*
X77760046Y-94800859D01*
X77599140Y-94639953D01*
X77412733Y-94509431D01*
X77371727Y-94490310D01*
X77354724Y-94482381D01*
X77302549Y-94436625D01*
X77283129Y-94370000D01*
X77302549Y-94303375D01*
X77354725Y-94257618D01*
X77412734Y-94230568D01*
X77599139Y-94100047D01*
X77760047Y-93939139D01*
X77890568Y-93752734D01*
X77986739Y-93546496D01*
X78045635Y-93326692D01*
X78065468Y-93100000D01*
X78045635Y-92873308D01*
X78027318Y-92804947D01*
X78027318Y-92740764D01*
X78059410Y-92685178D01*
X82867183Y-87877405D01*
X82918608Y-87846506D01*
X82978522Y-87843366D01*
X83032898Y-87868722D01*
X83069004Y-87916637D01*
X83078390Y-87975895D01*
X83074531Y-88019999D01*
X83094364Y-88246689D01*
X83153261Y-88466497D01*
X83249432Y-88672735D01*
X83379953Y-88859140D01*
X83540859Y-89020046D01*
X83727263Y-89150566D01*
X83727266Y-89150568D01*
X83785275Y-89177618D01*
X83837450Y-89223375D01*
X83856869Y-89290000D01*
X83837450Y-89356625D01*
X83785275Y-89402382D01*
X83727263Y-89429433D01*
X83540859Y-89559953D01*
X83379953Y-89720859D01*
X83249432Y-89907264D01*
X83153261Y-90113502D01*
X83094364Y-90333310D01*
X83074531Y-90560000D01*
X83094364Y-90786689D01*
X83153261Y-91006497D01*
X83249432Y-91212735D01*
X83379953Y-91399140D01*
X83540859Y-91560046D01*
X83727263Y-91690566D01*
X83727266Y-91690568D01*
X83785275Y-91717618D01*
X83837450Y-91763375D01*
X83856869Y-91830000D01*
X83837450Y-91896625D01*
X83785275Y-91942382D01*
X83727263Y-91969433D01*
X83540859Y-92099953D01*
X83379953Y-92260859D01*
X83267387Y-92421623D01*
X83223069Y-92460489D01*
X83165812Y-92474500D01*
X81263747Y-92474500D01*
X81213312Y-92463780D01*
X81171598Y-92433473D01*
X81165871Y-92427112D01*
X81012730Y-92315849D01*
X81012729Y-92315848D01*
X81012727Y-92315847D01*
X80839802Y-92238855D01*
X80654648Y-92199500D01*
X80654646Y-92199500D01*
X80465354Y-92199500D01*
X80465352Y-92199500D01*
X80280197Y-92238855D01*
X80107269Y-92315848D01*
X79954129Y-92427110D01*
X79827466Y-92567783D01*
X79732820Y-92731715D01*
X79674326Y-92911742D01*
X79654540Y-93100000D01*
X79674326Y-93288257D01*
X79732820Y-93468284D01*
X79827466Y-93632216D01*
X79954129Y-93772889D01*
X80107269Y-93884151D01*
X80280197Y-93961144D01*
X80465352Y-94000500D01*
X80465354Y-94000500D01*
X80654646Y-94000500D01*
X80654648Y-94000500D01*
X80778084Y-93974262D01*
X80839803Y-93961144D01*
X81012730Y-93884151D01*
X81165871Y-93772888D01*
X81171598Y-93766526D01*
X81213312Y-93736220D01*
X81263747Y-93725500D01*
X83165812Y-93725500D01*
X83223069Y-93739511D01*
X83267387Y-93778377D01*
X83379953Y-93939140D01*
X83540859Y-94100046D01*
X83596692Y-94139140D01*
X83727266Y-94230568D01*
X83785275Y-94257618D01*
X83837450Y-94303375D01*
X83856869Y-94370000D01*
X83837450Y-94436625D01*
X83785275Y-94482381D01*
X83764576Y-94492033D01*
X83727263Y-94509433D01*
X83540859Y-94639953D01*
X83379953Y-94800859D01*
X83249432Y-94987264D01*
X83153261Y-95193502D01*
X83094364Y-95413310D01*
X83074531Y-95640000D01*
X83094364Y-95866689D01*
X83153261Y-96086497D01*
X83249432Y-96292735D01*
X83379953Y-96479140D01*
X83540859Y-96640046D01*
X83727264Y-96770567D01*
X83727265Y-96770567D01*
X83727266Y-96770568D01*
X83933504Y-96866739D01*
X84153308Y-96925635D01*
X84380000Y-96945468D01*
X84606692Y-96925635D01*
X84826496Y-96866739D01*
X85032734Y-96770568D01*
X85219139Y-96640047D01*
X85380047Y-96479139D01*
X85510568Y-96292734D01*
X85537618Y-96234724D01*
X85583375Y-96182549D01*
X85650000Y-96163129D01*
X85716625Y-96182549D01*
X85762381Y-96234724D01*
X85770310Y-96251727D01*
X85789431Y-96292733D01*
X85919953Y-96479140D01*
X86080859Y-96640046D01*
X86267264Y-96770567D01*
X86267265Y-96770567D01*
X86267266Y-96770568D01*
X86473504Y-96866739D01*
X86693308Y-96925635D01*
X86920000Y-96945468D01*
X87146692Y-96925635D01*
X87366496Y-96866739D01*
X87572734Y-96770568D01*
X87759139Y-96640047D01*
X87920047Y-96479139D01*
X88050568Y-96292734D01*
X88146739Y-96086496D01*
X88205635Y-95866692D01*
X88225468Y-95640000D01*
X95774531Y-95640000D01*
X95794364Y-95866689D01*
X95853261Y-96086497D01*
X95949432Y-96292735D01*
X96079953Y-96479140D01*
X96240859Y-96640046D01*
X96427264Y-96770567D01*
X96427265Y-96770567D01*
X96427266Y-96770568D01*
X96633504Y-96866739D01*
X96853308Y-96925635D01*
X97080000Y-96945468D01*
X97306692Y-96925635D01*
X97526496Y-96866739D01*
X97732734Y-96770568D01*
X97919139Y-96640047D01*
X98080047Y-96479139D01*
X98210568Y-96292734D01*
X98306739Y-96086496D01*
X98365635Y-95866692D01*
X98385468Y-95640000D01*
X98365635Y-95413308D01*
X98306739Y-95193504D01*
X98210568Y-94987266D01*
X98160117Y-94915214D01*
X98080046Y-94800859D01*
X97919140Y-94639953D01*
X97732735Y-94509432D01*
X97526497Y-94413261D01*
X97306689Y-94354364D01*
X97080000Y-94334531D01*
X96853310Y-94354364D01*
X96633502Y-94413261D01*
X96427264Y-94509432D01*
X96240859Y-94639953D01*
X96079953Y-94800859D01*
X95949432Y-94987264D01*
X95853261Y-95193502D01*
X95794364Y-95413310D01*
X95774531Y-95640000D01*
X88225468Y-95640000D01*
X88205635Y-95413308D01*
X88146739Y-95193504D01*
X88050568Y-94987266D01*
X88000117Y-94915214D01*
X87920046Y-94800859D01*
X87759140Y-94639953D01*
X87572735Y-94509432D01*
X87366497Y-94413261D01*
X87146689Y-94354364D01*
X86920000Y-94334531D01*
X86693310Y-94354364D01*
X86473502Y-94413261D01*
X86267264Y-94509432D01*
X86080859Y-94639953D01*
X85919953Y-94800859D01*
X85789433Y-94987263D01*
X85762382Y-95045275D01*
X85716625Y-95097450D01*
X85650000Y-95116869D01*
X85583375Y-95097450D01*
X85537618Y-95045275D01*
X85516907Y-95000861D01*
X85510568Y-94987266D01*
X85450494Y-94901471D01*
X85380046Y-94800859D01*
X85219140Y-94639953D01*
X85032733Y-94509431D01*
X84991727Y-94490310D01*
X84974724Y-94482381D01*
X84922549Y-94436625D01*
X84903129Y-94370000D01*
X84922549Y-94303375D01*
X84974725Y-94257618D01*
X85032734Y-94230568D01*
X85219139Y-94100047D01*
X85380047Y-93939139D01*
X85510568Y-93752734D01*
X85606739Y-93546496D01*
X85665635Y-93326692D01*
X85685468Y-93100000D01*
X85665635Y-92873308D01*
X85606739Y-92653504D01*
X85510568Y-92447266D01*
X85500909Y-92433472D01*
X85380046Y-92260859D01*
X85219140Y-92099953D01*
X85032733Y-91969431D01*
X84974725Y-91942382D01*
X84922549Y-91896625D01*
X84903129Y-91830000D01*
X84922549Y-91763375D01*
X84974725Y-91717618D01*
X85032734Y-91690568D01*
X85219139Y-91560047D01*
X85380047Y-91399139D01*
X85510568Y-91212734D01*
X85537618Y-91154724D01*
X85583375Y-91102549D01*
X85650000Y-91083129D01*
X85716625Y-91102549D01*
X85762382Y-91154725D01*
X85789431Y-91212733D01*
X85919953Y-91399140D01*
X86080859Y-91560046D01*
X86267264Y-91690567D01*
X86267265Y-91690567D01*
X86267266Y-91690568D01*
X86473504Y-91786739D01*
X86693308Y-91845635D01*
X86844436Y-91858857D01*
X86919999Y-91865468D01*
X86919999Y-91865467D01*
X86920000Y-91865468D01*
X87146692Y-91845635D01*
X87366496Y-91786739D01*
X87572734Y-91690568D01*
X87759139Y-91560047D01*
X87920047Y-91399139D01*
X88050568Y-91212734D01*
X88146739Y-91006496D01*
X88205635Y-90786692D01*
X88225468Y-90560000D01*
X95774531Y-90560000D01*
X95794364Y-90786689D01*
X95853261Y-91006497D01*
X95949432Y-91212735D01*
X96079953Y-91399140D01*
X96240859Y-91560046D01*
X96427264Y-91690567D01*
X96427265Y-91690567D01*
X96427266Y-91690568D01*
X96633504Y-91786739D01*
X96853308Y-91845635D01*
X97004436Y-91858857D01*
X97079999Y-91865468D01*
X97079999Y-91865467D01*
X97080000Y-91865468D01*
X97306692Y-91845635D01*
X97526496Y-91786739D01*
X97732734Y-91690568D01*
X97919139Y-91560047D01*
X98080047Y-91399139D01*
X98210568Y-91212734D01*
X98306739Y-91006496D01*
X98365635Y-90786692D01*
X98385468Y-90560000D01*
X98365635Y-90333308D01*
X98306739Y-90113504D01*
X98210568Y-89907266D01*
X98163468Y-89840000D01*
X98080046Y-89720859D01*
X97919140Y-89559953D01*
X97732735Y-89429432D01*
X97526497Y-89333261D01*
X97306689Y-89274364D01*
X97079999Y-89254531D01*
X96853310Y-89274364D01*
X96633502Y-89333261D01*
X96427264Y-89429432D01*
X96240859Y-89559953D01*
X96079953Y-89720859D01*
X95949432Y-89907264D01*
X95853261Y-90113502D01*
X95794364Y-90333310D01*
X95774531Y-90560000D01*
X88225468Y-90560000D01*
X88205635Y-90333308D01*
X88146739Y-90113504D01*
X88050568Y-89907266D01*
X88003468Y-89840000D01*
X87920046Y-89720859D01*
X87759140Y-89559953D01*
X87572735Y-89429432D01*
X87366497Y-89333261D01*
X87146689Y-89274364D01*
X86919999Y-89254531D01*
X86693310Y-89274364D01*
X86473502Y-89333261D01*
X86267264Y-89429432D01*
X86080859Y-89559953D01*
X85919953Y-89720859D01*
X85789433Y-89907263D01*
X85762382Y-89965275D01*
X85716625Y-90017450D01*
X85650000Y-90036869D01*
X85583375Y-90017450D01*
X85537618Y-89965275D01*
X85510568Y-89907266D01*
X85380047Y-89720861D01*
X85380046Y-89720859D01*
X85219140Y-89559953D01*
X85032733Y-89429431D01*
X84974725Y-89402382D01*
X84922549Y-89356625D01*
X84903129Y-89290000D01*
X84922549Y-89223375D01*
X84974725Y-89177618D01*
X85032734Y-89150568D01*
X85219139Y-89020047D01*
X85380047Y-88859139D01*
X85510568Y-88672734D01*
X85606739Y-88466496D01*
X85665635Y-88246692D01*
X85685468Y-88020000D01*
X85665635Y-87793308D01*
X85606739Y-87573504D01*
X85510568Y-87367266D01*
X85380047Y-87180861D01*
X85380046Y-87180859D01*
X85283373Y-87084186D01*
X85252253Y-87032035D01*
X85249630Y-86971360D01*
X85276133Y-86916718D01*
X85325405Y-86881213D01*
X85326792Y-86880664D01*
X85367407Y-86864582D01*
X85378444Y-86860803D01*
X85420390Y-86848618D01*
X85437629Y-86838422D01*
X85455102Y-86829862D01*
X85473732Y-86822486D01*
X85509064Y-86796814D01*
X85518830Y-86790400D01*
X85556418Y-86768171D01*
X85556417Y-86768171D01*
X85556420Y-86768170D01*
X85570585Y-86754004D01*
X85585373Y-86741373D01*
X85601587Y-86729594D01*
X85629438Y-86695926D01*
X85637279Y-86687309D01*
X86505178Y-85819410D01*
X86560764Y-85787318D01*
X86624947Y-85787318D01*
X86693308Y-85805635D01*
X86920000Y-85825468D01*
X87146692Y-85805635D01*
X87366496Y-85746739D01*
X87572734Y-85650568D01*
X87759139Y-85520047D01*
X87920047Y-85359139D01*
X87999637Y-85245472D01*
X88032613Y-85198377D01*
X88076931Y-85159511D01*
X88134188Y-85145500D01*
X94059548Y-85145500D01*
X94107001Y-85154939D01*
X94147229Y-85181819D01*
X102458181Y-93492771D01*
X102485061Y-93532999D01*
X102494500Y-93580452D01*
X102494500Y-94398481D01*
X102477023Y-94461955D01*
X102429519Y-94507534D01*
X102379635Y-94534531D01*
X102296485Y-94579529D01*
X102100259Y-94732259D01*
X101931837Y-94915214D01*
X101795825Y-95123395D01*
X101705780Y-95328678D01*
X101695937Y-95351119D01*
X101671797Y-95446446D01*
X101634891Y-95592183D01*
X101614356Y-95840000D01*
X101634891Y-96087816D01*
X101634891Y-96087819D01*
X101634892Y-96087821D01*
X101695937Y-96328881D01*
X101740960Y-96431523D01*
X101795825Y-96556604D01*
X101795827Y-96556607D01*
X101931836Y-96764785D01*
X102100256Y-96947738D01*
X102129587Y-96970567D01*
X102296485Y-97100470D01*
X102296487Y-97100471D01*
X102296491Y-97100474D01*
X102515190Y-97218828D01*
X102750386Y-97299571D01*
X102995665Y-97340500D01*
X103244335Y-97340500D01*
X103489614Y-97299571D01*
X103724810Y-97218828D01*
X103943509Y-97100474D01*
X104139744Y-96947738D01*
X104308164Y-96764785D01*
X104444173Y-96556607D01*
X104544063Y-96328881D01*
X104605108Y-96087821D01*
X104625643Y-95840000D01*
X109394837Y-95840000D01*
X109413450Y-96052744D01*
X109468724Y-96259031D01*
X109558979Y-96452582D01*
X109681471Y-96627520D01*
X109832479Y-96778528D01*
X110007417Y-96901020D01*
X110007418Y-96901020D01*
X110007419Y-96901021D01*
X110200970Y-96991276D01*
X110407253Y-97046549D01*
X110620000Y-97065162D01*
X110832747Y-97046549D01*
X111039030Y-96991276D01*
X111232581Y-96901021D01*
X111407519Y-96778529D01*
X111558529Y-96627519D01*
X111681021Y-96452581D01*
X111771276Y-96259030D01*
X111826549Y-96052747D01*
X111845162Y-95840000D01*
X116614356Y-95840000D01*
X116634891Y-96087816D01*
X116634891Y-96087819D01*
X116634892Y-96087821D01*
X116695937Y-96328881D01*
X116740960Y-96431523D01*
X116795825Y-96556604D01*
X116795827Y-96556607D01*
X116931836Y-96764785D01*
X117100256Y-96947738D01*
X117129587Y-96970567D01*
X117296485Y-97100470D01*
X117296487Y-97100471D01*
X117296491Y-97100474D01*
X117515190Y-97218828D01*
X117750386Y-97299571D01*
X117995665Y-97340500D01*
X118244335Y-97340500D01*
X118489614Y-97299571D01*
X118724810Y-97218828D01*
X118943509Y-97100474D01*
X119139744Y-96947738D01*
X119308164Y-96764785D01*
X119444173Y-96556607D01*
X119544063Y-96328881D01*
X119605108Y-96087821D01*
X119625643Y-95840000D01*
X119605108Y-95592179D01*
X119544063Y-95351119D01*
X119444173Y-95123393D01*
X119308164Y-94915215D01*
X119139744Y-94732262D01*
X119110411Y-94709431D01*
X118943514Y-94579529D01*
X118943510Y-94579526D01*
X118943509Y-94579526D01*
X118724810Y-94461172D01*
X118724806Y-94461170D01*
X118724805Y-94461170D01*
X118489615Y-94380429D01*
X118244335Y-94339500D01*
X117995665Y-94339500D01*
X117750384Y-94380429D01*
X117515194Y-94461170D01*
X117515190Y-94461171D01*
X117515190Y-94461172D01*
X117473660Y-94483647D01*
X117296485Y-94579529D01*
X117100259Y-94732259D01*
X116931837Y-94915214D01*
X116795825Y-95123395D01*
X116705780Y-95328678D01*
X116695937Y-95351119D01*
X116671797Y-95446446D01*
X116634891Y-95592183D01*
X116614356Y-95840000D01*
X111845162Y-95840000D01*
X111826549Y-95627253D01*
X111771276Y-95420970D01*
X111681021Y-95227419D01*
X111657272Y-95193502D01*
X111558528Y-95052479D01*
X111407520Y-94901471D01*
X111232582Y-94778979D01*
X111039031Y-94688724D01*
X110832744Y-94633450D01*
X110620000Y-94614837D01*
X110407255Y-94633450D01*
X110200968Y-94688724D01*
X110007417Y-94778979D01*
X109832479Y-94901471D01*
X109681471Y-95052479D01*
X109558979Y-95227417D01*
X109468724Y-95420968D01*
X109413450Y-95627255D01*
X109394837Y-95840000D01*
X104625643Y-95840000D01*
X104605108Y-95592179D01*
X104544063Y-95351119D01*
X104444173Y-95123393D01*
X104308164Y-94915215D01*
X104139744Y-94732262D01*
X104110411Y-94709431D01*
X103943514Y-94579529D01*
X103943510Y-94579526D01*
X103943509Y-94579526D01*
X103810480Y-94507534D01*
X103762977Y-94461955D01*
X103745500Y-94398481D01*
X103745500Y-93352744D01*
X103747764Y-93332236D01*
X103746751Y-93300000D01*
X106854837Y-93300000D01*
X106873450Y-93512744D01*
X106928724Y-93719031D01*
X107018979Y-93912582D01*
X107141471Y-94087520D01*
X107292479Y-94238528D01*
X107467417Y-94361020D01*
X107467418Y-94361020D01*
X107467419Y-94361021D01*
X107660970Y-94451276D01*
X107867253Y-94506549D01*
X108080000Y-94525162D01*
X108292747Y-94506549D01*
X108499030Y-94451276D01*
X108692581Y-94361021D01*
X108867519Y-94238529D01*
X109018529Y-94087519D01*
X109141021Y-93912581D01*
X109231276Y-93719030D01*
X109286549Y-93512747D01*
X109305162Y-93300000D01*
X111934837Y-93300000D01*
X111953450Y-93512744D01*
X112008724Y-93719031D01*
X112098979Y-93912582D01*
X112221471Y-94087520D01*
X112372479Y-94238528D01*
X112547417Y-94361020D01*
X112547418Y-94361020D01*
X112547419Y-94361021D01*
X112740970Y-94451276D01*
X112947253Y-94506549D01*
X113160000Y-94525162D01*
X113372747Y-94506549D01*
X113579030Y-94451276D01*
X113772581Y-94361021D01*
X113947519Y-94238529D01*
X114098529Y-94087519D01*
X114221021Y-93912581D01*
X114311276Y-93719030D01*
X114366549Y-93512747D01*
X114385162Y-93300000D01*
X114366549Y-93087253D01*
X114311276Y-92880970D01*
X114221021Y-92687419D01*
X114219450Y-92685176D01*
X114098528Y-92512479D01*
X113947520Y-92361471D01*
X113772582Y-92238979D01*
X113579031Y-92148724D01*
X113372744Y-92093450D01*
X113159999Y-92074837D01*
X112947255Y-92093450D01*
X112740968Y-92148724D01*
X112547417Y-92238979D01*
X112372479Y-92361471D01*
X112221471Y-92512479D01*
X112098979Y-92687417D01*
X112008724Y-92880968D01*
X111953450Y-93087255D01*
X111934837Y-93300000D01*
X109305162Y-93300000D01*
X109286549Y-93087253D01*
X109231276Y-92880970D01*
X109141021Y-92687419D01*
X109139450Y-92685176D01*
X109018528Y-92512479D01*
X108867520Y-92361471D01*
X108692582Y-92238979D01*
X108499031Y-92148724D01*
X108292744Y-92093450D01*
X108079999Y-92074837D01*
X107867255Y-92093450D01*
X107660968Y-92148724D01*
X107467417Y-92238979D01*
X107292479Y-92361471D01*
X107141471Y-92512479D01*
X107018979Y-92687417D01*
X106928724Y-92880968D01*
X106873450Y-93087255D01*
X106854837Y-93300000D01*
X103746751Y-93300000D01*
X103745561Y-93262113D01*
X103745500Y-93258219D01*
X103745500Y-93230654D01*
X103745500Y-93230650D01*
X103744997Y-93226670D01*
X103744081Y-93215028D01*
X103742710Y-93171373D01*
X103737118Y-93152126D01*
X103733174Y-93133085D01*
X103730664Y-93113208D01*
X103714579Y-93072583D01*
X103710808Y-93061568D01*
X103698618Y-93019610D01*
X103688414Y-93002355D01*
X103679861Y-92984895D01*
X103672486Y-92966269D01*
X103672486Y-92966268D01*
X103646808Y-92930925D01*
X103640401Y-92921171D01*
X103618170Y-92883580D01*
X103604006Y-92869416D01*
X103591367Y-92854617D01*
X103579595Y-92838413D01*
X103545941Y-92810573D01*
X103537299Y-92802709D01*
X100298201Y-89563610D01*
X102249942Y-89563610D01*
X102296766Y-89600055D01*
X102515393Y-89718368D01*
X102750506Y-89799083D01*
X102995707Y-89840000D01*
X103244293Y-89840000D01*
X103489493Y-89799083D01*
X103724606Y-89718368D01*
X103943233Y-89600053D01*
X103990055Y-89563610D01*
X117249942Y-89563610D01*
X117296766Y-89600055D01*
X117515393Y-89718368D01*
X117750506Y-89799083D01*
X117995707Y-89840000D01*
X118244293Y-89840000D01*
X118489493Y-89799083D01*
X118724606Y-89718368D01*
X118943233Y-89600053D01*
X118990056Y-89563609D01*
X118120000Y-88693553D01*
X117249942Y-89563609D01*
X117249942Y-89563610D01*
X103990055Y-89563610D01*
X103990056Y-89563609D01*
X103120000Y-88693553D01*
X102249942Y-89563609D01*
X102249942Y-89563610D01*
X100298201Y-89563610D01*
X99074590Y-88339999D01*
X101614858Y-88339999D01*
X101635386Y-88587732D01*
X101696413Y-88828721D01*
X101796268Y-89056370D01*
X101896563Y-89209882D01*
X101896564Y-89209882D01*
X102766447Y-88340001D01*
X103473553Y-88340001D01*
X104343434Y-89209882D01*
X104443730Y-89056369D01*
X104543586Y-88828721D01*
X104604613Y-88587732D01*
X104625141Y-88339999D01*
X116614858Y-88339999D01*
X116635386Y-88587732D01*
X116696413Y-88828721D01*
X116796268Y-89056370D01*
X116896563Y-89209882D01*
X116896564Y-89209882D01*
X117766447Y-88340001D01*
X118473553Y-88340001D01*
X119343434Y-89209882D01*
X119443730Y-89056369D01*
X119543586Y-88828721D01*
X119604613Y-88587732D01*
X119625141Y-88339999D01*
X119604613Y-88092267D01*
X119543586Y-87851278D01*
X119443730Y-87623630D01*
X119343434Y-87470116D01*
X118473553Y-88340000D01*
X118473553Y-88340001D01*
X117766447Y-88340001D01*
X117766447Y-88340000D01*
X116896564Y-87470116D01*
X116796266Y-87623634D01*
X116696413Y-87851278D01*
X116635386Y-88092267D01*
X116614858Y-88339999D01*
X104625141Y-88339999D01*
X104604613Y-88092267D01*
X104543586Y-87851278D01*
X104443730Y-87623630D01*
X104343434Y-87470116D01*
X103473553Y-88340000D01*
X103473553Y-88340001D01*
X102766447Y-88340001D01*
X102766447Y-88340000D01*
X101896564Y-87470116D01*
X101796266Y-87623634D01*
X101696413Y-87851278D01*
X101635386Y-88092267D01*
X101614858Y-88339999D01*
X99074590Y-88339999D01*
X97850981Y-87116390D01*
X102249942Y-87116390D01*
X103120000Y-87986447D01*
X103120001Y-87986447D01*
X103990057Y-87116390D01*
X117249942Y-87116390D01*
X118120000Y-87986447D01*
X118120001Y-87986447D01*
X118990057Y-87116390D01*
X118990056Y-87116388D01*
X118943235Y-87079947D01*
X118724606Y-86961631D01*
X118489493Y-86880916D01*
X118244293Y-86840000D01*
X117995707Y-86840000D01*
X117750506Y-86880916D01*
X117515393Y-86961631D01*
X117296764Y-87079946D01*
X117249942Y-87116388D01*
X117249942Y-87116390D01*
X103990057Y-87116390D01*
X103990056Y-87116388D01*
X103943235Y-87079947D01*
X103724606Y-86961631D01*
X103489493Y-86880916D01*
X103244293Y-86840000D01*
X102995707Y-86840000D01*
X102750506Y-86880916D01*
X102515393Y-86961631D01*
X102296764Y-87079946D01*
X102249942Y-87116388D01*
X102249942Y-87116390D01*
X97850981Y-87116390D01*
X96751111Y-86016520D01*
X96720210Y-85965093D01*
X96717070Y-85905179D01*
X96742426Y-85850803D01*
X96790341Y-85814696D01*
X96849599Y-85805311D01*
X97080000Y-85825468D01*
X97306692Y-85805635D01*
X97526496Y-85746739D01*
X97732734Y-85650568D01*
X97919139Y-85520047D01*
X98080047Y-85359139D01*
X98210568Y-85172734D01*
X98306739Y-84966496D01*
X98365635Y-84746692D01*
X98385468Y-84520000D01*
X98365635Y-84293308D01*
X98306739Y-84073504D01*
X98210568Y-83867266D01*
X98159635Y-83794526D01*
X98080046Y-83680859D01*
X97919140Y-83519953D01*
X97732735Y-83389432D01*
X97526497Y-83293261D01*
X97306689Y-83234364D01*
X97080000Y-83214531D01*
X96853310Y-83234364D01*
X96633502Y-83293261D01*
X96427264Y-83389432D01*
X96240859Y-83519953D01*
X96079953Y-83680859D01*
X95949432Y-83867264D01*
X95853261Y-84073502D01*
X95794364Y-84293310D01*
X95774531Y-84520000D01*
X95794688Y-84750400D01*
X95785302Y-84809658D01*
X95749196Y-84857573D01*
X95694820Y-84882929D01*
X95634906Y-84879789D01*
X95583479Y-84848888D01*
X94870802Y-84136211D01*
X94857906Y-84120113D01*
X94806775Y-84072098D01*
X94803978Y-84069387D01*
X94784470Y-84049879D01*
X94781290Y-84047412D01*
X94772424Y-84039839D01*
X94740582Y-84009938D01*
X94723024Y-84000285D01*
X94706764Y-83989604D01*
X94690936Y-83977327D01*
X94650851Y-83959980D01*
X94640361Y-83954841D01*
X94602091Y-83933802D01*
X94582691Y-83928821D01*
X94564284Y-83922519D01*
X94545897Y-83914562D01*
X94502758Y-83907729D01*
X94491324Y-83905361D01*
X94449019Y-83894500D01*
X94428984Y-83894500D01*
X94409586Y-83892973D01*
X94402162Y-83891797D01*
X94389805Y-83889840D01*
X94389804Y-83889840D01*
X94356751Y-83892964D01*
X94346325Y-83893950D01*
X94334656Y-83894500D01*
X88134188Y-83894500D01*
X88076931Y-83880489D01*
X88032613Y-83841623D01*
X87920046Y-83680859D01*
X87759140Y-83519953D01*
X87572735Y-83389432D01*
X87366497Y-83293261D01*
X87146689Y-83234364D01*
X86920000Y-83214531D01*
X86693310Y-83234364D01*
X86473502Y-83293261D01*
X86267264Y-83389432D01*
X86080859Y-83519953D01*
X85919953Y-83680859D01*
X85789433Y-83867263D01*
X85762382Y-83925275D01*
X85716625Y-83977450D01*
X85650000Y-83996869D01*
X85583375Y-83977450D01*
X85537618Y-83925275D01*
X85536333Y-83922519D01*
X85510568Y-83867266D01*
X85459636Y-83794527D01*
X85380046Y-83680859D01*
X85219140Y-83519953D01*
X85032735Y-83389432D01*
X84826497Y-83293261D01*
X84606689Y-83234364D01*
X84380000Y-83214531D01*
X84153310Y-83234364D01*
X83933502Y-83293261D01*
X83727264Y-83389432D01*
X83540859Y-83519953D01*
X83379953Y-83680859D01*
X83249429Y-83867268D01*
X83242104Y-83882978D01*
X83196347Y-83935152D01*
X83129722Y-83954570D01*
X83063098Y-83935150D01*
X83017342Y-83882975D01*
X83010133Y-83867515D01*
X82959025Y-83794526D01*
X82233553Y-84520000D01*
X82233553Y-84520001D01*
X82959025Y-85245472D01*
X83010131Y-85172484D01*
X83017340Y-85157026D01*
X83063097Y-85104849D01*
X83129722Y-85085428D01*
X83196348Y-85104847D01*
X83242106Y-85157023D01*
X83249432Y-85172735D01*
X83379953Y-85359140D01*
X83476626Y-85455813D01*
X83507746Y-85507965D01*
X83510369Y-85568639D01*
X83483866Y-85623282D01*
X83434594Y-85658786D01*
X83392603Y-85675412D01*
X83381554Y-85679194D01*
X83339610Y-85691382D01*
X83339607Y-85691383D01*
X83322365Y-85701579D01*
X83304904Y-85710133D01*
X83286267Y-85717512D01*
X83250931Y-85743185D01*
X83241174Y-85749595D01*
X83203580Y-85771829D01*
X83189413Y-85785996D01*
X83174624Y-85798626D01*
X83158413Y-85810404D01*
X83130572Y-85844058D01*
X83122711Y-85852697D01*
X78272819Y-90702588D01*
X78221392Y-90733489D01*
X78161477Y-90736629D01*
X78107102Y-90711273D01*
X78070995Y-90663357D01*
X78061610Y-90604099D01*
X78065468Y-90559999D01*
X78045635Y-90333310D01*
X78045635Y-90333308D01*
X77986739Y-90113504D01*
X77890568Y-89907266D01*
X77843468Y-89840000D01*
X77760046Y-89720859D01*
X77599140Y-89559953D01*
X77412733Y-89429431D01*
X77354725Y-89402382D01*
X77302549Y-89356625D01*
X77283129Y-89290000D01*
X77302549Y-89223375D01*
X77354725Y-89177618D01*
X77412734Y-89150568D01*
X77599139Y-89020047D01*
X77760047Y-88859139D01*
X77890568Y-88672734D01*
X77986739Y-88466496D01*
X78045635Y-88246692D01*
X78065468Y-88020000D01*
X78045635Y-87793308D01*
X77986739Y-87573504D01*
X77890568Y-87367266D01*
X77760047Y-87180861D01*
X77760046Y-87180859D01*
X77599140Y-87019953D01*
X77412735Y-86889432D01*
X77206497Y-86793261D01*
X76986689Y-86734364D01*
X76760000Y-86714531D01*
X76533310Y-86734364D01*
X76313502Y-86793261D01*
X76107264Y-86889432D01*
X75920859Y-87019953D01*
X75759953Y-87180859D01*
X75629432Y-87367264D01*
X75533261Y-87573502D01*
X75474364Y-87793310D01*
X75454531Y-88020000D01*
X75474364Y-88246689D01*
X75533261Y-88466497D01*
X75629432Y-88672735D01*
X75759953Y-88859140D01*
X75920859Y-89020046D01*
X76107263Y-89150566D01*
X76107266Y-89150568D01*
X76165275Y-89177618D01*
X76217450Y-89223375D01*
X76236869Y-89290000D01*
X76217450Y-89356625D01*
X76165275Y-89402382D01*
X76107263Y-89429433D01*
X75920859Y-89559953D01*
X75759953Y-89720859D01*
X75629432Y-89907264D01*
X75533261Y-90113502D01*
X75474364Y-90333310D01*
X75454531Y-90560000D01*
X75474364Y-90786689D01*
X75533261Y-91006497D01*
X75629432Y-91212735D01*
X75759953Y-91399140D01*
X75920859Y-91560046D01*
X76107263Y-91690566D01*
X76107266Y-91690568D01*
X76165275Y-91717618D01*
X76217450Y-91763375D01*
X76236869Y-91830000D01*
X76217450Y-91896625D01*
X76165275Y-91942382D01*
X76107263Y-91969433D01*
X75920859Y-92099953D01*
X75759953Y-92260859D01*
X75629432Y-92447264D01*
X75533261Y-92653502D01*
X75474364Y-92873310D01*
X75454531Y-93100000D01*
X75474364Y-93326689D01*
X75533261Y-93546497D01*
X75629432Y-93752735D01*
X75759953Y-93939140D01*
X75920859Y-94100046D01*
X75976692Y-94139140D01*
X76107266Y-94230568D01*
X76165275Y-94257618D01*
X76217450Y-94303375D01*
X76236869Y-94370000D01*
X76217450Y-94436625D01*
X76165275Y-94482381D01*
X76144576Y-94492033D01*
X76107263Y-94509433D01*
X75920859Y-94639953D01*
X75759953Y-94800859D01*
X75629432Y-94987264D01*
X75533261Y-95193502D01*
X75474364Y-95413310D01*
X75454531Y-95640000D01*
X75065468Y-95640000D01*
X75045635Y-95413308D01*
X74986739Y-95193504D01*
X74890568Y-94987266D01*
X74840117Y-94915214D01*
X74760046Y-94800859D01*
X74599140Y-94639953D01*
X74412735Y-94509432D01*
X74397023Y-94502106D01*
X74344847Y-94456348D01*
X74325428Y-94389722D01*
X74344849Y-94323097D01*
X74397026Y-94277340D01*
X74412484Y-94270131D01*
X74485472Y-94219025D01*
X73760001Y-93493553D01*
X73760000Y-93493553D01*
X73034526Y-94219025D01*
X73034526Y-94219026D01*
X73107515Y-94270133D01*
X73122975Y-94277342D01*
X73175150Y-94323098D01*
X73194570Y-94389722D01*
X73175152Y-94456347D01*
X73122978Y-94502104D01*
X73107268Y-94509429D01*
X72920859Y-94639953D01*
X72759953Y-94800859D01*
X72629432Y-94987264D01*
X72533261Y-95193502D01*
X72474364Y-95413310D01*
X72454531Y-95640000D01*
X68560500Y-95640000D01*
X68560500Y-93140000D01*
X72455033Y-93140000D01*
X72474858Y-93366602D01*
X72533733Y-93586326D01*
X72629866Y-93792484D01*
X72680972Y-93865471D01*
X72680974Y-93865472D01*
X73406446Y-93140001D01*
X74113553Y-93140001D01*
X74839025Y-93865472D01*
X74890134Y-93792480D01*
X74986266Y-93586326D01*
X75045141Y-93366602D01*
X75064966Y-93139999D01*
X75045141Y-92913397D01*
X74986266Y-92693673D01*
X74890133Y-92487515D01*
X74839025Y-92414526D01*
X74113553Y-93140000D01*
X74113553Y-93140001D01*
X73406446Y-93140001D01*
X73406446Y-93140000D01*
X72680973Y-92414526D01*
X72680973Y-92414527D01*
X72629865Y-92487516D01*
X72533733Y-92693672D01*
X72474858Y-92913397D01*
X72455033Y-93140000D01*
X68560500Y-93140000D01*
X68560500Y-92060973D01*
X73034526Y-92060973D01*
X73760000Y-92786446D01*
X73760001Y-92786446D01*
X74485472Y-92060974D01*
X74485471Y-92060972D01*
X74412484Y-92009866D01*
X74206326Y-91913733D01*
X73986602Y-91854858D01*
X73760000Y-91835033D01*
X73533397Y-91854858D01*
X73313672Y-91913733D01*
X73107516Y-92009865D01*
X73034527Y-92060973D01*
X73034526Y-92060973D01*
X68560500Y-92060973D01*
X68560500Y-85599026D01*
X81154526Y-85599026D01*
X81227515Y-85650133D01*
X81433673Y-85746266D01*
X81653397Y-85805141D01*
X81880000Y-85824966D01*
X82106602Y-85805141D01*
X82326326Y-85746266D01*
X82532480Y-85650134D01*
X82605472Y-85599025D01*
X81880001Y-84873553D01*
X81880000Y-84873553D01*
X81154526Y-85599025D01*
X81154526Y-85599026D01*
X68560500Y-85599026D01*
X68560500Y-84519999D01*
X80575033Y-84519999D01*
X80594858Y-84746602D01*
X80653733Y-84966326D01*
X80749866Y-85172484D01*
X80800972Y-85245471D01*
X80800974Y-85245472D01*
X81526446Y-84520001D01*
X81526446Y-84520000D01*
X80800973Y-83794526D01*
X80800973Y-83794527D01*
X80749865Y-83867516D01*
X80653733Y-84073672D01*
X80594858Y-84293397D01*
X80575033Y-84519999D01*
X68560500Y-84519999D01*
X68560500Y-83440973D01*
X81154526Y-83440973D01*
X81880000Y-84166446D01*
X81880001Y-84166446D01*
X82605472Y-83440974D01*
X82605471Y-83440972D01*
X82532484Y-83389866D01*
X82326326Y-83293733D01*
X82106602Y-83234858D01*
X81880000Y-83215033D01*
X81653397Y-83234858D01*
X81433672Y-83293733D01*
X81227516Y-83389865D01*
X81154527Y-83440973D01*
X81154526Y-83440973D01*
X68560500Y-83440973D01*
X68560500Y-80603124D01*
X108430426Y-80603124D01*
X108430427Y-80603125D01*
X108492610Y-80646666D01*
X108690840Y-80739102D01*
X108902113Y-80795712D01*
X109120000Y-80814775D01*
X109337886Y-80795712D01*
X109549159Y-80739102D01*
X109747385Y-80646667D01*
X109809572Y-80603124D01*
X109120001Y-79913553D01*
X109120000Y-79913553D01*
X108430426Y-80603124D01*
X68560500Y-80603124D01*
X68560500Y-79560000D01*
X107865224Y-79560000D01*
X107884287Y-79777886D01*
X107940898Y-79989161D01*
X108033331Y-80187386D01*
X108076873Y-80249571D01*
X108076875Y-80249572D01*
X108766447Y-79560001D01*
X109473553Y-79560001D01*
X110163124Y-80249572D01*
X110206667Y-80187385D01*
X110299102Y-79989159D01*
X110355712Y-79777886D01*
X110374775Y-79560000D01*
X110355712Y-79342113D01*
X110299102Y-79130840D01*
X110206667Y-78932615D01*
X110163123Y-78870428D01*
X109473553Y-79560000D01*
X109473553Y-79560001D01*
X108766447Y-79560001D01*
X108766447Y-79560000D01*
X108076875Y-78870427D01*
X108076874Y-78870428D01*
X108033333Y-78932611D01*
X107940897Y-79130840D01*
X107884287Y-79342113D01*
X107865224Y-79560000D01*
X68560500Y-79560000D01*
X68560500Y-78516875D01*
X108430427Y-78516875D01*
X109120000Y-79206447D01*
X109120001Y-79206447D01*
X109809572Y-78516875D01*
X109809571Y-78516873D01*
X109747386Y-78473331D01*
X109549161Y-78380898D01*
X109337886Y-78324287D01*
X109120000Y-78305224D01*
X108902113Y-78324287D01*
X108690840Y-78380897D01*
X108492611Y-78473333D01*
X108430428Y-78516874D01*
X108430427Y-78516875D01*
X68560500Y-78516875D01*
X68560500Y-74559999D01*
X104364722Y-74559999D01*
X104383792Y-74777974D01*
X104383793Y-74777977D01*
X104440425Y-74989330D01*
X104532898Y-75187639D01*
X104658402Y-75366877D01*
X104813123Y-75521598D01*
X104992361Y-75647102D01*
X105190670Y-75739575D01*
X105402023Y-75796207D01*
X105620000Y-75815277D01*
X105837977Y-75796207D01*
X106049330Y-75739575D01*
X106247639Y-75647102D01*
X106426877Y-75521598D01*
X106581598Y-75366877D01*
X106707102Y-75187639D01*
X106799575Y-74989330D01*
X106856207Y-74777977D01*
X106875277Y-74560000D01*
X106875277Y-74559999D01*
X111364722Y-74559999D01*
X111383792Y-74777974D01*
X111383793Y-74777977D01*
X111440425Y-74989330D01*
X111532898Y-75187639D01*
X111658402Y-75366877D01*
X111813123Y-75521598D01*
X111992361Y-75647102D01*
X112190670Y-75739575D01*
X112402023Y-75796207D01*
X112620000Y-75815277D01*
X112837977Y-75796207D01*
X113049330Y-75739575D01*
X113247639Y-75647102D01*
X113426877Y-75521598D01*
X113581598Y-75366877D01*
X113671576Y-75238375D01*
X113715892Y-75199511D01*
X113773149Y-75185500D01*
X119199548Y-75185500D01*
X119247001Y-75194939D01*
X119287229Y-75221819D01*
X121748181Y-77682772D01*
X121775061Y-77723000D01*
X121784500Y-77770453D01*
X121784500Y-96977256D01*
X121782235Y-96997762D01*
X121784439Y-97067873D01*
X121784500Y-97071768D01*
X121784500Y-97099349D01*
X121785003Y-97103334D01*
X121785918Y-97114967D01*
X121787290Y-97158626D01*
X121792879Y-97177860D01*
X121796825Y-97196916D01*
X121799335Y-97216792D01*
X121815414Y-97257404D01*
X121819197Y-97268451D01*
X121831382Y-97310391D01*
X121841580Y-97327635D01*
X121850136Y-97345100D01*
X121857514Y-97363732D01*
X121857515Y-97363733D01*
X121883180Y-97399059D01*
X121889593Y-97408822D01*
X121911826Y-97446416D01*
X121911829Y-97446419D01*
X121911830Y-97446420D01*
X121925995Y-97460585D01*
X121938627Y-97475375D01*
X121950406Y-97491587D01*
X121984058Y-97519426D01*
X121992699Y-97527289D01*
X125769196Y-101303787D01*
X125782096Y-101319888D01*
X125784213Y-101321876D01*
X125784214Y-101321877D01*
X125831728Y-101366496D01*
X125833223Y-101367900D01*
X125836020Y-101370611D01*
X125855529Y-101390120D01*
X125858711Y-101392588D01*
X125867571Y-101400155D01*
X125899418Y-101430062D01*
X125916970Y-101439711D01*
X125933238Y-101450397D01*
X125949064Y-101462673D01*
X125989146Y-101480017D01*
X125999633Y-101485155D01*
X126037907Y-101506197D01*
X126046410Y-101508379D01*
X126057308Y-101511178D01*
X126075713Y-101517478D01*
X126094104Y-101525437D01*
X126137250Y-101532270D01*
X126148668Y-101534635D01*
X126190981Y-101545500D01*
X126211016Y-101545500D01*
X126230415Y-101547027D01*
X126250196Y-101550160D01*
X126293674Y-101546050D01*
X126305344Y-101545500D01*
X128405812Y-101545500D01*
X128463069Y-101559511D01*
X128507387Y-101598377D01*
X128619953Y-101759140D01*
X128780859Y-101920046D01*
X128967264Y-102050567D01*
X128967265Y-102050567D01*
X128967266Y-102050568D01*
X129173504Y-102146739D01*
X129393308Y-102205635D01*
X129620000Y-102225468D01*
X129846692Y-102205635D01*
X130066496Y-102146739D01*
X130272734Y-102050568D01*
X130459139Y-101920047D01*
X130620047Y-101759139D01*
X130750568Y-101572734D01*
X130846739Y-101366496D01*
X130905635Y-101146692D01*
X130925468Y-100920000D01*
X130925468Y-100919999D01*
X131314531Y-100919999D01*
X131334364Y-101146689D01*
X131393261Y-101366497D01*
X131489432Y-101572735D01*
X131619953Y-101759140D01*
X131780859Y-101920046D01*
X131967264Y-102050567D01*
X131967265Y-102050567D01*
X131967266Y-102050568D01*
X132173504Y-102146739D01*
X132393308Y-102205635D01*
X132620000Y-102225468D01*
X132846692Y-102205635D01*
X133066496Y-102146739D01*
X133272734Y-102050568D01*
X133459139Y-101920047D01*
X133620047Y-101759139D01*
X133750568Y-101572734D01*
X133846739Y-101366496D01*
X133905635Y-101146692D01*
X133925468Y-100920000D01*
X133925468Y-100919999D01*
X138934531Y-100919999D01*
X138954364Y-101146689D01*
X139013261Y-101366497D01*
X139109432Y-101572735D01*
X139239953Y-101759140D01*
X139400859Y-101920046D01*
X139587264Y-102050567D01*
X139587265Y-102050567D01*
X139587266Y-102050568D01*
X139793504Y-102146739D01*
X140013308Y-102205635D01*
X140240000Y-102225468D01*
X140466692Y-102205635D01*
X140686496Y-102146739D01*
X140892734Y-102050568D01*
X141079139Y-101920047D01*
X141240047Y-101759139D01*
X141370568Y-101572734D01*
X141466739Y-101366496D01*
X141525635Y-101146692D01*
X141545468Y-100920000D01*
X141525635Y-100693308D01*
X141466739Y-100473504D01*
X141370568Y-100267266D01*
X141342781Y-100227582D01*
X141240046Y-100080859D01*
X141079140Y-99919953D01*
X140892732Y-99789430D01*
X140834724Y-99762380D01*
X140782549Y-99716623D01*
X140763130Y-99649997D01*
X140782550Y-99583373D01*
X140834721Y-99537619D01*
X140892734Y-99510568D01*
X141079139Y-99380047D01*
X141240047Y-99219139D01*
X141370568Y-99032734D01*
X141460442Y-98839999D01*
X141934531Y-98839999D01*
X141954364Y-99066689D01*
X142013261Y-99286497D01*
X142109432Y-99492735D01*
X142239953Y-99679140D01*
X142400859Y-99840046D01*
X142587264Y-99970567D01*
X142587265Y-99970567D01*
X142587266Y-99970568D01*
X142793504Y-100066739D01*
X143013308Y-100125635D01*
X143240000Y-100145468D01*
X143466692Y-100125635D01*
X143686496Y-100066739D01*
X143892734Y-99970568D01*
X144079139Y-99840047D01*
X144240047Y-99679139D01*
X144370568Y-99492734D01*
X144466739Y-99286496D01*
X144525635Y-99066692D01*
X144545468Y-98840000D01*
X145934531Y-98840000D01*
X145954364Y-99066689D01*
X146013261Y-99286497D01*
X146109432Y-99492735D01*
X146239953Y-99679140D01*
X146400859Y-99840046D01*
X146587264Y-99970567D01*
X146587265Y-99970567D01*
X146587266Y-99970568D01*
X146793504Y-100066739D01*
X147013308Y-100125635D01*
X147240000Y-100145468D01*
X147466692Y-100125635D01*
X147686496Y-100066739D01*
X147892734Y-99970568D01*
X148079139Y-99840047D01*
X148240047Y-99679139D01*
X148370568Y-99492734D01*
X148466739Y-99286496D01*
X148525635Y-99066692D01*
X148545468Y-98840000D01*
X148525635Y-98613308D01*
X148466739Y-98393504D01*
X148370568Y-98187266D01*
X148240047Y-98000861D01*
X148240046Y-98000859D01*
X148079140Y-97839953D01*
X147892735Y-97709432D01*
X147686497Y-97613261D01*
X147466689Y-97554364D01*
X147240000Y-97534531D01*
X147013310Y-97554364D01*
X146793502Y-97613261D01*
X146587264Y-97709432D01*
X146400859Y-97839953D01*
X146239953Y-98000859D01*
X146109432Y-98187264D01*
X146013261Y-98393502D01*
X145954364Y-98613310D01*
X145934531Y-98840000D01*
X144545468Y-98840000D01*
X144525635Y-98613308D01*
X144466739Y-98393504D01*
X144370568Y-98187266D01*
X144240047Y-98000861D01*
X144240046Y-98000859D01*
X144079140Y-97839953D01*
X143892735Y-97709432D01*
X143686497Y-97613261D01*
X143466689Y-97554364D01*
X143240000Y-97534531D01*
X143013310Y-97554364D01*
X142793502Y-97613261D01*
X142587264Y-97709432D01*
X142400859Y-97839953D01*
X142239953Y-98000859D01*
X142109432Y-98187264D01*
X142013261Y-98393502D01*
X141954364Y-98613310D01*
X141934531Y-98839999D01*
X141460442Y-98839999D01*
X141466739Y-98826496D01*
X141525635Y-98606692D01*
X141545468Y-98380000D01*
X141525635Y-98153308D01*
X141466739Y-97933504D01*
X141370568Y-97727266D01*
X141347644Y-97694527D01*
X141240046Y-97540859D01*
X141079140Y-97379953D01*
X140892733Y-97249431D01*
X140834725Y-97222382D01*
X140782549Y-97176625D01*
X140763129Y-97110000D01*
X140782549Y-97043375D01*
X140834725Y-96997618D01*
X140892734Y-96970568D01*
X141023471Y-96879026D01*
X142514526Y-96879026D01*
X142587515Y-96930133D01*
X142793673Y-97026266D01*
X143013397Y-97085141D01*
X143240000Y-97104966D01*
X143466602Y-97085141D01*
X143686326Y-97026266D01*
X143892480Y-96930134D01*
X143965472Y-96879025D01*
X143240001Y-96153553D01*
X143240000Y-96153553D01*
X142514526Y-96879025D01*
X142514526Y-96879026D01*
X141023471Y-96879026D01*
X141079139Y-96840047D01*
X141240047Y-96679139D01*
X141370568Y-96492734D01*
X141466739Y-96286496D01*
X141525635Y-96066692D01*
X141545468Y-95840000D01*
X141541968Y-95799999D01*
X141935033Y-95799999D01*
X141954858Y-96026602D01*
X142013733Y-96246326D01*
X142109866Y-96452484D01*
X142160972Y-96525471D01*
X142160973Y-96525472D01*
X142886446Y-95800000D01*
X142886446Y-95799999D01*
X143593553Y-95799999D01*
X144319025Y-96525472D01*
X144370134Y-96452480D01*
X144466266Y-96246326D01*
X144525141Y-96026602D01*
X144544966Y-95799999D01*
X144525141Y-95573397D01*
X144466266Y-95353673D01*
X144370133Y-95147515D01*
X144319025Y-95074526D01*
X143593553Y-95799998D01*
X143593553Y-95799999D01*
X142886446Y-95799999D01*
X142886446Y-95799998D01*
X142160973Y-95074527D01*
X142109865Y-95147516D01*
X142013733Y-95353672D01*
X141954858Y-95573397D01*
X141935033Y-95799999D01*
X141541968Y-95799999D01*
X141525635Y-95613308D01*
X141466739Y-95393504D01*
X141370568Y-95187266D01*
X141342734Y-95147515D01*
X141240046Y-95000859D01*
X141079140Y-94839953D01*
X140892733Y-94709431D01*
X140834725Y-94682382D01*
X140782549Y-94636625D01*
X140763129Y-94570000D01*
X140782549Y-94503375D01*
X140834725Y-94457618D01*
X140892734Y-94430568D01*
X141079139Y-94300047D01*
X141240047Y-94139139D01*
X141370568Y-93952734D01*
X141466739Y-93746496D01*
X141525635Y-93526692D01*
X141545468Y-93300000D01*
X141545468Y-93299999D01*
X141934531Y-93299999D01*
X141954364Y-93526689D01*
X142013261Y-93746497D01*
X142109432Y-93952735D01*
X142239953Y-94139140D01*
X142400859Y-94300046D01*
X142587264Y-94430567D01*
X142587265Y-94430567D01*
X142587266Y-94430568D01*
X142602975Y-94437893D01*
X142655150Y-94483649D01*
X142674570Y-94550274D01*
X142655151Y-94616899D01*
X142602977Y-94662656D01*
X142587517Y-94669865D01*
X142514527Y-94720973D01*
X142514526Y-94720973D01*
X143240000Y-95446446D01*
X143240001Y-95446446D01*
X143965472Y-94720974D01*
X143965471Y-94720972D01*
X143892483Y-94669866D01*
X143877023Y-94662657D01*
X143824847Y-94616899D01*
X143805428Y-94550273D01*
X143824849Y-94483647D01*
X143877023Y-94437893D01*
X143892734Y-94430568D01*
X144079139Y-94300047D01*
X144240047Y-94139139D01*
X144370568Y-93952734D01*
X144466739Y-93746496D01*
X144525635Y-93526692D01*
X144545468Y-93300000D01*
X144541983Y-93260172D01*
X144525635Y-93073310D01*
X144525635Y-93073308D01*
X144466739Y-92853504D01*
X144370568Y-92647266D01*
X144276191Y-92512481D01*
X144240046Y-92460859D01*
X144079140Y-92299953D01*
X143892735Y-92169432D01*
X143686497Y-92073261D01*
X143466689Y-92014364D01*
X143240000Y-91994531D01*
X143013310Y-92014364D01*
X142793502Y-92073261D01*
X142587264Y-92169432D01*
X142400859Y-92299953D01*
X142239953Y-92460859D01*
X142109432Y-92647264D01*
X142013261Y-92853502D01*
X141954364Y-93073310D01*
X141934531Y-93299999D01*
X141545468Y-93299999D01*
X141525635Y-93073308D01*
X141466739Y-92853504D01*
X141370568Y-92647266D01*
X141276191Y-92512481D01*
X141240046Y-92460859D01*
X141079140Y-92299953D01*
X140892735Y-92169432D01*
X140686497Y-92073261D01*
X140466689Y-92014364D01*
X140240000Y-91994531D01*
X140013310Y-92014364D01*
X139793502Y-92073261D01*
X139587264Y-92169432D01*
X139400859Y-92299953D01*
X139239953Y-92460859D01*
X139109432Y-92647264D01*
X139013261Y-92853502D01*
X138954364Y-93073310D01*
X138934531Y-93299999D01*
X138954364Y-93526689D01*
X139013261Y-93746497D01*
X139109432Y-93952735D01*
X139239953Y-94139140D01*
X139400859Y-94300046D01*
X139562549Y-94413261D01*
X139587266Y-94430568D01*
X139645275Y-94457618D01*
X139697450Y-94503375D01*
X139716869Y-94570000D01*
X139697450Y-94636625D01*
X139645275Y-94682382D01*
X139587263Y-94709433D01*
X139400859Y-94839953D01*
X139239953Y-95000859D01*
X139109432Y-95187264D01*
X139013261Y-95393502D01*
X138954364Y-95613310D01*
X138934531Y-95839999D01*
X138954364Y-96066689D01*
X139013261Y-96286497D01*
X139109432Y-96492735D01*
X139239953Y-96679140D01*
X139400859Y-96840046D01*
X139551419Y-96945468D01*
X139587266Y-96970568D01*
X139645275Y-96997618D01*
X139697450Y-97043375D01*
X139716869Y-97110000D01*
X139697450Y-97176625D01*
X139645275Y-97222382D01*
X139587263Y-97249433D01*
X139400859Y-97379953D01*
X139239953Y-97540859D01*
X139109432Y-97727264D01*
X139013261Y-97933502D01*
X138954364Y-98153310D01*
X138934531Y-98379999D01*
X138954364Y-98606689D01*
X139013261Y-98826497D01*
X139109432Y-99032735D01*
X139239953Y-99219140D01*
X139400859Y-99380046D01*
X139561796Y-99492734D01*
X139587266Y-99510568D01*
X139645273Y-99537617D01*
X139697449Y-99583373D01*
X139716869Y-99649997D01*
X139697451Y-99716622D01*
X139645276Y-99762380D01*
X139587266Y-99789431D01*
X139400859Y-99919953D01*
X139239953Y-100080859D01*
X139109432Y-100267264D01*
X139013261Y-100473502D01*
X138954364Y-100693310D01*
X138934531Y-100919999D01*
X133925468Y-100919999D01*
X133905635Y-100693308D01*
X133846739Y-100473504D01*
X133750568Y-100267266D01*
X133722781Y-100227582D01*
X133620046Y-100080859D01*
X133459140Y-99919953D01*
X133272732Y-99789430D01*
X133214724Y-99762380D01*
X133162549Y-99716623D01*
X133143130Y-99649997D01*
X133162550Y-99583373D01*
X133214721Y-99537619D01*
X133272734Y-99510568D01*
X133459139Y-99380047D01*
X133620047Y-99219139D01*
X133750568Y-99032734D01*
X133846739Y-98826496D01*
X133905635Y-98606692D01*
X133925468Y-98380000D01*
X133905635Y-98153308D01*
X133846739Y-97933504D01*
X133750568Y-97727266D01*
X133727644Y-97694527D01*
X133620046Y-97540859D01*
X133459140Y-97379953D01*
X133272733Y-97249431D01*
X133214725Y-97222382D01*
X133162549Y-97176625D01*
X133143129Y-97110000D01*
X133162549Y-97043375D01*
X133214725Y-96997618D01*
X133272734Y-96970568D01*
X133459139Y-96840047D01*
X133620047Y-96679139D01*
X133750568Y-96492734D01*
X133846739Y-96286496D01*
X133905635Y-96066692D01*
X133925468Y-95840000D01*
X133905635Y-95613308D01*
X133846739Y-95393504D01*
X133750568Y-95187266D01*
X133722734Y-95147515D01*
X133620046Y-95000859D01*
X133459140Y-94839953D01*
X133272733Y-94709431D01*
X133214725Y-94682382D01*
X133162549Y-94636625D01*
X133143129Y-94570000D01*
X133162549Y-94503375D01*
X133214725Y-94457618D01*
X133272734Y-94430568D01*
X133459139Y-94300047D01*
X133620047Y-94139139D01*
X133750568Y-93952734D01*
X133846739Y-93746496D01*
X133905635Y-93526692D01*
X133925468Y-93300000D01*
X133905635Y-93073308D01*
X133846739Y-92853504D01*
X133750568Y-92647266D01*
X133656191Y-92512481D01*
X133620046Y-92460859D01*
X133459140Y-92299953D01*
X133272735Y-92169432D01*
X133066497Y-92073261D01*
X132846689Y-92014364D01*
X132620000Y-91994531D01*
X132393310Y-92014364D01*
X132173502Y-92073261D01*
X131967264Y-92169432D01*
X131780859Y-92299953D01*
X131619953Y-92460859D01*
X131489432Y-92647264D01*
X131393261Y-92853502D01*
X131334364Y-93073310D01*
X131314531Y-93299999D01*
X131334364Y-93526689D01*
X131393261Y-93746497D01*
X131489432Y-93952735D01*
X131619953Y-94139140D01*
X131780859Y-94300046D01*
X131942549Y-94413261D01*
X131967266Y-94430568D01*
X132025275Y-94457618D01*
X132077450Y-94503375D01*
X132096869Y-94570000D01*
X132077450Y-94636625D01*
X132025275Y-94682382D01*
X131967263Y-94709433D01*
X131780859Y-94839953D01*
X131619953Y-95000859D01*
X131489432Y-95187264D01*
X131393261Y-95393502D01*
X131334364Y-95613310D01*
X131314531Y-95839999D01*
X131334364Y-96066689D01*
X131393261Y-96286497D01*
X131489432Y-96492735D01*
X131619953Y-96679140D01*
X131780859Y-96840046D01*
X131931419Y-96945468D01*
X131967266Y-96970568D01*
X132025275Y-96997618D01*
X132077450Y-97043375D01*
X132096869Y-97110000D01*
X132077450Y-97176625D01*
X132025275Y-97222382D01*
X131967263Y-97249433D01*
X131780859Y-97379953D01*
X131619953Y-97540859D01*
X131489432Y-97727264D01*
X131393261Y-97933502D01*
X131334364Y-98153310D01*
X131314531Y-98379999D01*
X131334364Y-98606689D01*
X131393261Y-98826497D01*
X131489432Y-99032735D01*
X131619953Y-99219140D01*
X131780859Y-99380046D01*
X131941796Y-99492734D01*
X131967266Y-99510568D01*
X132025273Y-99537617D01*
X132077449Y-99583373D01*
X132096869Y-99649997D01*
X132077451Y-99716622D01*
X132025276Y-99762380D01*
X131967266Y-99789431D01*
X131780859Y-99919953D01*
X131619953Y-100080859D01*
X131489432Y-100267264D01*
X131393261Y-100473502D01*
X131334364Y-100693310D01*
X131314531Y-100919999D01*
X130925468Y-100919999D01*
X130905635Y-100693308D01*
X130846739Y-100473504D01*
X130750568Y-100267266D01*
X130722781Y-100227582D01*
X130620046Y-100080859D01*
X130459140Y-99919953D01*
X130272735Y-99789432D01*
X130257023Y-99782106D01*
X130204847Y-99736348D01*
X130185428Y-99669722D01*
X130204849Y-99603097D01*
X130257026Y-99557340D01*
X130272484Y-99550131D01*
X130345472Y-99499025D01*
X129620001Y-98773553D01*
X129620000Y-98773553D01*
X128894526Y-99499025D01*
X128894526Y-99499026D01*
X128967515Y-99550133D01*
X128982975Y-99557342D01*
X129035150Y-99603098D01*
X129054570Y-99669722D01*
X129035152Y-99736347D01*
X128982978Y-99782104D01*
X128967268Y-99789429D01*
X128780859Y-99919953D01*
X128619953Y-100080859D01*
X128507387Y-100241623D01*
X128463069Y-100280489D01*
X128405812Y-100294500D01*
X126580453Y-100294500D01*
X126533000Y-100285061D01*
X126492772Y-100258181D01*
X124654590Y-98419999D01*
X128315033Y-98419999D01*
X128334858Y-98646602D01*
X128393733Y-98866326D01*
X128489866Y-99072484D01*
X128540972Y-99145471D01*
X128540974Y-99145472D01*
X129266446Y-98420001D01*
X129973553Y-98420001D01*
X130699025Y-99145472D01*
X130750134Y-99072480D01*
X130846266Y-98866326D01*
X130905141Y-98646602D01*
X130924966Y-98420000D01*
X130905141Y-98193397D01*
X130846266Y-97973673D01*
X130750133Y-97767515D01*
X130699025Y-97694526D01*
X129973553Y-98420000D01*
X129973553Y-98420001D01*
X129266446Y-98420001D01*
X129266446Y-98420000D01*
X128540973Y-97694526D01*
X128540973Y-97694527D01*
X128489865Y-97767516D01*
X128393733Y-97973672D01*
X128334858Y-98193397D01*
X128315033Y-98419999D01*
X124654590Y-98419999D01*
X123071819Y-96837228D01*
X123044939Y-96797000D01*
X123035500Y-96749547D01*
X123035500Y-95839999D01*
X124314531Y-95839999D01*
X124334364Y-96066689D01*
X124393261Y-96286497D01*
X124489432Y-96492735D01*
X124619953Y-96679140D01*
X124780859Y-96840046D01*
X124967264Y-96970567D01*
X124967265Y-96970567D01*
X124967266Y-96970568D01*
X125173504Y-97066739D01*
X125393308Y-97125635D01*
X125620000Y-97145468D01*
X125846692Y-97125635D01*
X126066496Y-97066739D01*
X126272734Y-96970568D01*
X126459139Y-96840047D01*
X126620047Y-96679139D01*
X126750568Y-96492734D01*
X126846739Y-96286496D01*
X126905635Y-96066692D01*
X126925468Y-95840000D01*
X126925468Y-95839999D01*
X128314531Y-95839999D01*
X128334364Y-96066689D01*
X128393261Y-96286497D01*
X128489432Y-96492735D01*
X128619953Y-96679140D01*
X128780859Y-96840046D01*
X128967264Y-96970567D01*
X128967265Y-96970567D01*
X128967266Y-96970568D01*
X129068756Y-97017893D01*
X129120931Y-97063650D01*
X129140350Y-97130275D01*
X129120931Y-97196900D01*
X129068755Y-97242657D01*
X128967516Y-97289865D01*
X128894527Y-97340973D01*
X128894526Y-97340973D01*
X129620000Y-98066446D01*
X129620001Y-98066446D01*
X130345472Y-97340974D01*
X130345471Y-97340972D01*
X130272483Y-97289866D01*
X130171244Y-97242657D01*
X130119068Y-97196900D01*
X130099649Y-97130275D01*
X130119069Y-97063650D01*
X130171243Y-97017893D01*
X130272734Y-96970568D01*
X130459139Y-96840047D01*
X130620047Y-96679139D01*
X130750568Y-96492734D01*
X130846739Y-96286496D01*
X130905635Y-96066692D01*
X130925468Y-95840000D01*
X130905635Y-95613308D01*
X130846739Y-95393504D01*
X130750568Y-95187266D01*
X130722734Y-95147515D01*
X130620046Y-95000859D01*
X130459140Y-94839953D01*
X130272735Y-94709432D01*
X130066497Y-94613261D01*
X129846689Y-94554364D01*
X129620000Y-94534531D01*
X129393310Y-94554364D01*
X129173502Y-94613261D01*
X128967264Y-94709432D01*
X128780859Y-94839953D01*
X128619953Y-95000859D01*
X128489432Y-95187264D01*
X128393261Y-95393502D01*
X128334364Y-95613310D01*
X128314531Y-95839999D01*
X126925468Y-95839999D01*
X126905635Y-95613308D01*
X126846739Y-95393504D01*
X126750568Y-95187266D01*
X126722734Y-95147515D01*
X126620046Y-95000859D01*
X126459140Y-94839953D01*
X126272735Y-94709432D01*
X126066497Y-94613261D01*
X125846689Y-94554364D01*
X125620000Y-94534531D01*
X125393310Y-94554364D01*
X125173502Y-94613261D01*
X124967264Y-94709432D01*
X124780859Y-94839953D01*
X124619953Y-95000859D01*
X124489432Y-95187264D01*
X124393261Y-95393502D01*
X124334364Y-95613310D01*
X124314531Y-95839999D01*
X123035500Y-95839999D01*
X123035500Y-90569026D01*
X131894526Y-90569026D01*
X131967515Y-90620133D01*
X132173673Y-90716266D01*
X132393397Y-90775141D01*
X132619999Y-90794966D01*
X132846602Y-90775141D01*
X133066326Y-90716266D01*
X133272480Y-90620134D01*
X133345472Y-90569025D01*
X132620001Y-89843553D01*
X132620000Y-89843553D01*
X131894526Y-90569025D01*
X131894526Y-90569026D01*
X123035500Y-90569026D01*
X123035500Y-89490000D01*
X131315033Y-89490000D01*
X131334858Y-89716602D01*
X131393733Y-89936326D01*
X131489866Y-90142484D01*
X131540972Y-90215471D01*
X131540974Y-90215472D01*
X132266446Y-89490001D01*
X132973553Y-89490001D01*
X133699025Y-90215472D01*
X133750134Y-90142480D01*
X133846266Y-89936326D01*
X133905141Y-89716602D01*
X133924966Y-89490000D01*
X141474531Y-89490000D01*
X141494364Y-89716689D01*
X141553261Y-89936497D01*
X141649432Y-90142735D01*
X141779953Y-90329140D01*
X141940859Y-90490046D01*
X142127264Y-90620567D01*
X142127265Y-90620567D01*
X142127266Y-90620568D01*
X142333504Y-90716739D01*
X142553308Y-90775635D01*
X142679656Y-90786689D01*
X142779999Y-90795468D01*
X142779999Y-90795467D01*
X142780000Y-90795468D01*
X143006692Y-90775635D01*
X143226496Y-90716739D01*
X143432734Y-90620568D01*
X143619139Y-90490047D01*
X143780047Y-90329139D01*
X143910568Y-90142734D01*
X144006739Y-89936496D01*
X144065635Y-89716692D01*
X144085468Y-89490000D01*
X144065635Y-89263308D01*
X144006739Y-89043504D01*
X143910568Y-88837266D01*
X143859635Y-88764526D01*
X143780046Y-88650859D01*
X143619140Y-88489953D01*
X143432735Y-88359432D01*
X143226497Y-88263261D01*
X143006689Y-88204364D01*
X142779999Y-88184531D01*
X142553310Y-88204364D01*
X142333502Y-88263261D01*
X142127264Y-88359432D01*
X141940859Y-88489953D01*
X141779953Y-88650859D01*
X141649432Y-88837264D01*
X141553261Y-89043502D01*
X141494364Y-89263310D01*
X141474531Y-89490000D01*
X133924966Y-89490000D01*
X133924966Y-89489999D01*
X133905141Y-89263397D01*
X133846266Y-89043673D01*
X133750133Y-88837515D01*
X133699025Y-88764526D01*
X132973553Y-89490000D01*
X132973553Y-89490001D01*
X132266446Y-89490001D01*
X132266446Y-89490000D01*
X131540973Y-88764526D01*
X131540973Y-88764527D01*
X131489865Y-88837516D01*
X131393733Y-89043672D01*
X131334858Y-89263397D01*
X131315033Y-89490000D01*
X123035500Y-89490000D01*
X123035500Y-88410973D01*
X131894526Y-88410973D01*
X132620000Y-89136446D01*
X132620001Y-89136446D01*
X133345472Y-88410974D01*
X133345471Y-88410972D01*
X133272484Y-88359866D01*
X133066326Y-88263733D01*
X132846602Y-88204858D01*
X132620000Y-88185033D01*
X132393397Y-88204858D01*
X132173672Y-88263733D01*
X131967516Y-88359865D01*
X131894527Y-88410973D01*
X131894526Y-88410973D01*
X123035500Y-88410973D01*
X123035500Y-85679999D01*
X124314531Y-85679999D01*
X124334364Y-85906689D01*
X124393261Y-86126497D01*
X124489432Y-86332735D01*
X124619953Y-86519140D01*
X124780859Y-86680046D01*
X124967264Y-86810567D01*
X124967265Y-86810567D01*
X124967266Y-86810568D01*
X125173504Y-86906739D01*
X125393308Y-86965635D01*
X125544436Y-86978857D01*
X125619999Y-86985468D01*
X125619999Y-86985467D01*
X125620000Y-86985468D01*
X125846692Y-86965635D01*
X126066496Y-86906739D01*
X126272734Y-86810568D01*
X126459139Y-86680047D01*
X126620047Y-86519139D01*
X126750568Y-86332734D01*
X126846739Y-86126496D01*
X126905635Y-85906692D01*
X126925468Y-85680000D01*
X128314531Y-85680000D01*
X128334364Y-85906689D01*
X128393261Y-86126497D01*
X128489432Y-86332735D01*
X128619953Y-86519140D01*
X128780859Y-86680046D01*
X128967264Y-86810567D01*
X128967265Y-86810567D01*
X128967266Y-86810568D01*
X129173504Y-86906739D01*
X129393308Y-86965635D01*
X129544436Y-86978857D01*
X129619999Y-86985468D01*
X129619999Y-86985467D01*
X129620000Y-86985468D01*
X129846692Y-86965635D01*
X130066496Y-86906739D01*
X130272734Y-86810568D01*
X130459139Y-86680047D01*
X130620047Y-86519139D01*
X130750568Y-86332734D01*
X130846739Y-86126496D01*
X130905635Y-85906692D01*
X130925468Y-85680000D01*
X131314531Y-85680000D01*
X131334364Y-85906689D01*
X131393261Y-86126497D01*
X131489432Y-86332735D01*
X131619953Y-86519140D01*
X131780859Y-86680046D01*
X131967264Y-86810567D01*
X131967265Y-86810567D01*
X131967266Y-86810568D01*
X132173504Y-86906739D01*
X132393308Y-86965635D01*
X132544436Y-86978857D01*
X132619999Y-86985468D01*
X132619999Y-86985467D01*
X132620000Y-86985468D01*
X132846692Y-86965635D01*
X133066496Y-86906739D01*
X133272734Y-86810568D01*
X133459139Y-86680047D01*
X133620047Y-86519139D01*
X133750568Y-86332734D01*
X133846739Y-86126496D01*
X133899390Y-85930000D01*
X141501128Y-85930000D01*
X141553733Y-86126326D01*
X141649865Y-86332480D01*
X141780341Y-86518819D01*
X141941180Y-86679658D01*
X142127519Y-86810134D01*
X142333673Y-86906266D01*
X142529999Y-86958871D01*
X142530000Y-86958872D01*
X142530000Y-85930000D01*
X143030000Y-85930000D01*
X143030000Y-86958871D01*
X143226326Y-86906266D01*
X143432480Y-86810134D01*
X143618819Y-86679658D01*
X143779658Y-86518819D01*
X143910134Y-86332480D01*
X144006266Y-86126326D01*
X144058872Y-85930000D01*
X143030000Y-85930000D01*
X142530000Y-85930000D01*
X141501128Y-85930000D01*
X133899390Y-85930000D01*
X133905635Y-85906692D01*
X133925468Y-85680000D01*
X133905635Y-85453308D01*
X133899390Y-85430000D01*
X141501128Y-85430000D01*
X142530000Y-85430000D01*
X142530000Y-84401128D01*
X143030000Y-84401128D01*
X143030000Y-85430000D01*
X144058872Y-85430000D01*
X144058871Y-85429999D01*
X144006266Y-85233673D01*
X143910134Y-85027519D01*
X143779658Y-84841180D01*
X143618819Y-84680341D01*
X143432480Y-84549865D01*
X143226326Y-84453733D01*
X143030000Y-84401128D01*
X142530000Y-84401128D01*
X142529999Y-84401128D01*
X142333673Y-84453733D01*
X142127519Y-84549865D01*
X141941180Y-84680341D01*
X141780341Y-84841180D01*
X141649865Y-85027519D01*
X141553733Y-85233673D01*
X141501128Y-85429999D01*
X141501128Y-85430000D01*
X133899390Y-85430000D01*
X133846739Y-85233504D01*
X133750568Y-85027266D01*
X133708017Y-84966497D01*
X133620046Y-84840859D01*
X133459140Y-84679953D01*
X133272735Y-84549432D01*
X133066497Y-84453261D01*
X132846689Y-84394364D01*
X132620000Y-84374531D01*
X132393310Y-84394364D01*
X132173502Y-84453261D01*
X131967264Y-84549432D01*
X131780859Y-84679953D01*
X131619953Y-84840859D01*
X131489432Y-85027264D01*
X131393261Y-85233502D01*
X131334364Y-85453310D01*
X131314531Y-85680000D01*
X130925468Y-85680000D01*
X130905635Y-85453308D01*
X130846739Y-85233504D01*
X130750568Y-85027266D01*
X130708017Y-84966497D01*
X130620046Y-84840859D01*
X130459140Y-84679953D01*
X130272735Y-84549432D01*
X130066497Y-84453261D01*
X129846689Y-84394364D01*
X129620000Y-84374531D01*
X129393310Y-84394364D01*
X129173502Y-84453261D01*
X128967264Y-84549432D01*
X128780859Y-84679953D01*
X128619953Y-84840859D01*
X128489432Y-85027264D01*
X128393261Y-85233502D01*
X128334364Y-85453310D01*
X128314531Y-85680000D01*
X126925468Y-85680000D01*
X126905635Y-85453308D01*
X126846739Y-85233504D01*
X126750568Y-85027266D01*
X126708017Y-84966497D01*
X126620046Y-84840859D01*
X126459140Y-84679953D01*
X126272735Y-84549432D01*
X126066497Y-84453261D01*
X125846689Y-84394364D01*
X125620000Y-84374531D01*
X125393310Y-84394364D01*
X125173502Y-84453261D01*
X124967264Y-84549432D01*
X124780859Y-84679953D01*
X124619953Y-84840859D01*
X124489432Y-85027264D01*
X124393261Y-85233502D01*
X124334364Y-85453310D01*
X124314531Y-85679999D01*
X123035500Y-85679999D01*
X123035500Y-77542740D01*
X123037763Y-77522236D01*
X123035561Y-77452144D01*
X123035500Y-77448250D01*
X123035500Y-77420657D01*
X123035500Y-77420650D01*
X123034995Y-77416653D01*
X123034080Y-77405023D01*
X123032709Y-77361373D01*
X123027120Y-77342137D01*
X123023176Y-77323093D01*
X123020664Y-77303208D01*
X123004582Y-77262591D01*
X123000798Y-77251540D01*
X122988617Y-77209610D01*
X122978421Y-77192369D01*
X122969863Y-77174902D01*
X122962486Y-77156268D01*
X122936798Y-77120912D01*
X122930409Y-77111184D01*
X122908170Y-77073579D01*
X122894006Y-77059415D01*
X122881369Y-77044620D01*
X122869595Y-77028414D01*
X122869594Y-77028413D01*
X122835935Y-77000568D01*
X122827305Y-76992714D01*
X120010802Y-74176211D01*
X119997906Y-74160113D01*
X119946775Y-74112098D01*
X119943978Y-74109387D01*
X119924470Y-74089879D01*
X119921290Y-74087412D01*
X119912424Y-74079839D01*
X119880582Y-74049938D01*
X119863024Y-74040285D01*
X119846764Y-74029604D01*
X119830936Y-74017327D01*
X119790851Y-73999980D01*
X119780361Y-73994841D01*
X119742091Y-73973802D01*
X119722691Y-73968821D01*
X119704284Y-73962519D01*
X119685897Y-73954562D01*
X119642758Y-73947729D01*
X119631324Y-73945361D01*
X119589019Y-73934500D01*
X119568984Y-73934500D01*
X119549586Y-73932973D01*
X119542162Y-73931797D01*
X119529805Y-73929840D01*
X119529804Y-73929840D01*
X119496751Y-73932964D01*
X119486325Y-73933950D01*
X119474656Y-73934500D01*
X113773149Y-73934500D01*
X113715892Y-73920489D01*
X113671574Y-73881623D01*
X113581597Y-73753122D01*
X113426880Y-73598405D01*
X113426877Y-73598402D01*
X113247639Y-73472898D01*
X113156205Y-73430261D01*
X113049331Y-73380425D01*
X112837974Y-73323792D01*
X112620000Y-73304722D01*
X112402025Y-73323792D01*
X112190668Y-73380425D01*
X111992361Y-73472898D01*
X111813122Y-73598402D01*
X111658402Y-73753122D01*
X111532898Y-73932361D01*
X111440425Y-74130668D01*
X111383792Y-74342025D01*
X111364722Y-74559999D01*
X106875277Y-74559999D01*
X106856207Y-74342023D01*
X106799575Y-74130670D01*
X106707102Y-73932362D01*
X106581598Y-73753123D01*
X106426877Y-73598402D01*
X106247639Y-73472898D01*
X106156205Y-73430261D01*
X106049331Y-73380425D01*
X105837974Y-73323792D01*
X105620000Y-73304722D01*
X105402025Y-73323792D01*
X105190668Y-73380425D01*
X104992361Y-73472898D01*
X104813122Y-73598402D01*
X104658402Y-73753122D01*
X104532898Y-73932361D01*
X104440425Y-74130668D01*
X104383792Y-74342025D01*
X104364722Y-74559999D01*
X68560500Y-74559999D01*
X68560500Y-68714261D01*
X71729287Y-68714261D01*
X71729288Y-68714262D01*
X71855214Y-68819926D01*
X72132582Y-69002355D01*
X72429255Y-69151350D01*
X72741218Y-69264895D01*
X73064263Y-69341458D01*
X73394007Y-69380000D01*
X73725989Y-69380000D01*
X74055732Y-69341458D01*
X74378777Y-69264895D01*
X74690740Y-69151350D01*
X74987413Y-69002355D01*
X75264781Y-68819927D01*
X75390706Y-68714262D01*
X146729288Y-68714262D01*
X146729289Y-68714263D01*
X146855215Y-68819927D01*
X147132583Y-69002356D01*
X147429256Y-69151351D01*
X147741219Y-69264896D01*
X148064264Y-69341459D01*
X148394008Y-69380001D01*
X148725990Y-69380001D01*
X149055733Y-69341459D01*
X149378778Y-69264896D01*
X149690741Y-69151351D01*
X149987414Y-69002356D01*
X150264782Y-68819928D01*
X150390707Y-68714263D01*
X150390708Y-68714262D01*
X148559999Y-66883554D01*
X146729288Y-68714262D01*
X75390706Y-68714262D01*
X75390707Y-68714261D01*
X73559998Y-66883553D01*
X71729287Y-68714261D01*
X68560500Y-68714261D01*
X68560500Y-66532561D01*
X68560553Y-66530000D01*
X70705167Y-66530000D01*
X70724471Y-66861426D01*
X70782118Y-67188363D01*
X70877336Y-67506409D01*
X71008830Y-67811247D01*
X71174821Y-68098754D01*
X71372356Y-68364088D01*
X73206445Y-66530000D01*
X73913551Y-66530000D01*
X75747638Y-68364088D01*
X75945174Y-68098754D01*
X76111165Y-67811247D01*
X76242659Y-67506409D01*
X76337877Y-67188363D01*
X76395524Y-66861426D01*
X76414828Y-66530000D01*
X145705169Y-66530000D01*
X145724472Y-66861427D01*
X145782119Y-67188364D01*
X145877337Y-67506410D01*
X146008831Y-67811248D01*
X146174822Y-68098755D01*
X146372357Y-68364089D01*
X148206446Y-66530001D01*
X148913552Y-66530001D01*
X150747639Y-68364089D01*
X150945175Y-68098755D01*
X151111166Y-67811248D01*
X151242660Y-67506410D01*
X151337878Y-67188364D01*
X151395525Y-66861427D01*
X151414829Y-66530000D01*
X151395525Y-66198574D01*
X151337878Y-65871637D01*
X151242660Y-65553591D01*
X151111166Y-65248753D01*
X150945175Y-64961246D01*
X150747639Y-64695911D01*
X148913552Y-66530001D01*
X148206446Y-66530001D01*
X146372356Y-64695911D01*
X146174825Y-64961242D01*
X146008831Y-65248753D01*
X145877337Y-65553591D01*
X145782119Y-65871637D01*
X145724472Y-66198574D01*
X145705169Y-66530000D01*
X76414828Y-66530000D01*
X76395524Y-66198573D01*
X76337877Y-65871636D01*
X76242659Y-65553590D01*
X76111165Y-65248752D01*
X75945174Y-64961245D01*
X75747638Y-64695910D01*
X73913551Y-66530000D01*
X73206445Y-66530000D01*
X71372355Y-64695910D01*
X71174824Y-64961241D01*
X71008830Y-65248752D01*
X70877336Y-65553590D01*
X70782118Y-65871636D01*
X70724471Y-66198573D01*
X70705167Y-66530000D01*
X68560553Y-66530000D01*
X68560606Y-66527437D01*
X68569054Y-66323178D01*
X68569513Y-66312081D01*
X68578049Y-66116567D01*
X68578878Y-66106695D01*
X68605496Y-65893156D01*
X68605543Y-65892791D01*
X68631576Y-65695048D01*
X68633138Y-65685877D01*
X68677113Y-65476151D01*
X68677326Y-65475166D01*
X68720676Y-65279627D01*
X68722880Y-65271130D01*
X68783888Y-65066208D01*
X68784405Y-65064522D01*
X68844699Y-64873292D01*
X68847409Y-64865603D01*
X68925095Y-64666510D01*
X68925915Y-64664470D01*
X69002738Y-64479003D01*
X69005861Y-64472076D01*
X69067625Y-64345736D01*
X71729287Y-64345736D01*
X73559998Y-66176447D01*
X73559999Y-66176447D01*
X75390707Y-64345737D01*
X146729288Y-64345737D01*
X148559999Y-66176448D01*
X148560000Y-66176448D01*
X150390708Y-64345738D01*
X150390707Y-64345737D01*
X150264782Y-64240074D01*
X149987414Y-64057645D01*
X149690741Y-63908650D01*
X149378778Y-63795105D01*
X149055733Y-63718542D01*
X148725990Y-63680001D01*
X148394008Y-63680001D01*
X148064264Y-63718542D01*
X147741219Y-63795105D01*
X147429256Y-63908650D01*
X147132583Y-64057645D01*
X146855215Y-64240073D01*
X146729288Y-64345737D01*
X75390707Y-64345737D01*
X75390706Y-64345736D01*
X75264781Y-64240073D01*
X74987413Y-64057644D01*
X74690740Y-63908649D01*
X74378777Y-63795104D01*
X74055732Y-63718541D01*
X73725989Y-63680000D01*
X73394007Y-63680000D01*
X73064263Y-63718541D01*
X72741218Y-63795104D01*
X72429255Y-63908649D01*
X72132582Y-64057644D01*
X71855214Y-64240072D01*
X71729287Y-64345736D01*
X69067625Y-64345736D01*
X69099662Y-64280204D01*
X69100970Y-64277615D01*
X69193665Y-64099548D01*
X69197077Y-64093430D01*
X69306319Y-63910098D01*
X69308209Y-63907032D01*
X69416076Y-63737716D01*
X69419678Y-63732376D01*
X69543686Y-63558692D01*
X69546124Y-63555400D01*
X69668379Y-63396074D01*
X69672077Y-63391489D01*
X69809939Y-63228714D01*
X69813090Y-63225140D01*
X69948763Y-63077078D01*
X69952414Y-63073264D01*
X70103260Y-62922418D01*
X70107051Y-62918788D01*
X70255179Y-62783053D01*
X70258705Y-62779948D01*
X70421462Y-62642099D01*
X70426099Y-62638362D01*
X70456965Y-62614677D01*
X70585421Y-62516109D01*
X70588699Y-62513682D01*
X70762388Y-62389670D01*
X70767658Y-62386113D01*
X70937109Y-62278161D01*
X70940068Y-62276337D01*
X71123410Y-62167089D01*
X71129569Y-62163656D01*
X71307648Y-62070954D01*
X71310312Y-62069609D01*
X71502044Y-61975877D01*
X71508983Y-61972747D01*
X71694466Y-61895918D01*
X71696602Y-61895059D01*
X71895592Y-61817413D01*
X71903277Y-61814705D01*
X72094582Y-61754387D01*
X72096261Y-61753872D01*
X72301121Y-61692882D01*
X72309619Y-61690678D01*
X72505327Y-61647291D01*
X72506263Y-61647089D01*
X72715816Y-61603151D01*
X72725047Y-61601578D01*
X72923222Y-61575488D01*
X72923219Y-61575488D01*
X73136673Y-61548881D01*
X73146564Y-61548050D01*
X73342232Y-61539507D01*
X73557437Y-61530605D01*
X73562561Y-61530500D01*
X148557439Y-61530500D01*
X148562562Y-61530605D01*
G37*
G04 #@! TD.AperFunction*
M02*
