G04 #@! TF.GenerationSoftware,KiCad,Pcbnew,7.0.1*
G04 #@! TF.CreationDate,2023-05-01T00:30:29+02:00*
G04 #@! TF.ProjectId,ChuaCircuits,43687561-4369-4726-9375-6974732e6b69,rev?*
G04 #@! TF.SameCoordinates,Original*
G04 #@! TF.FileFunction,Soldermask,Bot*
G04 #@! TF.FilePolarity,Negative*
%FSLAX46Y46*%
G04 Gerber Fmt 4.6, Leading zero omitted, Abs format (unit mm)*
G04 Created by KiCad (PCBNEW 7.0.1) date 2023-05-01 00:30:29*
%MOMM*%
%LPD*%
G01*
G04 APERTURE LIST*
%ADD10C,4.700000*%
%ADD11C,1.500000*%
%ADD12O,1.600000X1.600000*%
%ADD13C,1.600000*%
%ADD14C,2.000000*%
%ADD15C,1.440000*%
G04 APERTURE END LIST*
D10*
X148559999Y-116529999D03*
X73560001Y-116529999D03*
X148559999Y-66530001D03*
X73559998Y-66530000D03*
D11*
X121620000Y-110840000D03*
X118120000Y-105840000D03*
X114620000Y-110840000D03*
X106620000Y-110840000D03*
X103120000Y-105840000D03*
X99620000Y-110840000D03*
D12*
X125620000Y-95840000D03*
D13*
X125620000Y-85680000D03*
X73760000Y-93140000D03*
X73760000Y-95640000D03*
D14*
X118120000Y-88340000D03*
X118120000Y-95840000D03*
D11*
X105620000Y-74560000D03*
X109120000Y-79560000D03*
X112620000Y-74560000D03*
D13*
X84380000Y-84520000D03*
X81880000Y-84520000D03*
D14*
X103120000Y-88340000D03*
X103120000Y-95840000D03*
D15*
X108080000Y-93300000D03*
X110620000Y-95840000D03*
X113160000Y-93300000D03*
D12*
X129620000Y-95840000D03*
D13*
X129620000Y-85680000D03*
D12*
X142780000Y-89490000D03*
D13*
X132620000Y-89490000D03*
X129620000Y-98420000D03*
X129620000Y-100920000D03*
D15*
X74100000Y-99615000D03*
X76640000Y-102155000D03*
X79180000Y-99615000D03*
D12*
X143240000Y-98840000D03*
D13*
X143240000Y-109000000D03*
D12*
X140240000Y-93300000D03*
X140240000Y-95840000D03*
X140240000Y-98380000D03*
X140240000Y-100920000D03*
X132620000Y-100920000D03*
X132620000Y-98380000D03*
X132620000Y-95840000D03*
D13*
X132620000Y-93300000D03*
D12*
X97080000Y-90560000D03*
D13*
X86920000Y-90560000D03*
D12*
X147240000Y-98840000D03*
D13*
X147240000Y-109000000D03*
D12*
X97080000Y-95640000D03*
D13*
X86920000Y-95640000D03*
D14*
X91880000Y-100840000D03*
X84380000Y-100840000D03*
D12*
X97080000Y-84520000D03*
D13*
X86920000Y-84520000D03*
X143240000Y-95800000D03*
X143240000Y-93300000D03*
D12*
X142780000Y-85680000D03*
D13*
X132620000Y-85680000D03*
D12*
X84380000Y-88020000D03*
X84380000Y-90560000D03*
X84380000Y-93100000D03*
X84380000Y-95640000D03*
X76760000Y-95640000D03*
X76760000Y-93100000D03*
X76760000Y-90560000D03*
D13*
X76760000Y-88020000D03*
M02*
