G04 #@! TF.GenerationSoftware,KiCad,Pcbnew,7.0.1*
G04 #@! TF.CreationDate,2023-05-01T00:30:29+02:00*
G04 #@! TF.ProjectId,ChuaCircuits,43687561-4369-4726-9375-6974732e6b69,rev?*
G04 #@! TF.SameCoordinates,Original*
G04 #@! TF.FileFunction,Legend,Top*
G04 #@! TF.FilePolarity,Positive*
%FSLAX46Y46*%
G04 Gerber Fmt 4.6, Leading zero omitted, Abs format (unit mm)*
G04 Created by KiCad (PCBNEW 7.0.1) date 2023-05-01 00:30:29*
%MOMM*%
%LPD*%
G01*
G04 APERTURE LIST*
%ADD10C,0.300000*%
%ADD11C,0.150000*%
%ADD12C,0.100000*%
%ADD13C,0.120000*%
%ADD14C,4.700000*%
%ADD15C,1.500000*%
%ADD16O,1.600000X1.600000*%
%ADD17C,1.600000*%
%ADD18C,2.000000*%
%ADD19C,1.440000*%
G04 APERTURE END LIST*
D10*
X107752143Y-66042857D02*
X107609286Y-65971428D01*
X107609286Y-65971428D02*
X107395000Y-65971428D01*
X107395000Y-65971428D02*
X107180714Y-66042857D01*
X107180714Y-66042857D02*
X107037857Y-66185714D01*
X107037857Y-66185714D02*
X106966428Y-66328571D01*
X106966428Y-66328571D02*
X106895000Y-66614285D01*
X106895000Y-66614285D02*
X106895000Y-66828571D01*
X106895000Y-66828571D02*
X106966428Y-67114285D01*
X106966428Y-67114285D02*
X107037857Y-67257142D01*
X107037857Y-67257142D02*
X107180714Y-67400000D01*
X107180714Y-67400000D02*
X107395000Y-67471428D01*
X107395000Y-67471428D02*
X107537857Y-67471428D01*
X107537857Y-67471428D02*
X107752143Y-67400000D01*
X107752143Y-67400000D02*
X107823571Y-67328571D01*
X107823571Y-67328571D02*
X107823571Y-66828571D01*
X107823571Y-66828571D02*
X107537857Y-66828571D01*
X108466428Y-67471428D02*
X108466428Y-65971428D01*
X108466428Y-65971428D02*
X109323571Y-67471428D01*
X109323571Y-67471428D02*
X109323571Y-65971428D01*
X110037857Y-67471428D02*
X110037857Y-65971428D01*
X110037857Y-65971428D02*
X110395000Y-65971428D01*
X110395000Y-65971428D02*
X110609286Y-66042857D01*
X110609286Y-66042857D02*
X110752143Y-66185714D01*
X110752143Y-66185714D02*
X110823572Y-66328571D01*
X110823572Y-66328571D02*
X110895000Y-66614285D01*
X110895000Y-66614285D02*
X110895000Y-66828571D01*
X110895000Y-66828571D02*
X110823572Y-67114285D01*
X110823572Y-67114285D02*
X110752143Y-67257142D01*
X110752143Y-67257142D02*
X110609286Y-67400000D01*
X110609286Y-67400000D02*
X110395000Y-67471428D01*
X110395000Y-67471428D02*
X110037857Y-67471428D01*
X95977142Y-74930000D02*
X97120000Y-74930000D01*
X96548571Y-75501428D02*
X96548571Y-74358571D01*
X97905714Y-75501428D02*
X98191428Y-75501428D01*
X98191428Y-75501428D02*
X98334285Y-75430000D01*
X98334285Y-75430000D02*
X98405714Y-75358571D01*
X98405714Y-75358571D02*
X98548571Y-75144285D01*
X98548571Y-75144285D02*
X98620000Y-74858571D01*
X98620000Y-74858571D02*
X98620000Y-74287142D01*
X98620000Y-74287142D02*
X98548571Y-74144285D01*
X98548571Y-74144285D02*
X98477143Y-74072857D01*
X98477143Y-74072857D02*
X98334285Y-74001428D01*
X98334285Y-74001428D02*
X98048571Y-74001428D01*
X98048571Y-74001428D02*
X97905714Y-74072857D01*
X97905714Y-74072857D02*
X97834285Y-74144285D01*
X97834285Y-74144285D02*
X97762857Y-74287142D01*
X97762857Y-74287142D02*
X97762857Y-74644285D01*
X97762857Y-74644285D02*
X97834285Y-74787142D01*
X97834285Y-74787142D02*
X97905714Y-74858571D01*
X97905714Y-74858571D02*
X98048571Y-74930000D01*
X98048571Y-74930000D02*
X98334285Y-74930000D01*
X98334285Y-74930000D02*
X98477143Y-74858571D01*
X98477143Y-74858571D02*
X98548571Y-74787142D01*
X98548571Y-74787142D02*
X98620000Y-74644285D01*
X99048571Y-74001428D02*
X99548571Y-75501428D01*
X99548571Y-75501428D02*
X100048571Y-74001428D01*
X118937142Y-74930000D02*
X120080000Y-74930000D01*
X120865714Y-75501428D02*
X121151428Y-75501428D01*
X121151428Y-75501428D02*
X121294285Y-75430000D01*
X121294285Y-75430000D02*
X121365714Y-75358571D01*
X121365714Y-75358571D02*
X121508571Y-75144285D01*
X121508571Y-75144285D02*
X121580000Y-74858571D01*
X121580000Y-74858571D02*
X121580000Y-74287142D01*
X121580000Y-74287142D02*
X121508571Y-74144285D01*
X121508571Y-74144285D02*
X121437143Y-74072857D01*
X121437143Y-74072857D02*
X121294285Y-74001428D01*
X121294285Y-74001428D02*
X121008571Y-74001428D01*
X121008571Y-74001428D02*
X120865714Y-74072857D01*
X120865714Y-74072857D02*
X120794285Y-74144285D01*
X120794285Y-74144285D02*
X120722857Y-74287142D01*
X120722857Y-74287142D02*
X120722857Y-74644285D01*
X120722857Y-74644285D02*
X120794285Y-74787142D01*
X120794285Y-74787142D02*
X120865714Y-74858571D01*
X120865714Y-74858571D02*
X121008571Y-74930000D01*
X121008571Y-74930000D02*
X121294285Y-74930000D01*
X121294285Y-74930000D02*
X121437143Y-74858571D01*
X121437143Y-74858571D02*
X121508571Y-74787142D01*
X121508571Y-74787142D02*
X121580000Y-74644285D01*
X122008571Y-74001428D02*
X122508571Y-75501428D01*
X122508571Y-75501428D02*
X123008571Y-74001428D01*
X117895000Y-119942142D02*
X117895000Y-120656428D01*
X117395000Y-119156428D02*
X117895000Y-119942142D01*
X117895000Y-119942142D02*
X118395000Y-119156428D01*
X113895000Y-119156428D02*
X114895000Y-120656428D01*
X114895000Y-119156428D02*
X113895000Y-120656428D01*
X99084285Y-119156428D02*
X100084285Y-119156428D01*
X100084285Y-119156428D02*
X99084285Y-120656428D01*
X99084285Y-120656428D02*
X100084285Y-120656428D01*
X105252143Y-119227857D02*
X105109286Y-119156428D01*
X105109286Y-119156428D02*
X104895000Y-119156428D01*
X104895000Y-119156428D02*
X104680714Y-119227857D01*
X104680714Y-119227857D02*
X104537857Y-119370714D01*
X104537857Y-119370714D02*
X104466428Y-119513571D01*
X104466428Y-119513571D02*
X104395000Y-119799285D01*
X104395000Y-119799285D02*
X104395000Y-120013571D01*
X104395000Y-120013571D02*
X104466428Y-120299285D01*
X104466428Y-120299285D02*
X104537857Y-120442142D01*
X104537857Y-120442142D02*
X104680714Y-120585000D01*
X104680714Y-120585000D02*
X104895000Y-120656428D01*
X104895000Y-120656428D02*
X105037857Y-120656428D01*
X105037857Y-120656428D02*
X105252143Y-120585000D01*
X105252143Y-120585000D02*
X105323571Y-120513571D01*
X105323571Y-120513571D02*
X105323571Y-120013571D01*
X105323571Y-120013571D02*
X105037857Y-120013571D01*
X105966428Y-120656428D02*
X105966428Y-119156428D01*
X105966428Y-119156428D02*
X106823571Y-120656428D01*
X106823571Y-120656428D02*
X106823571Y-119156428D01*
X107537857Y-120656428D02*
X107537857Y-119156428D01*
X107537857Y-119156428D02*
X107895000Y-119156428D01*
X107895000Y-119156428D02*
X108109286Y-119227857D01*
X108109286Y-119227857D02*
X108252143Y-119370714D01*
X108252143Y-119370714D02*
X108323572Y-119513571D01*
X108323572Y-119513571D02*
X108395000Y-119799285D01*
X108395000Y-119799285D02*
X108395000Y-120013571D01*
X108395000Y-120013571D02*
X108323572Y-120299285D01*
X108323572Y-120299285D02*
X108252143Y-120442142D01*
X108252143Y-120442142D02*
X108109286Y-120585000D01*
X108109286Y-120585000D02*
X107895000Y-120656428D01*
X107895000Y-120656428D02*
X107537857Y-120656428D01*
X120252143Y-119227857D02*
X120109286Y-119156428D01*
X120109286Y-119156428D02*
X119895000Y-119156428D01*
X119895000Y-119156428D02*
X119680714Y-119227857D01*
X119680714Y-119227857D02*
X119537857Y-119370714D01*
X119537857Y-119370714D02*
X119466428Y-119513571D01*
X119466428Y-119513571D02*
X119395000Y-119799285D01*
X119395000Y-119799285D02*
X119395000Y-120013571D01*
X119395000Y-120013571D02*
X119466428Y-120299285D01*
X119466428Y-120299285D02*
X119537857Y-120442142D01*
X119537857Y-120442142D02*
X119680714Y-120585000D01*
X119680714Y-120585000D02*
X119895000Y-120656428D01*
X119895000Y-120656428D02*
X120037857Y-120656428D01*
X120037857Y-120656428D02*
X120252143Y-120585000D01*
X120252143Y-120585000D02*
X120323571Y-120513571D01*
X120323571Y-120513571D02*
X120323571Y-120013571D01*
X120323571Y-120013571D02*
X120037857Y-120013571D01*
X120966428Y-120656428D02*
X120966428Y-119156428D01*
X120966428Y-119156428D02*
X121823571Y-120656428D01*
X121823571Y-120656428D02*
X121823571Y-119156428D01*
X122537857Y-120656428D02*
X122537857Y-119156428D01*
X122537857Y-119156428D02*
X122895000Y-119156428D01*
X122895000Y-119156428D02*
X123109286Y-119227857D01*
X123109286Y-119227857D02*
X123252143Y-119370714D01*
X123252143Y-119370714D02*
X123323572Y-119513571D01*
X123323572Y-119513571D02*
X123395000Y-119799285D01*
X123395000Y-119799285D02*
X123395000Y-120013571D01*
X123395000Y-120013571D02*
X123323572Y-120299285D01*
X123323572Y-120299285D02*
X123252143Y-120442142D01*
X123252143Y-120442142D02*
X123109286Y-120585000D01*
X123109286Y-120585000D02*
X122895000Y-120656428D01*
X122895000Y-120656428D02*
X122537857Y-120656428D01*
D11*
X147798094Y-113642618D02*
X147798094Y-112642618D01*
X147798094Y-113118808D02*
X148369522Y-113118808D01*
X148369522Y-113642618D02*
X148369522Y-112642618D01*
X149274284Y-112975951D02*
X149274284Y-113642618D01*
X149036189Y-112594999D02*
X148798094Y-113309284D01*
X148798094Y-113309284D02*
X149417141Y-113309284D01*
X72798096Y-113642618D02*
X72798096Y-112642618D01*
X72798096Y-113118808D02*
X73369524Y-113118808D01*
X73369524Y-113642618D02*
X73369524Y-112642618D01*
X73750477Y-112642618D02*
X74369524Y-112642618D01*
X74369524Y-112642618D02*
X74036191Y-113023570D01*
X74036191Y-113023570D02*
X74179048Y-113023570D01*
X74179048Y-113023570D02*
X74274286Y-113071189D01*
X74274286Y-113071189D02*
X74321905Y-113118808D01*
X74321905Y-113118808D02*
X74369524Y-113214046D01*
X74369524Y-113214046D02*
X74369524Y-113452141D01*
X74369524Y-113452141D02*
X74321905Y-113547379D01*
X74321905Y-113547379D02*
X74274286Y-113594999D01*
X74274286Y-113594999D02*
X74179048Y-113642618D01*
X74179048Y-113642618D02*
X73893334Y-113642618D01*
X73893334Y-113642618D02*
X73798096Y-113594999D01*
X73798096Y-113594999D02*
X73750477Y-113547379D01*
X147798094Y-63642620D02*
X147798094Y-62642620D01*
X147798094Y-63118810D02*
X148369522Y-63118810D01*
X148369522Y-63642620D02*
X148369522Y-62642620D01*
X148798094Y-62737858D02*
X148845713Y-62690239D01*
X148845713Y-62690239D02*
X148940951Y-62642620D01*
X148940951Y-62642620D02*
X149179046Y-62642620D01*
X149179046Y-62642620D02*
X149274284Y-62690239D01*
X149274284Y-62690239D02*
X149321903Y-62737858D01*
X149321903Y-62737858D02*
X149369522Y-62833096D01*
X149369522Y-62833096D02*
X149369522Y-62928334D01*
X149369522Y-62928334D02*
X149321903Y-63071191D01*
X149321903Y-63071191D02*
X148750475Y-63642620D01*
X148750475Y-63642620D02*
X149369522Y-63642620D01*
X72798093Y-63642619D02*
X72798093Y-62642619D01*
X72798093Y-63118809D02*
X73369521Y-63118809D01*
X73369521Y-63642619D02*
X73369521Y-62642619D01*
X74369521Y-63642619D02*
X73798093Y-63642619D01*
X74083807Y-63642619D02*
X74083807Y-62642619D01*
X74083807Y-62642619D02*
X73988569Y-62785476D01*
X73988569Y-62785476D02*
X73893331Y-62880714D01*
X73893331Y-62880714D02*
X73798093Y-62928333D01*
X125453333Y-83602619D02*
X125120000Y-83126428D01*
X124881905Y-83602619D02*
X124881905Y-82602619D01*
X124881905Y-82602619D02*
X125262857Y-82602619D01*
X125262857Y-82602619D02*
X125358095Y-82650238D01*
X125358095Y-82650238D02*
X125405714Y-82697857D01*
X125405714Y-82697857D02*
X125453333Y-82793095D01*
X125453333Y-82793095D02*
X125453333Y-82935952D01*
X125453333Y-82935952D02*
X125405714Y-83031190D01*
X125405714Y-83031190D02*
X125358095Y-83078809D01*
X125358095Y-83078809D02*
X125262857Y-83126428D01*
X125262857Y-83126428D02*
X124881905Y-83126428D01*
X126405714Y-83602619D02*
X125834286Y-83602619D01*
X126120000Y-83602619D02*
X126120000Y-82602619D01*
X126120000Y-82602619D02*
X126024762Y-82745476D01*
X126024762Y-82745476D02*
X125929524Y-82840714D01*
X125929524Y-82840714D02*
X125834286Y-82888333D01*
X71053333Y-96007380D02*
X71005714Y-96055000D01*
X71005714Y-96055000D02*
X70862857Y-96102619D01*
X70862857Y-96102619D02*
X70767619Y-96102619D01*
X70767619Y-96102619D02*
X70624762Y-96055000D01*
X70624762Y-96055000D02*
X70529524Y-95959761D01*
X70529524Y-95959761D02*
X70481905Y-95864523D01*
X70481905Y-95864523D02*
X70434286Y-95674047D01*
X70434286Y-95674047D02*
X70434286Y-95531190D01*
X70434286Y-95531190D02*
X70481905Y-95340714D01*
X70481905Y-95340714D02*
X70529524Y-95245476D01*
X70529524Y-95245476D02*
X70624762Y-95150238D01*
X70624762Y-95150238D02*
X70767619Y-95102619D01*
X70767619Y-95102619D02*
X70862857Y-95102619D01*
X70862857Y-95102619D02*
X71005714Y-95150238D01*
X71005714Y-95150238D02*
X71053333Y-95197857D01*
X71386667Y-95102619D02*
X72053333Y-95102619D01*
X72053333Y-95102619D02*
X71624762Y-96102619D01*
X117953333Y-86167380D02*
X117905714Y-86215000D01*
X117905714Y-86215000D02*
X117762857Y-86262619D01*
X117762857Y-86262619D02*
X117667619Y-86262619D01*
X117667619Y-86262619D02*
X117524762Y-86215000D01*
X117524762Y-86215000D02*
X117429524Y-86119761D01*
X117429524Y-86119761D02*
X117381905Y-86024523D01*
X117381905Y-86024523D02*
X117334286Y-85834047D01*
X117334286Y-85834047D02*
X117334286Y-85691190D01*
X117334286Y-85691190D02*
X117381905Y-85500714D01*
X117381905Y-85500714D02*
X117429524Y-85405476D01*
X117429524Y-85405476D02*
X117524762Y-85310238D01*
X117524762Y-85310238D02*
X117667619Y-85262619D01*
X117667619Y-85262619D02*
X117762857Y-85262619D01*
X117762857Y-85262619D02*
X117905714Y-85310238D01*
X117905714Y-85310238D02*
X117953333Y-85357857D01*
X118905714Y-86262619D02*
X118334286Y-86262619D01*
X118620000Y-86262619D02*
X118620000Y-85262619D01*
X118620000Y-85262619D02*
X118524762Y-85405476D01*
X118524762Y-85405476D02*
X118429524Y-85500714D01*
X118429524Y-85500714D02*
X118334286Y-85548333D01*
X84213333Y-82347380D02*
X84165714Y-82395000D01*
X84165714Y-82395000D02*
X84022857Y-82442619D01*
X84022857Y-82442619D02*
X83927619Y-82442619D01*
X83927619Y-82442619D02*
X83784762Y-82395000D01*
X83784762Y-82395000D02*
X83689524Y-82299761D01*
X83689524Y-82299761D02*
X83641905Y-82204523D01*
X83641905Y-82204523D02*
X83594286Y-82014047D01*
X83594286Y-82014047D02*
X83594286Y-81871190D01*
X83594286Y-81871190D02*
X83641905Y-81680714D01*
X83641905Y-81680714D02*
X83689524Y-81585476D01*
X83689524Y-81585476D02*
X83784762Y-81490238D01*
X83784762Y-81490238D02*
X83927619Y-81442619D01*
X83927619Y-81442619D02*
X84022857Y-81442619D01*
X84022857Y-81442619D02*
X84165714Y-81490238D01*
X84165714Y-81490238D02*
X84213333Y-81537857D01*
X85070476Y-81442619D02*
X84880000Y-81442619D01*
X84880000Y-81442619D02*
X84784762Y-81490238D01*
X84784762Y-81490238D02*
X84737143Y-81537857D01*
X84737143Y-81537857D02*
X84641905Y-81680714D01*
X84641905Y-81680714D02*
X84594286Y-81871190D01*
X84594286Y-81871190D02*
X84594286Y-82252142D01*
X84594286Y-82252142D02*
X84641905Y-82347380D01*
X84641905Y-82347380D02*
X84689524Y-82395000D01*
X84689524Y-82395000D02*
X84784762Y-82442619D01*
X84784762Y-82442619D02*
X84975238Y-82442619D01*
X84975238Y-82442619D02*
X85070476Y-82395000D01*
X85070476Y-82395000D02*
X85118095Y-82347380D01*
X85118095Y-82347380D02*
X85165714Y-82252142D01*
X85165714Y-82252142D02*
X85165714Y-82014047D01*
X85165714Y-82014047D02*
X85118095Y-81918809D01*
X85118095Y-81918809D02*
X85070476Y-81871190D01*
X85070476Y-81871190D02*
X84975238Y-81823571D01*
X84975238Y-81823571D02*
X84784762Y-81823571D01*
X84784762Y-81823571D02*
X84689524Y-81871190D01*
X84689524Y-81871190D02*
X84641905Y-81918809D01*
X84641905Y-81918809D02*
X84594286Y-82014047D01*
X102953333Y-86167380D02*
X102905714Y-86215000D01*
X102905714Y-86215000D02*
X102762857Y-86262619D01*
X102762857Y-86262619D02*
X102667619Y-86262619D01*
X102667619Y-86262619D02*
X102524762Y-86215000D01*
X102524762Y-86215000D02*
X102429524Y-86119761D01*
X102429524Y-86119761D02*
X102381905Y-86024523D01*
X102381905Y-86024523D02*
X102334286Y-85834047D01*
X102334286Y-85834047D02*
X102334286Y-85691190D01*
X102334286Y-85691190D02*
X102381905Y-85500714D01*
X102381905Y-85500714D02*
X102429524Y-85405476D01*
X102429524Y-85405476D02*
X102524762Y-85310238D01*
X102524762Y-85310238D02*
X102667619Y-85262619D01*
X102667619Y-85262619D02*
X102762857Y-85262619D01*
X102762857Y-85262619D02*
X102905714Y-85310238D01*
X102905714Y-85310238D02*
X102953333Y-85357857D01*
X103334286Y-85357857D02*
X103381905Y-85310238D01*
X103381905Y-85310238D02*
X103477143Y-85262619D01*
X103477143Y-85262619D02*
X103715238Y-85262619D01*
X103715238Y-85262619D02*
X103810476Y-85310238D01*
X103810476Y-85310238D02*
X103858095Y-85357857D01*
X103858095Y-85357857D02*
X103905714Y-85453095D01*
X103905714Y-85453095D02*
X103905714Y-85548333D01*
X103905714Y-85548333D02*
X103858095Y-85691190D01*
X103858095Y-85691190D02*
X103286667Y-86262619D01*
X103286667Y-86262619D02*
X103905714Y-86262619D01*
X110024761Y-91492619D02*
X109691428Y-91016428D01*
X109453333Y-91492619D02*
X109453333Y-90492619D01*
X109453333Y-90492619D02*
X109834285Y-90492619D01*
X109834285Y-90492619D02*
X109929523Y-90540238D01*
X109929523Y-90540238D02*
X109977142Y-90587857D01*
X109977142Y-90587857D02*
X110024761Y-90683095D01*
X110024761Y-90683095D02*
X110024761Y-90825952D01*
X110024761Y-90825952D02*
X109977142Y-90921190D01*
X109977142Y-90921190D02*
X109929523Y-90968809D01*
X109929523Y-90968809D02*
X109834285Y-91016428D01*
X109834285Y-91016428D02*
X109453333Y-91016428D01*
X110310476Y-90492619D02*
X110643809Y-91492619D01*
X110643809Y-91492619D02*
X110977142Y-90492619D01*
X111834285Y-91492619D02*
X111262857Y-91492619D01*
X111548571Y-91492619D02*
X111548571Y-90492619D01*
X111548571Y-90492619D02*
X111453333Y-90635476D01*
X111453333Y-90635476D02*
X111358095Y-90730714D01*
X111358095Y-90730714D02*
X111262857Y-90778333D01*
X129453333Y-83602619D02*
X129120000Y-83126428D01*
X128881905Y-83602619D02*
X128881905Y-82602619D01*
X128881905Y-82602619D02*
X129262857Y-82602619D01*
X129262857Y-82602619D02*
X129358095Y-82650238D01*
X129358095Y-82650238D02*
X129405714Y-82697857D01*
X129405714Y-82697857D02*
X129453333Y-82793095D01*
X129453333Y-82793095D02*
X129453333Y-82935952D01*
X129453333Y-82935952D02*
X129405714Y-83031190D01*
X129405714Y-83031190D02*
X129358095Y-83078809D01*
X129358095Y-83078809D02*
X129262857Y-83126428D01*
X129262857Y-83126428D02*
X128881905Y-83126428D01*
X129834286Y-82697857D02*
X129881905Y-82650238D01*
X129881905Y-82650238D02*
X129977143Y-82602619D01*
X129977143Y-82602619D02*
X130215238Y-82602619D01*
X130215238Y-82602619D02*
X130310476Y-82650238D01*
X130310476Y-82650238D02*
X130358095Y-82697857D01*
X130358095Y-82697857D02*
X130405714Y-82793095D01*
X130405714Y-82793095D02*
X130405714Y-82888333D01*
X130405714Y-82888333D02*
X130358095Y-83031190D01*
X130358095Y-83031190D02*
X129786667Y-83602619D01*
X129786667Y-83602619D02*
X130405714Y-83602619D01*
X145153333Y-89952619D02*
X144820000Y-89476428D01*
X144581905Y-89952619D02*
X144581905Y-88952619D01*
X144581905Y-88952619D02*
X144962857Y-88952619D01*
X144962857Y-88952619D02*
X145058095Y-89000238D01*
X145058095Y-89000238D02*
X145105714Y-89047857D01*
X145105714Y-89047857D02*
X145153333Y-89143095D01*
X145153333Y-89143095D02*
X145153333Y-89285952D01*
X145153333Y-89285952D02*
X145105714Y-89381190D01*
X145105714Y-89381190D02*
X145058095Y-89428809D01*
X145058095Y-89428809D02*
X144962857Y-89476428D01*
X144962857Y-89476428D02*
X144581905Y-89476428D01*
X146010476Y-88952619D02*
X145820000Y-88952619D01*
X145820000Y-88952619D02*
X145724762Y-89000238D01*
X145724762Y-89000238D02*
X145677143Y-89047857D01*
X145677143Y-89047857D02*
X145581905Y-89190714D01*
X145581905Y-89190714D02*
X145534286Y-89381190D01*
X145534286Y-89381190D02*
X145534286Y-89762142D01*
X145534286Y-89762142D02*
X145581905Y-89857380D01*
X145581905Y-89857380D02*
X145629524Y-89905000D01*
X145629524Y-89905000D02*
X145724762Y-89952619D01*
X145724762Y-89952619D02*
X145915238Y-89952619D01*
X145915238Y-89952619D02*
X146010476Y-89905000D01*
X146010476Y-89905000D02*
X146058095Y-89857380D01*
X146058095Y-89857380D02*
X146105714Y-89762142D01*
X146105714Y-89762142D02*
X146105714Y-89524047D01*
X146105714Y-89524047D02*
X146058095Y-89428809D01*
X146058095Y-89428809D02*
X146010476Y-89381190D01*
X146010476Y-89381190D02*
X145915238Y-89333571D01*
X145915238Y-89333571D02*
X145724762Y-89333571D01*
X145724762Y-89333571D02*
X145629524Y-89381190D01*
X145629524Y-89381190D02*
X145581905Y-89428809D01*
X145581905Y-89428809D02*
X145534286Y-89524047D01*
X126913333Y-101287380D02*
X126865714Y-101335000D01*
X126865714Y-101335000D02*
X126722857Y-101382619D01*
X126722857Y-101382619D02*
X126627619Y-101382619D01*
X126627619Y-101382619D02*
X126484762Y-101335000D01*
X126484762Y-101335000D02*
X126389524Y-101239761D01*
X126389524Y-101239761D02*
X126341905Y-101144523D01*
X126341905Y-101144523D02*
X126294286Y-100954047D01*
X126294286Y-100954047D02*
X126294286Y-100811190D01*
X126294286Y-100811190D02*
X126341905Y-100620714D01*
X126341905Y-100620714D02*
X126389524Y-100525476D01*
X126389524Y-100525476D02*
X126484762Y-100430238D01*
X126484762Y-100430238D02*
X126627619Y-100382619D01*
X126627619Y-100382619D02*
X126722857Y-100382619D01*
X126722857Y-100382619D02*
X126865714Y-100430238D01*
X126865714Y-100430238D02*
X126913333Y-100477857D01*
X127818095Y-100382619D02*
X127341905Y-100382619D01*
X127341905Y-100382619D02*
X127294286Y-100858809D01*
X127294286Y-100858809D02*
X127341905Y-100811190D01*
X127341905Y-100811190D02*
X127437143Y-100763571D01*
X127437143Y-100763571D02*
X127675238Y-100763571D01*
X127675238Y-100763571D02*
X127770476Y-100811190D01*
X127770476Y-100811190D02*
X127818095Y-100858809D01*
X127818095Y-100858809D02*
X127865714Y-100954047D01*
X127865714Y-100954047D02*
X127865714Y-101192142D01*
X127865714Y-101192142D02*
X127818095Y-101287380D01*
X127818095Y-101287380D02*
X127770476Y-101335000D01*
X127770476Y-101335000D02*
X127675238Y-101382619D01*
X127675238Y-101382619D02*
X127437143Y-101382619D01*
X127437143Y-101382619D02*
X127341905Y-101335000D01*
X127341905Y-101335000D02*
X127294286Y-101287380D01*
X76044761Y-105157619D02*
X75711428Y-104681428D01*
X75473333Y-105157619D02*
X75473333Y-104157619D01*
X75473333Y-104157619D02*
X75854285Y-104157619D01*
X75854285Y-104157619D02*
X75949523Y-104205238D01*
X75949523Y-104205238D02*
X75997142Y-104252857D01*
X75997142Y-104252857D02*
X76044761Y-104348095D01*
X76044761Y-104348095D02*
X76044761Y-104490952D01*
X76044761Y-104490952D02*
X75997142Y-104586190D01*
X75997142Y-104586190D02*
X75949523Y-104633809D01*
X75949523Y-104633809D02*
X75854285Y-104681428D01*
X75854285Y-104681428D02*
X75473333Y-104681428D01*
X76330476Y-104157619D02*
X76663809Y-105157619D01*
X76663809Y-105157619D02*
X76997142Y-104157619D01*
X77282857Y-104252857D02*
X77330476Y-104205238D01*
X77330476Y-104205238D02*
X77425714Y-104157619D01*
X77425714Y-104157619D02*
X77663809Y-104157619D01*
X77663809Y-104157619D02*
X77759047Y-104205238D01*
X77759047Y-104205238D02*
X77806666Y-104252857D01*
X77806666Y-104252857D02*
X77854285Y-104348095D01*
X77854285Y-104348095D02*
X77854285Y-104443333D01*
X77854285Y-104443333D02*
X77806666Y-104586190D01*
X77806666Y-104586190D02*
X77235238Y-105157619D01*
X77235238Y-105157619D02*
X77854285Y-105157619D01*
X140533333Y-109462619D02*
X140200000Y-108986428D01*
X139961905Y-109462619D02*
X139961905Y-108462619D01*
X139961905Y-108462619D02*
X140342857Y-108462619D01*
X140342857Y-108462619D02*
X140438095Y-108510238D01*
X140438095Y-108510238D02*
X140485714Y-108557857D01*
X140485714Y-108557857D02*
X140533333Y-108653095D01*
X140533333Y-108653095D02*
X140533333Y-108795952D01*
X140533333Y-108795952D02*
X140485714Y-108891190D01*
X140485714Y-108891190D02*
X140438095Y-108938809D01*
X140438095Y-108938809D02*
X140342857Y-108986428D01*
X140342857Y-108986428D02*
X139961905Y-108986428D01*
X141390476Y-108795952D02*
X141390476Y-109462619D01*
X141152381Y-108415000D02*
X140914286Y-109129285D01*
X140914286Y-109129285D02*
X141533333Y-109129285D01*
X131858095Y-102922619D02*
X131858095Y-103732142D01*
X131858095Y-103732142D02*
X131905714Y-103827380D01*
X131905714Y-103827380D02*
X131953333Y-103875000D01*
X131953333Y-103875000D02*
X132048571Y-103922619D01*
X132048571Y-103922619D02*
X132239047Y-103922619D01*
X132239047Y-103922619D02*
X132334285Y-103875000D01*
X132334285Y-103875000D02*
X132381904Y-103827380D01*
X132381904Y-103827380D02*
X132429523Y-103732142D01*
X132429523Y-103732142D02*
X132429523Y-102922619D01*
X132858095Y-103017857D02*
X132905714Y-102970238D01*
X132905714Y-102970238D02*
X133000952Y-102922619D01*
X133000952Y-102922619D02*
X133239047Y-102922619D01*
X133239047Y-102922619D02*
X133334285Y-102970238D01*
X133334285Y-102970238D02*
X133381904Y-103017857D01*
X133381904Y-103017857D02*
X133429523Y-103113095D01*
X133429523Y-103113095D02*
X133429523Y-103208333D01*
X133429523Y-103208333D02*
X133381904Y-103351190D01*
X133381904Y-103351190D02*
X132810476Y-103922619D01*
X132810476Y-103922619D02*
X133429523Y-103922619D01*
X96913333Y-93562619D02*
X96580000Y-93086428D01*
X96341905Y-93562619D02*
X96341905Y-92562619D01*
X96341905Y-92562619D02*
X96722857Y-92562619D01*
X96722857Y-92562619D02*
X96818095Y-92610238D01*
X96818095Y-92610238D02*
X96865714Y-92657857D01*
X96865714Y-92657857D02*
X96913333Y-92753095D01*
X96913333Y-92753095D02*
X96913333Y-92895952D01*
X96913333Y-92895952D02*
X96865714Y-92991190D01*
X96865714Y-92991190D02*
X96818095Y-93038809D01*
X96818095Y-93038809D02*
X96722857Y-93086428D01*
X96722857Y-93086428D02*
X96341905Y-93086428D01*
X97484762Y-92991190D02*
X97389524Y-92943571D01*
X97389524Y-92943571D02*
X97341905Y-92895952D01*
X97341905Y-92895952D02*
X97294286Y-92800714D01*
X97294286Y-92800714D02*
X97294286Y-92753095D01*
X97294286Y-92753095D02*
X97341905Y-92657857D01*
X97341905Y-92657857D02*
X97389524Y-92610238D01*
X97389524Y-92610238D02*
X97484762Y-92562619D01*
X97484762Y-92562619D02*
X97675238Y-92562619D01*
X97675238Y-92562619D02*
X97770476Y-92610238D01*
X97770476Y-92610238D02*
X97818095Y-92657857D01*
X97818095Y-92657857D02*
X97865714Y-92753095D01*
X97865714Y-92753095D02*
X97865714Y-92800714D01*
X97865714Y-92800714D02*
X97818095Y-92895952D01*
X97818095Y-92895952D02*
X97770476Y-92943571D01*
X97770476Y-92943571D02*
X97675238Y-92991190D01*
X97675238Y-92991190D02*
X97484762Y-92991190D01*
X97484762Y-92991190D02*
X97389524Y-93038809D01*
X97389524Y-93038809D02*
X97341905Y-93086428D01*
X97341905Y-93086428D02*
X97294286Y-93181666D01*
X97294286Y-93181666D02*
X97294286Y-93372142D01*
X97294286Y-93372142D02*
X97341905Y-93467380D01*
X97341905Y-93467380D02*
X97389524Y-93515000D01*
X97389524Y-93515000D02*
X97484762Y-93562619D01*
X97484762Y-93562619D02*
X97675238Y-93562619D01*
X97675238Y-93562619D02*
X97770476Y-93515000D01*
X97770476Y-93515000D02*
X97818095Y-93467380D01*
X97818095Y-93467380D02*
X97865714Y-93372142D01*
X97865714Y-93372142D02*
X97865714Y-93181666D01*
X97865714Y-93181666D02*
X97818095Y-93086428D01*
X97818095Y-93086428D02*
X97770476Y-93038809D01*
X97770476Y-93038809D02*
X97675238Y-92991190D01*
X149613333Y-99302619D02*
X149280000Y-98826428D01*
X149041905Y-99302619D02*
X149041905Y-98302619D01*
X149041905Y-98302619D02*
X149422857Y-98302619D01*
X149422857Y-98302619D02*
X149518095Y-98350238D01*
X149518095Y-98350238D02*
X149565714Y-98397857D01*
X149565714Y-98397857D02*
X149613333Y-98493095D01*
X149613333Y-98493095D02*
X149613333Y-98635952D01*
X149613333Y-98635952D02*
X149565714Y-98731190D01*
X149565714Y-98731190D02*
X149518095Y-98778809D01*
X149518095Y-98778809D02*
X149422857Y-98826428D01*
X149422857Y-98826428D02*
X149041905Y-98826428D01*
X150518095Y-98302619D02*
X150041905Y-98302619D01*
X150041905Y-98302619D02*
X149994286Y-98778809D01*
X149994286Y-98778809D02*
X150041905Y-98731190D01*
X150041905Y-98731190D02*
X150137143Y-98683571D01*
X150137143Y-98683571D02*
X150375238Y-98683571D01*
X150375238Y-98683571D02*
X150470476Y-98731190D01*
X150470476Y-98731190D02*
X150518095Y-98778809D01*
X150518095Y-98778809D02*
X150565714Y-98874047D01*
X150565714Y-98874047D02*
X150565714Y-99112142D01*
X150565714Y-99112142D02*
X150518095Y-99207380D01*
X150518095Y-99207380D02*
X150470476Y-99255000D01*
X150470476Y-99255000D02*
X150375238Y-99302619D01*
X150375238Y-99302619D02*
X150137143Y-99302619D01*
X150137143Y-99302619D02*
X150041905Y-99255000D01*
X150041905Y-99255000D02*
X149994286Y-99207380D01*
X96913333Y-98642619D02*
X96580000Y-98166428D01*
X96341905Y-98642619D02*
X96341905Y-97642619D01*
X96341905Y-97642619D02*
X96722857Y-97642619D01*
X96722857Y-97642619D02*
X96818095Y-97690238D01*
X96818095Y-97690238D02*
X96865714Y-97737857D01*
X96865714Y-97737857D02*
X96913333Y-97833095D01*
X96913333Y-97833095D02*
X96913333Y-97975952D01*
X96913333Y-97975952D02*
X96865714Y-98071190D01*
X96865714Y-98071190D02*
X96818095Y-98118809D01*
X96818095Y-98118809D02*
X96722857Y-98166428D01*
X96722857Y-98166428D02*
X96341905Y-98166428D01*
X97389524Y-98642619D02*
X97580000Y-98642619D01*
X97580000Y-98642619D02*
X97675238Y-98595000D01*
X97675238Y-98595000D02*
X97722857Y-98547380D01*
X97722857Y-98547380D02*
X97818095Y-98404523D01*
X97818095Y-98404523D02*
X97865714Y-98214047D01*
X97865714Y-98214047D02*
X97865714Y-97833095D01*
X97865714Y-97833095D02*
X97818095Y-97737857D01*
X97818095Y-97737857D02*
X97770476Y-97690238D01*
X97770476Y-97690238D02*
X97675238Y-97642619D01*
X97675238Y-97642619D02*
X97484762Y-97642619D01*
X97484762Y-97642619D02*
X97389524Y-97690238D01*
X97389524Y-97690238D02*
X97341905Y-97737857D01*
X97341905Y-97737857D02*
X97294286Y-97833095D01*
X97294286Y-97833095D02*
X97294286Y-98071190D01*
X97294286Y-98071190D02*
X97341905Y-98166428D01*
X97341905Y-98166428D02*
X97389524Y-98214047D01*
X97389524Y-98214047D02*
X97484762Y-98261666D01*
X97484762Y-98261666D02*
X97675238Y-98261666D01*
X97675238Y-98261666D02*
X97770476Y-98214047D01*
X97770476Y-98214047D02*
X97818095Y-98166428D01*
X97818095Y-98166428D02*
X97865714Y-98071190D01*
X87963333Y-104957380D02*
X87915714Y-105005000D01*
X87915714Y-105005000D02*
X87772857Y-105052619D01*
X87772857Y-105052619D02*
X87677619Y-105052619D01*
X87677619Y-105052619D02*
X87534762Y-105005000D01*
X87534762Y-105005000D02*
X87439524Y-104909761D01*
X87439524Y-104909761D02*
X87391905Y-104814523D01*
X87391905Y-104814523D02*
X87344286Y-104624047D01*
X87344286Y-104624047D02*
X87344286Y-104481190D01*
X87344286Y-104481190D02*
X87391905Y-104290714D01*
X87391905Y-104290714D02*
X87439524Y-104195476D01*
X87439524Y-104195476D02*
X87534762Y-104100238D01*
X87534762Y-104100238D02*
X87677619Y-104052619D01*
X87677619Y-104052619D02*
X87772857Y-104052619D01*
X87772857Y-104052619D02*
X87915714Y-104100238D01*
X87915714Y-104100238D02*
X87963333Y-104147857D01*
X88296667Y-104052619D02*
X88915714Y-104052619D01*
X88915714Y-104052619D02*
X88582381Y-104433571D01*
X88582381Y-104433571D02*
X88725238Y-104433571D01*
X88725238Y-104433571D02*
X88820476Y-104481190D01*
X88820476Y-104481190D02*
X88868095Y-104528809D01*
X88868095Y-104528809D02*
X88915714Y-104624047D01*
X88915714Y-104624047D02*
X88915714Y-104862142D01*
X88915714Y-104862142D02*
X88868095Y-104957380D01*
X88868095Y-104957380D02*
X88820476Y-105005000D01*
X88820476Y-105005000D02*
X88725238Y-105052619D01*
X88725238Y-105052619D02*
X88439524Y-105052619D01*
X88439524Y-105052619D02*
X88344286Y-105005000D01*
X88344286Y-105005000D02*
X88296667Y-104957380D01*
X96913333Y-87522619D02*
X96580000Y-87046428D01*
X96341905Y-87522619D02*
X96341905Y-86522619D01*
X96341905Y-86522619D02*
X96722857Y-86522619D01*
X96722857Y-86522619D02*
X96818095Y-86570238D01*
X96818095Y-86570238D02*
X96865714Y-86617857D01*
X96865714Y-86617857D02*
X96913333Y-86713095D01*
X96913333Y-86713095D02*
X96913333Y-86855952D01*
X96913333Y-86855952D02*
X96865714Y-86951190D01*
X96865714Y-86951190D02*
X96818095Y-86998809D01*
X96818095Y-86998809D02*
X96722857Y-87046428D01*
X96722857Y-87046428D02*
X96341905Y-87046428D01*
X97246667Y-86522619D02*
X97913333Y-86522619D01*
X97913333Y-86522619D02*
X97484762Y-87522619D01*
X145613333Y-93667380D02*
X145565714Y-93715000D01*
X145565714Y-93715000D02*
X145422857Y-93762619D01*
X145422857Y-93762619D02*
X145327619Y-93762619D01*
X145327619Y-93762619D02*
X145184762Y-93715000D01*
X145184762Y-93715000D02*
X145089524Y-93619761D01*
X145089524Y-93619761D02*
X145041905Y-93524523D01*
X145041905Y-93524523D02*
X144994286Y-93334047D01*
X144994286Y-93334047D02*
X144994286Y-93191190D01*
X144994286Y-93191190D02*
X145041905Y-93000714D01*
X145041905Y-93000714D02*
X145089524Y-92905476D01*
X145089524Y-92905476D02*
X145184762Y-92810238D01*
X145184762Y-92810238D02*
X145327619Y-92762619D01*
X145327619Y-92762619D02*
X145422857Y-92762619D01*
X145422857Y-92762619D02*
X145565714Y-92810238D01*
X145565714Y-92810238D02*
X145613333Y-92857857D01*
X146470476Y-93095952D02*
X146470476Y-93762619D01*
X146232381Y-92715000D02*
X145994286Y-93429285D01*
X145994286Y-93429285D02*
X146613333Y-93429285D01*
X145153333Y-86142619D02*
X144820000Y-85666428D01*
X144581905Y-86142619D02*
X144581905Y-85142619D01*
X144581905Y-85142619D02*
X144962857Y-85142619D01*
X144962857Y-85142619D02*
X145058095Y-85190238D01*
X145058095Y-85190238D02*
X145105714Y-85237857D01*
X145105714Y-85237857D02*
X145153333Y-85333095D01*
X145153333Y-85333095D02*
X145153333Y-85475952D01*
X145153333Y-85475952D02*
X145105714Y-85571190D01*
X145105714Y-85571190D02*
X145058095Y-85618809D01*
X145058095Y-85618809D02*
X144962857Y-85666428D01*
X144962857Y-85666428D02*
X144581905Y-85666428D01*
X145486667Y-85142619D02*
X146105714Y-85142619D01*
X146105714Y-85142619D02*
X145772381Y-85523571D01*
X145772381Y-85523571D02*
X145915238Y-85523571D01*
X145915238Y-85523571D02*
X146010476Y-85571190D01*
X146010476Y-85571190D02*
X146058095Y-85618809D01*
X146058095Y-85618809D02*
X146105714Y-85714047D01*
X146105714Y-85714047D02*
X146105714Y-85952142D01*
X146105714Y-85952142D02*
X146058095Y-86047380D01*
X146058095Y-86047380D02*
X146010476Y-86095000D01*
X146010476Y-86095000D02*
X145915238Y-86142619D01*
X145915238Y-86142619D02*
X145629524Y-86142619D01*
X145629524Y-86142619D02*
X145534286Y-86095000D01*
X145534286Y-86095000D02*
X145486667Y-86047380D01*
X75998095Y-84942619D02*
X75998095Y-85752142D01*
X75998095Y-85752142D02*
X76045714Y-85847380D01*
X76045714Y-85847380D02*
X76093333Y-85895000D01*
X76093333Y-85895000D02*
X76188571Y-85942619D01*
X76188571Y-85942619D02*
X76379047Y-85942619D01*
X76379047Y-85942619D02*
X76474285Y-85895000D01*
X76474285Y-85895000D02*
X76521904Y-85847380D01*
X76521904Y-85847380D02*
X76569523Y-85752142D01*
X76569523Y-85752142D02*
X76569523Y-84942619D01*
X77569523Y-85942619D02*
X76998095Y-85942619D01*
X77283809Y-85942619D02*
X77283809Y-84942619D01*
X77283809Y-84942619D02*
X77188571Y-85085476D01*
X77188571Y-85085476D02*
X77093333Y-85180714D01*
X77093333Y-85180714D02*
X76998095Y-85228333D01*
D12*
X111370000Y-115540000D02*
X111370000Y-103540000D01*
X123370000Y-115540000D02*
X111370000Y-115540000D01*
X123370000Y-103540000D02*
X123370000Y-115540000D01*
X111370000Y-103540000D02*
X123370000Y-103540000D01*
X96370000Y-115540000D02*
X96370000Y-103540000D01*
X108370000Y-115540000D02*
X96370000Y-115540000D01*
X108370000Y-103540000D02*
X108370000Y-115540000D01*
X96370000Y-103540000D02*
X108370000Y-103540000D01*
D13*
X124731000Y-93935000D02*
X124350000Y-93554000D01*
X125620000Y-93935000D02*
X125620000Y-94824000D01*
X126509000Y-93935000D02*
X124731000Y-93935000D01*
X126509000Y-93935000D02*
X126890000Y-93554000D01*
X124350000Y-93554000D02*
X124350000Y-92157000D01*
X126890000Y-93554000D02*
X126890000Y-92157000D01*
X124350000Y-92157000D02*
X124477000Y-92030000D01*
X126890000Y-92157000D02*
X126763000Y-92030000D01*
X124477000Y-92030000D02*
X124477000Y-90760000D01*
X126763000Y-92030000D02*
X126763000Y-90760000D01*
X124477000Y-89490000D02*
X124477000Y-90760000D01*
X126763000Y-89490000D02*
X126763000Y-90760000D01*
X124350000Y-89363000D02*
X124477000Y-89490000D01*
X126890000Y-89363000D02*
X126763000Y-89490000D01*
X124350000Y-87966000D02*
X124350000Y-89363000D01*
X126890000Y-87966000D02*
X126890000Y-89363000D01*
X124731000Y-87585000D02*
X124350000Y-87966000D01*
X125620000Y-87585000D02*
X125620000Y-86696000D01*
X126509000Y-87585000D02*
X126890000Y-87966000D01*
X126509000Y-87585000D02*
X124731000Y-87585000D01*
X74555000Y-92370000D02*
X75180000Y-92370000D01*
X72340000Y-92370000D02*
X72965000Y-92370000D01*
X75180000Y-96410000D02*
X75180000Y-92370000D01*
X74555000Y-96410000D02*
X75180000Y-96410000D01*
X72340000Y-96410000D02*
X72340000Y-92370000D01*
X72340000Y-96410000D02*
X72965000Y-96410000D01*
X119376000Y-88220000D02*
X120740000Y-88220000D01*
X115500000Y-88220000D02*
X116864000Y-88220000D01*
X120740000Y-95960000D02*
X120740000Y-88220000D01*
X119376000Y-95960000D02*
X120740000Y-95960000D01*
X115500000Y-95960000D02*
X115500000Y-88220000D01*
X115500000Y-95960000D02*
X116864000Y-95960000D01*
D12*
X103870000Y-69860000D02*
X115870000Y-69860000D01*
X103870000Y-81860000D02*
X103870000Y-69860000D01*
X115870000Y-69860000D02*
X115870000Y-81860000D01*
X115870000Y-81860000D02*
X103870000Y-81860000D01*
D13*
X85150000Y-85940000D02*
X85150000Y-85315000D01*
X85150000Y-85940000D02*
X81110000Y-85940000D01*
X85150000Y-83725000D02*
X85150000Y-83100000D01*
X85150000Y-83100000D02*
X81110000Y-83100000D01*
X81110000Y-85940000D02*
X81110000Y-85315000D01*
X81110000Y-83725000D02*
X81110000Y-83100000D01*
X104376000Y-88220000D02*
X105740000Y-88220000D01*
X100500000Y-88220000D02*
X101864000Y-88220000D01*
X105740000Y-95960000D02*
X105740000Y-88220000D01*
X104376000Y-95960000D02*
X105740000Y-95960000D01*
X100500000Y-95960000D02*
X100500000Y-88220000D01*
X100500000Y-95960000D02*
X101864000Y-95960000D01*
X114095000Y-93795000D02*
X114095000Y-96900000D01*
X114095000Y-92160000D02*
X114095000Y-92805000D01*
X107145000Y-96900000D02*
X114095000Y-96900000D01*
X107145000Y-93795000D02*
X107145000Y-96900000D01*
X107145000Y-92160000D02*
X114095000Y-92160000D01*
X107145000Y-92160000D02*
X107145000Y-92805000D01*
X128731000Y-93935000D02*
X128350000Y-93554000D01*
X129620000Y-93935000D02*
X129620000Y-94824000D01*
X130509000Y-93935000D02*
X128731000Y-93935000D01*
X130509000Y-93935000D02*
X130890000Y-93554000D01*
X128350000Y-93554000D02*
X128350000Y-92157000D01*
X130890000Y-93554000D02*
X130890000Y-92157000D01*
X128350000Y-92157000D02*
X128477000Y-92030000D01*
X130890000Y-92157000D02*
X130763000Y-92030000D01*
X128477000Y-92030000D02*
X128477000Y-90760000D01*
X130763000Y-92030000D02*
X130763000Y-90760000D01*
X128477000Y-89490000D02*
X128477000Y-90760000D01*
X130763000Y-89490000D02*
X130763000Y-90760000D01*
X128350000Y-89363000D02*
X128477000Y-89490000D01*
X130890000Y-89363000D02*
X130763000Y-89490000D01*
X128350000Y-87966000D02*
X128350000Y-89363000D01*
X130890000Y-87966000D02*
X130890000Y-89363000D01*
X128731000Y-87585000D02*
X128350000Y-87966000D01*
X129620000Y-87585000D02*
X129620000Y-86696000D01*
X130509000Y-87585000D02*
X130890000Y-87966000D01*
X130509000Y-87585000D02*
X128731000Y-87585000D01*
X140875000Y-90379000D02*
X140494000Y-90760000D01*
X140875000Y-89490000D02*
X141764000Y-89490000D01*
X140875000Y-88601000D02*
X140875000Y-90379000D01*
X140875000Y-88601000D02*
X140494000Y-88220000D01*
X140494000Y-90760000D02*
X139097000Y-90760000D01*
X140494000Y-88220000D02*
X139097000Y-88220000D01*
X139097000Y-90760000D02*
X138970000Y-90633000D01*
X139097000Y-88220000D02*
X138970000Y-88347000D01*
X138970000Y-90633000D02*
X137700000Y-90633000D01*
X138970000Y-88347000D02*
X137700000Y-88347000D01*
X136430000Y-90633000D02*
X137700000Y-90633000D01*
X136430000Y-88347000D02*
X137700000Y-88347000D01*
X136303000Y-90760000D02*
X136430000Y-90633000D01*
X136303000Y-88220000D02*
X136430000Y-88347000D01*
X134906000Y-90760000D02*
X136303000Y-90760000D01*
X134906000Y-88220000D02*
X136303000Y-88220000D01*
X134525000Y-90379000D02*
X134906000Y-90760000D01*
X134525000Y-89490000D02*
X133636000Y-89490000D01*
X134525000Y-88601000D02*
X134906000Y-88220000D01*
X134525000Y-88601000D02*
X134525000Y-90379000D01*
X130415000Y-97650000D02*
X131040000Y-97650000D01*
X128200000Y-97650000D02*
X128825000Y-97650000D01*
X131040000Y-101690000D02*
X131040000Y-97650000D01*
X130415000Y-101690000D02*
X131040000Y-101690000D01*
X128200000Y-101690000D02*
X128200000Y-97650000D01*
X128200000Y-101690000D02*
X128825000Y-101690000D01*
X80115000Y-100110000D02*
X80115000Y-103215000D01*
X80115000Y-98475000D02*
X80115000Y-99120000D01*
X73165000Y-103215000D02*
X80115000Y-103215000D01*
X73165000Y-100110000D02*
X73165000Y-103215000D01*
X73165000Y-98475000D02*
X80115000Y-98475000D01*
X73165000Y-98475000D02*
X73165000Y-99120000D01*
X144129000Y-100745000D02*
X144510000Y-101126000D01*
X143240000Y-100745000D02*
X143240000Y-99856000D01*
X142351000Y-100745000D02*
X144129000Y-100745000D01*
X142351000Y-100745000D02*
X141970000Y-101126000D01*
X144510000Y-101126000D02*
X144510000Y-102523000D01*
X141970000Y-101126000D02*
X141970000Y-102523000D01*
X144510000Y-102523000D02*
X144383000Y-102650000D01*
X141970000Y-102523000D02*
X142097000Y-102650000D01*
X144383000Y-102650000D02*
X144383000Y-103920000D01*
X142097000Y-102650000D02*
X142097000Y-103920000D01*
X144383000Y-105190000D02*
X144383000Y-103920000D01*
X142097000Y-105190000D02*
X142097000Y-103920000D01*
X144510000Y-105317000D02*
X144383000Y-105190000D01*
X141970000Y-105317000D02*
X142097000Y-105190000D01*
X144510000Y-106714000D02*
X144510000Y-105317000D01*
X141970000Y-106714000D02*
X141970000Y-105317000D01*
X144129000Y-107095000D02*
X144510000Y-106714000D01*
X143240000Y-107095000D02*
X143240000Y-107984000D01*
X142351000Y-107095000D02*
X141970000Y-106714000D01*
X142351000Y-107095000D02*
X144129000Y-107095000D01*
X135430000Y-91970000D02*
G75*
G03*
X137430000Y-91970000I1000000J0D01*
G01*
X139080000Y-102250000D02*
X139080000Y-91970000D01*
X139080000Y-91970000D02*
X137430000Y-91970000D01*
X135430000Y-91970000D02*
X133780000Y-91970000D01*
X133780000Y-102250000D02*
X139080000Y-102250000D01*
X133780000Y-91970000D02*
X133780000Y-102250000D01*
X95175000Y-91449000D02*
X94794000Y-91830000D01*
X95175000Y-90560000D02*
X96064000Y-90560000D01*
X95175000Y-89671000D02*
X95175000Y-91449000D01*
X95175000Y-89671000D02*
X94794000Y-89290000D01*
X94794000Y-91830000D02*
X93397000Y-91830000D01*
X94794000Y-89290000D02*
X93397000Y-89290000D01*
X93397000Y-91830000D02*
X93270000Y-91703000D01*
X93397000Y-89290000D02*
X93270000Y-89417000D01*
X93270000Y-91703000D02*
X92000000Y-91703000D01*
X93270000Y-89417000D02*
X92000000Y-89417000D01*
X90730000Y-91703000D02*
X92000000Y-91703000D01*
X90730000Y-89417000D02*
X92000000Y-89417000D01*
X90603000Y-91830000D02*
X90730000Y-91703000D01*
X90603000Y-89290000D02*
X90730000Y-89417000D01*
X89206000Y-91830000D02*
X90603000Y-91830000D01*
X89206000Y-89290000D02*
X90603000Y-89290000D01*
X88825000Y-91449000D02*
X89206000Y-91830000D01*
X88825000Y-90560000D02*
X87936000Y-90560000D01*
X88825000Y-89671000D02*
X89206000Y-89290000D01*
X88825000Y-89671000D02*
X88825000Y-91449000D01*
X148129000Y-100745000D02*
X148510000Y-101126000D01*
X147240000Y-100745000D02*
X147240000Y-99856000D01*
X146351000Y-100745000D02*
X148129000Y-100745000D01*
X146351000Y-100745000D02*
X145970000Y-101126000D01*
X148510000Y-101126000D02*
X148510000Y-102523000D01*
X145970000Y-101126000D02*
X145970000Y-102523000D01*
X148510000Y-102523000D02*
X148383000Y-102650000D01*
X145970000Y-102523000D02*
X146097000Y-102650000D01*
X148383000Y-102650000D02*
X148383000Y-103920000D01*
X146097000Y-102650000D02*
X146097000Y-103920000D01*
X148383000Y-105190000D02*
X148383000Y-103920000D01*
X146097000Y-105190000D02*
X146097000Y-103920000D01*
X148510000Y-105317000D02*
X148383000Y-105190000D01*
X145970000Y-105317000D02*
X146097000Y-105190000D01*
X148510000Y-106714000D02*
X148510000Y-105317000D01*
X145970000Y-106714000D02*
X145970000Y-105317000D01*
X148129000Y-107095000D02*
X148510000Y-106714000D01*
X147240000Y-107095000D02*
X147240000Y-107984000D01*
X146351000Y-107095000D02*
X145970000Y-106714000D01*
X146351000Y-107095000D02*
X148129000Y-107095000D01*
X95175000Y-96529000D02*
X94794000Y-96910000D01*
X95175000Y-95640000D02*
X96064000Y-95640000D01*
X95175000Y-94751000D02*
X95175000Y-96529000D01*
X95175000Y-94751000D02*
X94794000Y-94370000D01*
X94794000Y-96910000D02*
X93397000Y-96910000D01*
X94794000Y-94370000D02*
X93397000Y-94370000D01*
X93397000Y-96910000D02*
X93270000Y-96783000D01*
X93397000Y-94370000D02*
X93270000Y-94497000D01*
X93270000Y-96783000D02*
X92000000Y-96783000D01*
X93270000Y-94497000D02*
X92000000Y-94497000D01*
X90730000Y-96783000D02*
X92000000Y-96783000D01*
X90730000Y-94497000D02*
X92000000Y-94497000D01*
X90603000Y-96910000D02*
X90730000Y-96783000D01*
X90603000Y-94370000D02*
X90730000Y-94497000D01*
X89206000Y-96910000D02*
X90603000Y-96910000D01*
X89206000Y-94370000D02*
X90603000Y-94370000D01*
X88825000Y-96529000D02*
X89206000Y-96910000D01*
X88825000Y-95640000D02*
X87936000Y-95640000D01*
X88825000Y-94751000D02*
X89206000Y-94370000D01*
X88825000Y-94751000D02*
X88825000Y-96529000D01*
X92000000Y-103460000D02*
X92000000Y-102096000D01*
X92000000Y-103460000D02*
X84260000Y-103460000D01*
X92000000Y-99584000D02*
X92000000Y-98220000D01*
X92000000Y-98220000D02*
X84260000Y-98220000D01*
X84260000Y-103460000D02*
X84260000Y-102096000D01*
X84260000Y-99584000D02*
X84260000Y-98220000D01*
X95175000Y-85409000D02*
X94794000Y-85790000D01*
X95175000Y-84520000D02*
X96064000Y-84520000D01*
X95175000Y-83631000D02*
X95175000Y-85409000D01*
X95175000Y-83631000D02*
X94794000Y-83250000D01*
X94794000Y-85790000D02*
X93397000Y-85790000D01*
X94794000Y-83250000D02*
X93397000Y-83250000D01*
X93397000Y-85790000D02*
X93270000Y-85663000D01*
X93397000Y-83250000D02*
X93270000Y-83377000D01*
X93270000Y-85663000D02*
X92000000Y-85663000D01*
X93270000Y-83377000D02*
X92000000Y-83377000D01*
X90730000Y-85663000D02*
X92000000Y-85663000D01*
X90730000Y-83377000D02*
X92000000Y-83377000D01*
X90603000Y-85790000D02*
X90730000Y-85663000D01*
X90603000Y-83250000D02*
X90730000Y-83377000D01*
X89206000Y-85790000D02*
X90603000Y-85790000D01*
X89206000Y-83250000D02*
X90603000Y-83250000D01*
X88825000Y-85409000D02*
X89206000Y-85790000D01*
X88825000Y-84520000D02*
X87936000Y-84520000D01*
X88825000Y-83631000D02*
X89206000Y-83250000D01*
X88825000Y-83631000D02*
X88825000Y-85409000D01*
X142445000Y-96570000D02*
X141820000Y-96570000D01*
X144660000Y-96570000D02*
X144035000Y-96570000D01*
X141820000Y-92530000D02*
X141820000Y-96570000D01*
X142445000Y-92530000D02*
X141820000Y-92530000D01*
X144660000Y-92530000D02*
X144660000Y-96570000D01*
X144660000Y-92530000D02*
X144035000Y-92530000D01*
X140875000Y-86569000D02*
X140494000Y-86950000D01*
X140875000Y-85680000D02*
X141764000Y-85680000D01*
X140875000Y-84791000D02*
X140875000Y-86569000D01*
X140875000Y-84791000D02*
X140494000Y-84410000D01*
X140494000Y-86950000D02*
X139097000Y-86950000D01*
X140494000Y-84410000D02*
X139097000Y-84410000D01*
X139097000Y-86950000D02*
X138970000Y-86823000D01*
X139097000Y-84410000D02*
X138970000Y-84537000D01*
X138970000Y-86823000D02*
X137700000Y-86823000D01*
X138970000Y-84537000D02*
X137700000Y-84537000D01*
X136430000Y-86823000D02*
X137700000Y-86823000D01*
X136430000Y-84537000D02*
X137700000Y-84537000D01*
X136303000Y-86950000D02*
X136430000Y-86823000D01*
X136303000Y-84410000D02*
X136430000Y-84537000D01*
X134906000Y-86950000D02*
X136303000Y-86950000D01*
X134906000Y-84410000D02*
X136303000Y-84410000D01*
X134525000Y-86569000D02*
X134906000Y-86950000D01*
X134525000Y-85680000D02*
X133636000Y-85680000D01*
X134525000Y-84791000D02*
X134906000Y-84410000D01*
X134525000Y-84791000D02*
X134525000Y-86569000D01*
X79570000Y-86690000D02*
G75*
G03*
X81570000Y-86690000I1000000J0D01*
G01*
X83220000Y-96970000D02*
X83220000Y-86690000D01*
X83220000Y-86690000D02*
X81570000Y-86690000D01*
X79570000Y-86690000D02*
X77920000Y-86690000D01*
X77920000Y-96970000D02*
X83220000Y-96970000D01*
X77920000Y-86690000D02*
X77920000Y-96970000D01*
%LPC*%
D14*
X148559999Y-116529999D03*
X73560001Y-116529999D03*
X148559999Y-66530001D03*
X73559998Y-66530000D03*
D15*
X121620000Y-110840000D03*
X118120000Y-105840000D03*
X114620000Y-110840000D03*
X106620000Y-110840000D03*
X103120000Y-105840000D03*
X99620000Y-110840000D03*
D16*
X125620000Y-95840000D03*
D17*
X125620000Y-85680000D03*
X73760000Y-93140000D03*
X73760000Y-95640000D03*
D18*
X118120000Y-88340000D03*
X118120000Y-95840000D03*
D15*
X105620000Y-74560000D03*
X109120000Y-79560000D03*
X112620000Y-74560000D03*
D17*
X84380000Y-84520000D03*
X81880000Y-84520000D03*
D18*
X103120000Y-88340000D03*
X103120000Y-95840000D03*
D19*
X108080000Y-93300000D03*
X110620000Y-95840000D03*
X113160000Y-93300000D03*
D16*
X129620000Y-95840000D03*
D17*
X129620000Y-85680000D03*
D16*
X142780000Y-89490000D03*
D17*
X132620000Y-89490000D03*
X129620000Y-98420000D03*
X129620000Y-100920000D03*
D19*
X74100000Y-99615000D03*
X76640000Y-102155000D03*
X79180000Y-99615000D03*
D16*
X143240000Y-98840000D03*
D17*
X143240000Y-109000000D03*
D16*
X140240000Y-93300000D03*
X140240000Y-95840000D03*
X140240000Y-98380000D03*
X140240000Y-100920000D03*
X132620000Y-100920000D03*
X132620000Y-98380000D03*
X132620000Y-95840000D03*
D17*
X132620000Y-93300000D03*
D16*
X97080000Y-90560000D03*
D17*
X86920000Y-90560000D03*
D16*
X147240000Y-98840000D03*
D17*
X147240000Y-109000000D03*
D16*
X97080000Y-95640000D03*
D17*
X86920000Y-95640000D03*
D18*
X91880000Y-100840000D03*
X84380000Y-100840000D03*
D16*
X97080000Y-84520000D03*
D17*
X86920000Y-84520000D03*
X143240000Y-95800000D03*
X143240000Y-93300000D03*
D16*
X142780000Y-85680000D03*
D17*
X132620000Y-85680000D03*
D16*
X84380000Y-88020000D03*
X84380000Y-90560000D03*
X84380000Y-93100000D03*
X84380000Y-95640000D03*
X76760000Y-95640000D03*
X76760000Y-93100000D03*
X76760000Y-90560000D03*
D17*
X76760000Y-88020000D03*
M02*
