M48
; DRILL file {KiCad 7.0.1} date 2023-05-01T00:30:45 CEST
; FORMAT={-:-/ absolute / inch / decimal}
; #@! TF.CreationDate,2023-05-01T00:30:45+02:00
; #@! TF.GenerationSoftware,Kicad,Pcbnew,7.0.1
; #@! TF.FileFunction,Plated,1,2,PTH
FMAT,2
INCH
; #@! TA.AperFunction,Plated,PTH,ViaDrill
T1C0.0157
; #@! TA.AperFunction,Plated,PTH,ComponentDrill
T2C0.0315
; #@! TA.AperFunction,Plated,PTH,ComponentDrill
T3C0.0394
; #@! TA.AperFunction,Plated,PTH,ComponentDrill
T4C0.1063
%
G90
G05
T1
X3.1717Y-3.6654
T2
X2.9039Y-3.6669
X2.9039Y-3.7654
X2.9173Y-3.9219
X3.0173Y-4.0219
X3.022Y-3.4654
X3.022Y-3.5654
X3.022Y-3.6654
X3.022Y-3.7654
X3.1173Y-3.9219
X3.2236Y-3.3276
X3.322Y-3.3276
X3.322Y-3.4654
X3.322Y-3.5654
X3.322Y-3.6654
X3.322Y-3.7654
X3.422Y-3.3276
X3.422Y-3.5654
X3.422Y-3.7654
X3.822Y-3.3276
X3.822Y-3.5654
X3.822Y-3.7654
X4.2551Y-3.6732
X4.3551Y-3.7732
X4.4551Y-3.6732
X4.9457Y-3.3732
X4.9457Y-3.7732
X5.1031Y-3.3732
X5.1031Y-3.7732
X5.1031Y-3.8748
X5.1031Y-3.9732
X5.2213Y-3.3732
X5.2213Y-3.5232
X5.2213Y-3.6732
X5.2213Y-3.7732
X5.2213Y-3.8732
X5.2213Y-3.9732
X5.5213Y-3.6732
X5.5213Y-3.7732
X5.5213Y-3.8732
X5.5213Y-3.9732
X5.6213Y-3.3732
X5.6213Y-3.5232
X5.6394Y-3.6732
X5.6394Y-3.7717
X5.6394Y-3.8913
X5.6394Y-4.2913
X5.7969Y-3.8913
X5.7969Y-4.2913
T3
X3.322Y-3.9701
X3.6173Y-3.9701
X3.922Y-4.3638
X4.0598Y-3.478
X4.0598Y-3.7732
X4.0598Y-4.1669
X4.1583Y-2.9354
X4.1976Y-4.3638
X4.2961Y-3.1323
X4.4339Y-2.9354
X4.5126Y-4.3638
X4.6504Y-3.478
X4.6504Y-3.7732
X4.6504Y-4.1669
X4.7882Y-4.3638
T4
X2.8961Y-2.6193
X2.8961Y-4.5878
X5.8488Y-2.6193
X5.8488Y-4.5878
T0
M30
